<?xml version="1.0" encoding="utf-8"?>
<!-- Uploaded to: SVG Repo, www.svgrepo.com, Generator: SVG Repo Mixer Tools -->
<svg fill="#000000" version="1.1" id="_x31_" xmlns="http://www.w3.org/2000/svg" xmlns:xlink="http://www.w3.org/1999/xlink" 
	 viewBox="0 0 128 128" xml:space="preserve">
<path id="_x36_" d="M61.3,99.1V63.8c0-4.5,3.6-8.1,8.1-8.1h24.4c4.5,0,8.1,3.6,8.1,8.1v35.3H61.3z"/>
<rect id="_x35_" x="61.3" y="117.2" width="40.7" height="6.8"/>
<rect id="_x34_" x="61.3" y="101.3" width="40.7" height="13.6"/>
<path id="_x33_" d="M50,83.2c-5,0-9,4.1-9,9s4.1,9,9,9v18.1c0,2.5,2,4.5,4.5,4.5v3.4H59v-3.4v-3.4V92.3C59,87.3,54.9,83.2,50,83.2z"
	/>
<path id="_x32_" d="M113.3,83.2c-5,0-9,4.1-9,9v28.3v3.4v3.4h4.5v-3.4c2.5,0,4.5-2,4.5-4.5v-18.1c5,0,9-4.1,9-9
	S118.3,83.2,113.3,83.2z"/>
<polygon id="_x31__1_" points="35.3,118.3 35.3,36.9 59,36.9 54.5,0.7 9.3,0.7 4.7,36.9 28.5,36.9 28.5,118.3 25.1,118.3 
	22.8,127.3 40.9,127.3 38.7,118.3 "/>
</svg>