<svg viewBox="0 0 8.4666669 8.4666669" id="svg8" version="1.1" xmlns="http://www.w3.org/2000/svg"
    xmlns:cc="http://creativecommons.org/ns#" xmlns:dc="http://purl.org/dc/elements/1.1/"
    xmlns:inkscape="http://www.inkscape.org/namespaces/inkscape" xmlns:rdf="http://www.w3.org/1999/02/22-rdf-syntax-ns#"
    xmlns:sodipodi="http://sodipodi.sourceforge.net/DTD/sodipodi-0.dtd" xmlns:svg="http://www.w3.org/2000/svg"
    fill="#000000">
    <g id="SVGRepo_bgCarrier" stroke-width="0"></g>
    <g id="SVGRepo_tracerCarrier" stroke-linecap="round" stroke-linejoin="round"></g>
    <g id="SVGRepo_iconCarrier">
        <defs id="defs2"></defs>
        <g id="layer1" transform="translate(0,-288.53332)">
            <path
                d="M 8 1 C 6.3552929 1 5 2.3553008 5 4 L 5 28 C 5 29.644699 6.3552929 31 8 31 L 24 31 C 25.644705 31 27 29.644699 27 28 L 27 4 C 27 2.3553008 25.644705 1 24 1 L 8 1 z M 14.003906 3 L 17.996094 3 A 1.000252 1.000252 0 1 1 17.996094 5 L 14.003906 5 A 1.000252 1.000252 0 1 1 14.003906 3 z M 16 27.005859 A 1.0000001 1.0000001 0 0 1 17 28.005859 A 1.0000001 1.0000001 0 0 1 16 29.005859 A 1.0000001 1.0000001 0 0 1 15 28.005859 A 1.0000001 1.0000001 0 0 1 16 27.005859 z "
                id="rect845"
                style="color:#0985E3;font-style:normal;font-variant:normal;font-weight:normal;font-stretch:normal;font-size:medium;line-height:normal;font-family:sans-serif;font-variant-ligatures:normal;font-variant-position:normal;font-variant-caps:normal;font-variant-numeric:normal;font-variant-alternates:normal;font-feature-settings:normal;text-indent:0;text-align:start;text-decoration:none;text-decoration-line:none;text-decoration-style:solid;text-decoration-color:#0985E3;letter-spacing:normal;word-spacing:normal;text-transform:none;writing-mode:lr-tb;direction:ltr;text-orientation:mixed;dominant-baseline:auto;baseline-shift:baseline;text-anchor:start;white-space:normal;shape-padding:0;clip-rule:nonzero;display:inline;overflow:visible;visibility:visible;opacity:1;isolation:auto;mix-blend-mode:normal;color-interpolation:sRGB;color-interpolation-filters:linearRGB;solid-color:#0985E3;solid-opacity:1;vector-effect:none;fill:#0985E3;fill-opacity:1;fill-rule:nonzero;stroke:none;stroke-width:1.99999988;stroke-linecap:round;stroke-linejoin:round;stroke-miterlimit:4;stroke-dasharray:none;stroke-dashoffset:0;stroke-opacity:1;paint-order:stroke fill markers;color-rendering:auto;image-rendering:auto;shape-rendering:auto;text-rendering:auto;enable-background:accumulate"
                transform="matrix(0.26458333,0,0,0.26458333,0,288.53332)"></path>
        </g>
    </g>
</svg>