<svg fill="#0985E3" height="200px" width="200px" version="1.1" id="Layer_1" xmlns="http://www.w3.org/2000/svg"
    xmlns:xlink="http://www.w3.org/1999/xlink" viewBox="0 0 512 512" xml:space="preserve">
    <g id="SVGRepo_bgCarrier" stroke-width="0"></g>
    <g id="SVGRepo_tracerCarrier" stroke-linecap="round" stroke-linejoin="round"></g>
    <g id="SVGRepo_iconCarrier">
        <g>
            <g>
                <path
                    d="M490.667,234.667h-47.36L432.64,192h36.693c11.797,0,21.333-9.557,21.333-21.333V21.333 C490.667,9.557,481.131,0,469.333,0H256c-11.797,0-21.333,9.557-21.333,21.333v149.333c0,11.776,9.536,21.333,21.333,21.333 h36.693l-10.667,42.667h-111.36v-21.333c0-23.531-19.136-42.667-42.667-42.667V128h42.667c6.571,0,12.779-3.029,16.811-8.213 c4.053-5.163,5.483-11.925,3.883-18.304l-21.333-85.333C167.637,6.677,159.125,0,149.333,0H64 c-9.792,0-18.304,6.677-20.693,16.149l-21.333,85.333c-1.6,6.379-0.171,13.141,3.883,18.304c4.032,5.184,10.24,8.213,16.811,8.213 h42.667v42.667c-23.531,0-42.667,19.136-42.667,42.667v21.333H21.333C9.536,234.667,0,244.224,0,256v64v170.667 C0,502.443,9.536,512,21.333,512h128c11.797,0,21.333-9.557,21.333-21.333V341.333h170.667v149.333 c0,11.776,9.536,21.333,21.333,21.333h128c11.797,0,21.333-9.557,21.333-21.333V320v-64 C512,244.224,502.464,234.667,490.667,234.667z M336.661,192h52.011l10.667,42.667h-73.344L336.661,192z M85.333,426.667 c-11.776,0-21.333-9.557-21.333-21.333S73.557,384,85.333,384s21.333,9.557,21.333,21.333S97.109,426.667,85.333,426.667z M426.667,426.667c-11.776,0-21.333-9.557-21.333-21.333S414.891,384,426.667,384S448,393.557,448,405.333 S438.443,426.667,426.667,426.667z M469.333,298.667H362.667H149.333H42.667v-21.333H64h85.333h149.333h128h42.667V298.667z">
                </path>
            </g>
        </g>
    </g>
</svg>