<?xml version="1.0" encoding="utf-8"?>
<!-- Generator: Adobe Illustrator 27.5.0, SVG Export Plug-In . SVG Version: 6.00 Build 0)  -->
<svg version="1.1" xmlns="http://www.w3.org/2000/svg" xmlns:xlink="http://www.w3.org/1999/xlink" x="0px" y="0px"
	 viewBox="0 0 500 500" style="enable-background:new 0 0 500 500;" xml:space="preserve">
<g id="Background_Simple">
	<g>
		<path style="opacity:0.7;fill:#FFFFFF;" d="M67.931,167.086c0,0-27.877,71.988,11.297,144.503
			c39.174,72.516,119.879,110.802,184.469,143.548c64.59,32.746,131.661,16.799,163.534-36.838
			c31.873-53.637-11.845-91.928-11.897-168.418c-0.051-76.49,11.447-96.742-29.963-161.364
			c-41.41-64.623-143.059-78.925-219.9-30.996C88.631,105.45,67.931,167.086,67.931,167.086z"/>
	</g>
	<g>
		<path style="fill:#92E3A9;" d="M77.066,166.455c28.824-53.065,101.321-115.003,200.786-89.203
			c99.464,25.8,166.663,80.38,155.651,175.343c-11.011,94.963-68.874,173.858-193.518,176.168
			C115.34,431.074,13.868,282.803,77.066,166.455z"/>
		<path style="opacity:0.7;fill:#FFFFFF;" d="M77.066,166.455c28.824-53.065,101.321-115.003,200.786-89.203
			c99.464,25.8,166.663,80.38,155.651,175.343c-11.011,94.963-68.874,173.858-193.518,176.168
			C115.34,431.074,13.868,282.803,77.066,166.455z"/>
	</g>
</g>
<g id="Documents">
	<g>
		<path style="fill:none;stroke:#263238;stroke-linecap:round;stroke-linejoin:round;stroke-miterlimit:10;" d="M446.61,286.688
			l-64.858,10.042c-2.479,0.384-4.8-1.315-5.184-3.794l-6.116-39.501c-0.384-2.479,1.315-4.8,3.794-5.184l64.858-10.041
			c2.479-0.384,4.8,1.315,5.184,3.794l6.116,39.501C450.788,283.984,449.089,286.305,446.61,286.688z"/>
		
			<line style="fill:none;stroke:#263238;stroke-linecap:round;stroke-linejoin:round;stroke-miterlimit:10;" x1="371.44" y1="259.814" x2="445.276" y2="248.382"/>
		
			<rect x="428.836" y="262.159" transform="matrix(0.9882 -0.153 0.153 0.9882 -36.3199 69.7241)" style="fill:none;stroke:#263238;stroke-linecap:round;stroke-linejoin:round;stroke-miterlimit:10;" width="12.066" height="17.38"/>
		<path style="fill:none;stroke:#263238;stroke-linecap:round;stroke-linejoin:round;stroke-miterlimit:10;" d="M432.422,266.035
			c2.518-2.968,6.653-0.983,5.689,8.302l3.686,1.831l0.363,2.346l-11.924,1.846l-0.484-3.128l4.497-1.756
			C434.249,275.476,430.052,268.828,432.422,266.035z"/>
		<path style="fill:none;stroke:#263238;stroke-linecap:round;stroke-linejoin:round;stroke-miterlimit:10;" d="M406.549,287.029
			c0,0,8.617,0.067,6.149-1.653c-2.468-1.72-2.838-3.461-0.74-3.487c2.098-0.026,5.617,3.959,5.342,1.536
			c-0.275-2.422,1.238-0.855,1.528-0.7c0.29,0.155,2.783-0.831,2.904-0.55c0.122,0.281-0.05,1.109,8.062-0.147"/>
		
			<line style="fill:none;stroke:#263238;stroke-linecap:round;stroke-linejoin:round;stroke-miterlimit:10;" x1="377.701" y1="267.476" x2="413.864" y2="261.877"/>
		
			<line style="fill:none;stroke:#263238;stroke-linecap:round;stroke-linejoin:round;stroke-miterlimit:10;" x1="378.337" y1="271.581" x2="399.644" y2="268.282"/>
		
			<line style="fill:none;stroke:#263238;stroke-linecap:round;stroke-linejoin:round;stroke-miterlimit:10;" x1="379.457" y1="278.814" x2="409.169" y2="274.214"/>
		
			<line style="fill:none;stroke:#263238;stroke-linecap:round;stroke-linejoin:round;stroke-miterlimit:10;" x1="388.68" y1="251.765" x2="424.94" y2="246.151"/>
	</g>
	<g>
		<polygon style="fill:none;stroke:#263238;stroke-linecap:round;stroke-linejoin:round;stroke-miterlimit:10;" points="
			43.352,226.439 124.422,210.249 152.733,346.168 66.56,364.655 		"/>
		
			<line style="fill:none;stroke:#263238;stroke-linecap:round;stroke-linejoin:round;stroke-miterlimit:10;" x1="63.303" y1="345.257" x2="149.301" y2="329.692"/>
		
			<line style="fill:none;stroke:#263238;stroke-linecap:round;stroke-linejoin:round;stroke-miterlimit:10;" x1="139.109" y1="318.132" x2="98.042" y2="325.714"/>
		
			<line style="fill:none;stroke:#263238;stroke-linecap:round;stroke-linejoin:round;stroke-miterlimit:10;" x1="133.022" y1="311.308" x2="121.022" y2="313.077"/>
		
			<line style="fill:none;stroke:#263238;stroke-linecap:round;stroke-linejoin:round;stroke-miterlimit:10;" x1="134.85" y1="297.433" x2="73.549" y2="308.93"/>
		
			<line style="fill:none;stroke:#263238;stroke-linecap:round;stroke-linejoin:round;stroke-miterlimit:10;stroke-dasharray:1,2;" x1="53.955" y1="289.585" x2="137.86" y2="274.766"/>
		
			<line style="fill:none;stroke:#263238;stroke-linecap:round;stroke-linejoin:round;stroke-miterlimit:10;" x1="143.11" y1="341.769" x2="92.143" y2="352.451"/>
		
			<line style="fill:none;stroke:#263238;stroke-linecap:round;stroke-linejoin:round;stroke-miterlimit:10;" x1="141.593" y1="337.474" x2="117.626" y2="341.769"/>
		
			<line style="fill:none;stroke:#263238;stroke-linecap:round;stroke-linejoin:round;stroke-miterlimit:10;" x1="128.63" y1="265.813" x2="86.604" y2="274.143"/>
		
			<line style="fill:none;stroke:#263238;stroke-linecap:round;stroke-linejoin:round;stroke-miterlimit:10;" x1="125.31" y1="256.482" x2="111.923" y2="259.115"/>
		
			<line style="fill:none;stroke:#263238;stroke-linecap:round;stroke-linejoin:round;stroke-miterlimit:10;" x1="124.517" y1="250" x2="63.303" y2="261.798"/>
		
			<line style="fill:none;stroke:#263238;stroke-linecap:round;stroke-linejoin:round;stroke-miterlimit:10;" x1="118.956" y1="218.462" x2="102.429" y2="221.882"/>
		
			<line style="fill:none;stroke:#263238;stroke-linecap:round;stroke-linejoin:round;stroke-miterlimit:10;" x1="63.303" y1="230.209" x2="49.04" y2="232.978"/>
		<g>
			<path style="fill:none;stroke:#263238;stroke-linecap:round;stroke-linejoin:round;stroke-miterlimit:10;" d="M54.23,240.841
				c0.583-2.036,2.04-3.742,3.955-4.643"/>
			<path style="fill:none;stroke:#263238;stroke-linecap:round;stroke-linejoin:round;stroke-miterlimit:10;" d="M60.568,250
				c-3.594-0.465-6.613-3.454-6.613-7.165"/>
			<path style="fill:none;stroke:#263238;stroke-linecap:round;stroke-linejoin:round;stroke-miterlimit:10;" d="M66.133,248.304
				c-1.018,0.904-2.281,1.493-3.63,1.686"/>
			<path style="fill:none;stroke:#263238;stroke-linecap:round;stroke-linejoin:round;stroke-miterlimit:10;" d="M61.273,235.517
				c5.518,0.023,9.139,6.464,6.216,11.181"/>
		</g>
		<g>
			<path style="fill:none;stroke:#263238;stroke-linecap:round;stroke-linejoin:round;stroke-miterlimit:10;" d="M75.85,237.404
				c-1.328-0.427-2.651-0.908-4.015-1.206"/>
			<path style="fill:none;stroke:#263238;stroke-linecap:round;stroke-linejoin:round;stroke-miterlimit:10;" d="M87.194,238.365
				c-1.133,2.687-7.454,0.234-9.298-0.323"/>
			<path style="fill:none;stroke:#263238;stroke-linecap:round;stroke-linejoin:round;stroke-miterlimit:10;" d="M76.371,231.224
				c3.939,0.936,7.877,1.872,11.816,2.809c-0.186,0.787-0.336,1.583-0.486,2.378"/>
			<path style="fill:none;stroke:#263238;stroke-linecap:round;stroke-linejoin:round;stroke-miterlimit:10;" d="M70.517,234.033
				c1.26-3.045,0.767-4.018,3.908-3.271"/>
		</g>
	</g>
</g>
<g id="Bubble_2">
	<g>
		<path style="fill:none;stroke:#263238;stroke-linecap:round;stroke-linejoin:round;stroke-miterlimit:10;" d="M214.748,446.267
			l15.647,4.798l-11.628-13.695c6.402-7.367,10.184-16.378,10.3-25.735"/>
		<path style="fill:none;stroke:#263238;stroke-linecap:round;stroke-linejoin:round;stroke-miterlimit:10;" d="M195.76,452.311
			c5.415-1.737,10.347-4.263,14.673-7.366"/>
		<path style="fill:none;stroke:#263238;stroke-linecap:round;stroke-linejoin:round;stroke-miterlimit:10;" d="M135.37,423.215
			c4.607,22.205,29.15,35.888,54.818,30.563"/>
		<path style="fill:none;stroke:#263238;stroke-linecap:round;stroke-linejoin:round;stroke-miterlimit:10;" d="M139.109,398.173
			c-0.988,1.884-1.825,3.828-2.498,5.817"/>
		<path style="fill:none;stroke:#263238;stroke-linecap:round;stroke-linejoin:round;stroke-miterlimit:10;" d="M228.323,403.929
			c-4.607-22.205-29.15-35.888-54.818-30.563c-12.405,2.574-22.803,9.116-29.716,17.697"/>
		<path style="fill:none;stroke:#263238;stroke-linecap:round;stroke-linejoin:round;stroke-miterlimit:10;" d="M201.09,395.79
			c-7.389-8.053-17.461-2.469-21.647,5.701c-6.924-6.028-18.35-7.467-22.214,2.756c-6.516,17.235,15.785,27.738,26.097,31.546
			c1.17,0.44,2.137,0.802,2.939,1.078c0.641-0.555,1.406-1.25,2.327-2.094C196.749,427.409,213.547,409.367,201.09,395.79z"/>
	</g>
</g>
<g id="Bubble_1">
	<g>
		<path style="fill:none;stroke:#263238;stroke-linecap:round;stroke-linejoin:round;stroke-miterlimit:10;" d="M262.542,67.976
			l-15.112-6.282l10.254,14.752c-7.082,6.716-11.714,15.32-12.731,24.624"/>
		<path style="fill:none;stroke:#263238;stroke-linecap:round;stroke-linejoin:round;stroke-miterlimit:10;" d="M282.024,63.789
			c-5.557,1.207-10.71,3.247-15.314,5.919"/>
		<path style="fill:none;stroke:#263238;stroke-linecap:round;stroke-linejoin:round;stroke-miterlimit:10;" d="M339.331,98.567
			c-2.447-22.545-25.558-38.529-51.62-35.701"/>
		<path style="fill:none;stroke:#263238;stroke-linecap:round;stroke-linejoin:round;stroke-miterlimit:10;" d="M333.197,123.132
			c1.165-1.78,2.185-3.634,3.047-5.55"/>
		<path style="fill:none;stroke:#263238;stroke-linecap:round;stroke-linejoin:round;stroke-miterlimit:10;" d="M244.952,108.81
			c2.447,22.545,25.558,38.529,51.62,35.701c12.595-1.367,23.575-6.878,31.282-14.752"/>
		
			<ellipse transform="matrix(0.8817 -0.4719 0.4719 0.8817 -13.4477 149.7908)" style="fill:none;stroke:#263238;stroke-linecap:round;stroke-linejoin:round;stroke-miterlimit:10;" cx="291.926" cy="101.707" rx="23.732" ry="23.732"/>
		<polyline style="fill:none;stroke:#263238;stroke-linecap:round;stroke-linejoin:round;stroke-miterlimit:10;" points="
			282.912,104.69 290.006,111.391 301.854,91.005 		"/>
	</g>
</g>
<g id="Hand_2">
	<g>
		<path style="opacity:0.2;fill-opacity:0.7;" d="M321.593,327.714c0,0-3.56,43.078,1.582,53.522
			c5.143,10.445,7.732,81.853,5.422,90.834c0,0,16.584,4.182,23.146-1.757c6.562-5.939,16.651-0.226,33.267-6.039
			c16.615-5.813,4.627-134.079,4.627-134.079l0.514-46.665l-27.415-24.415L321.593,327.714z"/>
		<g>
			<defs>
				<path id="XMLID_455_" d="M343.69,348.43c-0.15,0.38-0.31,0.66-0.49,0.83c-3.54,3.35-18.65,7.07-31.63,9.75
					c-10.75,2.23-20.04,3.74-20.04,3.74s-7.12-59.17-7.12-65.39c0-6.23-11.48-106.92-11.48-106.92l27.52-1.19l36.57-1.58
					c0,0,0.22,2.69,0.59,7.39C339.95,225.04,348.28,336.62,343.69,348.43z"/>
			</defs>
			<use xlink:href="#XMLID_455_"  style="overflow:visible;fill:#92E3A9;"/>
			<clipPath id="XMLID_00000050647151802594650590000016333415338222871945_">
				<use xlink:href="#XMLID_455_"  style="overflow:visible;"/>
			</clipPath>
			<path style="opacity:0.2;clip-path:url(#XMLID_00000050647151802594650590000016333415338222871945_);fill-opacity:0.7;" d="
				M343.69,348.43l-32.12,6.61l-12.13,2.49c-3.29-3.23-5.8-3.29-5.8-3.29l-0.96-9.05l-1.57-14.81l-13.82-130.3
				c3.02-2.07,4.48-6.6,4.48-6.6l18.5-0.67l32.05-1.17l5.29,3.42C339.95,225.04,348.28,336.62,343.69,348.43z"/>
			
				<path style="clip-path:url(#XMLID_00000050647151802594650590000016333415338222871945_);fill:none;stroke:#263238;stroke-linecap:round;stroke-linejoin:round;stroke-miterlimit:10;" d="
				M343.69,348.43l-32.12,6.61l-12.13,2.49c-3.29-3.23-5.8-3.29-5.8-3.29l-0.96-9.05l-1.57-14.81l-13.82-130.3
				c3.02-2.07,4.48-6.6,4.48-6.6l18.5-0.67l32.05-1.17l5.29,3.42C339.95,225.04,348.28,336.62,343.69,348.43z"/>
			<g style="clip-path:url(#XMLID_00000050647151802594650590000016333415338222871945_);">
				<polygon style="fill:#92E3A9;stroke:#263238;stroke-linecap:round;stroke-linejoin:round;stroke-miterlimit:10;" points="
					295.344,310.068 306.062,310.051 306.072,313.405 303.089,314.461 296.221,315.213 				"/>
				<polygon style="fill:#92E3A9;stroke:#263238;stroke-linecap:round;stroke-linejoin:round;stroke-miterlimit:10;" points="
					296.003,316.969 303.881,316.698 305.901,317.662 305.795,322.106 296.6,322.213 				"/>
				<polygon style="fill:#92E3A9;stroke:#263238;stroke-linecap:round;stroke-linejoin:round;stroke-miterlimit:10;" points="
					297.26,324.078 306.265,323.434 306.158,326.804 301.812,328.342 297.209,328.082 				"/>
				<polygon style="fill:#92E3A9;stroke:#263238;stroke-linecap:round;stroke-linejoin:round;stroke-miterlimit:10;" points="
					297.803,329.761 305.067,330.127 305.727,331.992 304.67,334.044 298.172,334.456 297.05,331.286 				"/>
				<path style="fill:#92E3A9;stroke:#263238;stroke-linecap:round;stroke-linejoin:round;stroke-miterlimit:10;" d="
					M306.181,336.267c0.345,0.969,0.69,1.938,1.035,2.908c0.23,0.647,0.446,1.417,0.047,1.975c-0.328,0.459-0.962,0.586-1.524,0.536
					c-0.562-0.051-1.106-0.24-1.67-0.265c-1.686-0.075-3.244,1.316-4.905,1.016c-0.649-1.795-2.284-4.433-0.069-5.247
					C299.434,337.066,306.416,336.93,306.181,336.267z"/>
				<path style="fill:#92E3A9;stroke:#263238;stroke-linecap:round;stroke-linejoin:round;stroke-miterlimit:10;" d="
					M306.148,344.462c0.163,0.69,0.277,1.392,0.342,2.099c0.084,0.912,0.011,1.988-0.744,2.507
					c-0.399,0.274-0.905,0.326-1.386,0.369c-1.927,0.173-3.853,0.346-5.78,0.52c-0.052,0.005-0.133-2.972-0.054-3.276
					c0.34-1.297,0.099-1.191,1.33-1.717C301.807,344.13,304.147,345.452,306.148,344.462z"/>
			</g>
			
				<path style="clip-path:url(#XMLID_00000050647151802594650590000016333415338222871945_);fill:none;stroke:#263238;stroke-linecap:round;stroke-linejoin:round;stroke-miterlimit:10;" d="
				M285.13,203.027c0,0,2.183,21.076,2.282,25.245"/>
			
				<line style="clip-path:url(#XMLID_00000050647151802594650590000016333415338222871945_);fill:none;stroke:#263238;stroke-linecap:round;stroke-linejoin:round;stroke-miterlimit:10;" x1="289.828" y1="203.229" x2="290.852" y2="214.843"/>
			
				<polygon style="clip-path:url(#XMLID_00000050647151802594650590000016333415338222871945_);fill:#92E3A9;stroke:#263238;stroke-linecap:round;stroke-linejoin:round;stroke-miterlimit:10;" points="
				306.117,198.842 307.438,212.451 309.288,212.626 308.685,198.969 			"/>
			<path style="opacity:0.2;clip-path:url(#XMLID_00000050647151802594650590000016333415338222871945_);fill-opacity:0.7;" d="
				M343.69,348.43c-0.15,0.38-0.31,0.66-0.49,0.83c-3.54,3.35-18.65,7.07-31.63,9.75v-8.98l-18.89-4.84l-2.85-0.73l1.28-14.08
				l4.89-53.82l4.27-83.75l0.18-3.56l36.57-1.58c0,0,0.22,2.69,0.59,7.39C339.95,225.04,348.28,336.62,343.69,348.43z"/>
			
				<use xlink:href="#XMLID_455_"  style="overflow:visible;fill:none;stroke:#263238;stroke-linecap:round;stroke-linejoin:round;stroke-miterlimit:10;"/>
		</g>
		<g>
			<path style="fill:#FFFFFF;" d="M363.06,482.7c0.23-2.11-3.09-32.379-3.15-35.669c-0.16-9.02-2.71-20.811-2.71-20.811
				c-3.56-9.1-6.33-30.07-15.83-43.52c-9.49-13.45-9.49-29.27-11.07-42.72c-1.59-13.45-1.19-12.27-0.79-24.19
				c0.39-11.93-0.4-18.93-1.19-26.84c-0.79-7.92-2.37-21.85,0-28.34c2.37-6.48,8.57-7.98,15.36-1.5c6.79,6.49,9.56,33.15,9.56,36.44
				c0,3.29,0,13.57,2.38,17.53c0,0,13.45-6.88,13.45-8.78c0-1.9-0.4-18.69,1.58-19.59l-7.91-25.6l15.03-5.33c0,0,3.62,2.97,7.24,8.7
				c1.49,2.36,2.99,5.2,4.23,8.49c6.33,16.79,16.5,28.5,18.6,33.33c2.1,4.82,0,43.19,0,50.32c0,7.12-4.6,40.03-4.48,45.53
				c0.09,3.97,2.79,18.88,5.48,30.29c1.04,4.4,7.07,36.28,7.95,38.81L363.06,482.7z"/>
			<path style="opacity:0.4;fill:#92E3A9;" d="M374.9,283.07c-0.1,2.15,2.47,19.29,2.47,19.29
				c1.784,4.266-7.941,18.826-7.941,18.826c-2.099,1.187-3.013,8.506-3.013,8.506c-6.58-1.46-21.646-16.612-21.646-16.612
				s-1.81,6.21-3.79,21.58c-1.98,15.36,10.68,51.88,16.08,77.09s2.85,35.281,2.85,35.281c-0.16-9.02-2.71-20.811-2.71-20.811
				c-3.56-9.1-6.33-30.07-15.83-43.52c-9.49-13.45-9.49-29.27-11.07-42.72c-1.59-13.45-1.19-12.27-0.79-24.19
				c0.39-11.93-0.4-18.93-1.19-26.84c-0.79-7.92-2.37-21.85,0-28.34c2.37-6.48,8.57-7.98,15.36-1.5c6.79,6.49,9.56,33.15,9.56,36.44
				c0,3.29,0,13.57,2.38,17.53c0,0,13.45-6.88,13.45-8.78c0-1.9-0.4-18.69,1.58-19.59l-7.91-25.6l15.03-5.33c0,0,3.62,2.97,7.24,8.7
				C380.13,272.23,374.96,281.73,374.9,283.07z"/>
			<path style="opacity:0.4;fill:#92E3A9;" d="M400.12,402.85c0.66-5.99,2.63-20.26,3.88-29.16c-1.53,6.95-3.98,10.47-3.98,10.47
				s4.26-51.03,4.68-54.11c0.42-3.09,4.72-17.09,3.14-25.75c2.1,4.82,0,43.19,0,50.32c0,7.12-4.6,40.03-4.48,45.53
				c0.09,3.97,4.378,29.485,7.068,40.895C404.628,432.645,399.46,408.88,400.12,402.85z"/>
			<path style="fill:none;stroke:#263238;stroke-linecap:round;stroke-linejoin:round;stroke-miterlimit:10;" d="M416.791,469.253
				c-3.165-9.099-13.308-63.604-13.431-69.102c-0.124-5.497,4.475-38.414,4.475-45.535c0-7.121,2.1-45.494,0-50.319
				c-2.1-4.824-12.264-16.538-18.593-33.33c-4.238-11.242-11.473-17.19-11.473-17.19l-15.033,5.339l7.912,25.59
				c-1.978,0.903-1.582,17.69-1.582,19.591c0,1.901-13.451,8.78-13.451,8.78c-2.374-3.956-2.374-14.242-2.374-17.529
				s-2.769-29.944-9.56-36.433c-6.791-6.49-12.989-4.983-15.363,1.5c-2.374,6.483-0.791,20.419,0,28.331
				c0.791,7.912,1.582,14.914,1.187,26.842c-0.396,11.927-0.791,10.741,0.791,24.191c1.582,13.451,1.582,29.275,11.077,42.725
				c9.495,13.451,12.264,34.418,15.824,43.516c0,0,6.727,48.571,5.864,56.484"/>
			<path style="fill:none;stroke:#263238;stroke-linecap:round;stroke-linejoin:round;stroke-miterlimit:10;" d="M355.615,313.077
				c0,0,2.374,11.077,7.714,16.615"/>
			<path style="fill:none;stroke:#263238;stroke-linecap:round;stroke-linejoin:round;stroke-miterlimit:10;" d="M357.058,318.132
				c0,0,10.03,3.055,14.184,3.252"/>
			<path style="fill:none;stroke:#263238;stroke-linecap:round;stroke-linejoin:round;stroke-miterlimit:10;" d="M369.066,304.297
				c0,0,7.121-3.286,11.67-1.307"/>
			<path style="fill:none;stroke:#263238;stroke-linecap:round;stroke-linejoin:round;stroke-miterlimit:10;" d="M370.648,284.705
				c0,0,5.538-0.507,6.725-3.277"/>
			<path style="fill:none;stroke:#263238;stroke-linecap:round;stroke-linejoin:round;stroke-miterlimit:10;" d="M343.204,385.524
				c0,0,10.631,13.201,13.796,19.926"/>
			<path style="fill:none;stroke:#263238;stroke-linecap:round;stroke-linejoin:round;stroke-miterlimit:10;" d="M405.066,327.714
				c-1.78,10.484-4.154,39.165-4.945,44.308"/>
			<path style="fill:none;stroke:#263238;stroke-linecap:round;stroke-linejoin:round;stroke-miterlimit:10;" d="M408.471,307.93
				c0.296,9.498-2.021,14.443-2.021,14.443"/>
		</g>
		<g>
			<defs>
				<path id="XMLID_454_" d="M326.685,175.013l73.337,19.323c0,0-25.794,78.209-31.064,87.918l-8.738,68.172
					c0,0-46.836-2.056-68.376-8.567c0,0,13.614-71.012,14.346-80.466C306.923,251.938,326.685,175.013,326.685,175.013z"/>
			</defs>
			<use xlink:href="#XMLID_454_"  style="overflow:visible;fill:#92E3A9;"/>
			<clipPath id="XMLID_00000031919917263553112650000005638591916979860886_">
				<use xlink:href="#XMLID_454_"  style="overflow:visible;"/>
			</clipPath>
			<path style="opacity:0.2;clip-path:url(#XMLID_00000031919917263553112650000005638591916979860886_);fill-opacity:0.7;" d="
				M310.912,257.19l16.156-69.089c0,0,6.954-3.454,9.642-6.596l52.532,14.934c0,0,0.161,5.151,3.165,8.455l-26.505,76.386
				l-6.429,56.308c0,0-8.554,0.687-9.371,7.017c0,0-27.717,1.496-46.311-3.406c0,0-2.191-6.833-5.539-11.151L310.912,257.19z"/>
			
				<path style="clip-path:url(#XMLID_00000031919917263553112650000005638591916979860886_);fill:none;stroke:#263238;stroke-linecap:round;stroke-linejoin:round;stroke-miterlimit:10;" d="
				M310.912,257.19l16.156-69.089c0,0,6.954-3.454,9.642-6.596l52.532,14.934c0,0,0.161,5.151,3.165,8.455l-26.505,76.386
				l-6.429,56.308c0,0-8.554,0.687-9.371,7.017c0,0-27.717,1.496-46.311-3.406c0,0-2.191-6.833-5.539-11.151L310.912,257.19z"/>
			
				<path style="clip-path:url(#XMLID_00000031919917263553112650000005638591916979860886_);fill:#92E3A9;stroke:#263238;stroke-linecap:round;stroke-linejoin:round;stroke-miterlimit:10;" d="
				M324.363,260.776c0,0,4.767-18.013,21.57-14.763c16.804,3.25,7.309,25.404,7.309,25.404s0.103,17.899-13.533,15.429
				C327.895,284.705,321.593,278.223,324.363,260.776z"/>
			
				<path style="clip-path:url(#XMLID_00000031919917263553112650000005638591916979860886_);fill:none;stroke:#263238;stroke-linecap:round;stroke-linejoin:round;stroke-miterlimit:10;" d="
				M333.461,194.67c0,0-5.079,20.572-6.396,24.527"/>
			
				<line style="clip-path:url(#XMLID_00000031919917263553112650000005638591916979860886_);fill:none;stroke:#263238;stroke-linecap:round;stroke-linejoin:round;stroke-miterlimit:10;" x1="337.813" y1="196.451" x2="334.846" y2="207.725"/>
			<g style="clip-path:url(#XMLID_00000031919917263553112650000005638591916979860886_);">
				<polygon style="fill:#92E3A9;stroke:#263238;stroke-linecap:round;stroke-linejoin:round;stroke-miterlimit:10;" points="
					374.901,204.363 385.01,207.923 383.901,211.088 380.736,211.088 374.011,209.505 				"/>
				<polygon style="fill:#92E3A9;stroke:#263238;stroke-linecap:round;stroke-linejoin:round;stroke-miterlimit:10;" points="
					373.22,211.088 380.736,213.462 382.319,215.044 380.736,219.198 372.033,216.231 				"/>
				<polygon style="fill:#92E3A9;stroke:#263238;stroke-linecap:round;stroke-linejoin:round;stroke-miterlimit:10;" points="
					372.033,218.209 380.736,220.607 379.51,223.747 374.901,223.747 370.648,221.967 				"/>
				<polygon style="fill:#92E3A9;stroke:#263238;stroke-linecap:round;stroke-linejoin:round;stroke-miterlimit:10;" points="
					370.648,223.747 377.374,226.516 377.374,228.495 375.692,230.077 369.429,228.297 369.429,224.934 				"/>
				<path style="fill:#92E3A9;stroke:#263238;stroke-linecap:round;stroke-linejoin:round;stroke-miterlimit:10;" d="
					M376.375,232.677c0.002,1.029,0.004,2.058,0.006,3.086c0.001,0.687-0.052,1.484-0.615,1.878
					c-0.462,0.323-1.103,0.232-1.616-0.003c-0.513-0.235-0.963-0.595-1.486-0.807c-1.564-0.633-3.497,0.158-4.963-0.679
					c-0.013-1.909-0.674-4.941,1.686-4.969C369.748,231.178,376.375,233.38,376.375,232.677z"/>
				<path style="fill:#92E3A9;stroke:#263238;stroke-linecap:round;stroke-linejoin:round;stroke-miterlimit:10;" d="
					M373.609,240.39c-0.077,0.705-0.204,1.405-0.378,2.092c-0.225,0.888-0.653,1.878-1.538,2.115
					c-0.467,0.125-0.961,0.005-1.43-0.115c-1.874-0.479-3.748-0.959-5.622-1.439c-0.05-0.013,0.866-2.846,1.043-3.106
					c0.754-1.109,0.491-1.09,1.826-1.175C369.628,238.629,371.393,240.656,373.609,240.39z"/>
			</g>
			
				<polygon style="clip-path:url(#XMLID_00000031919917263553112650000005638591916979860886_);fill:#92E3A9;stroke:#263238;stroke-linecap:round;stroke-linejoin:round;stroke-miterlimit:10;" points="
				354.626,197.835 351.264,211.088 352.945,211.879 357,198.824 			"/>
			<g style="clip-path:url(#XMLID_00000031919917263553112650000005638591916979860886_);">
				<polygon style="fill:#92E3A9;stroke:#263238;stroke-linecap:round;stroke-linejoin:round;stroke-miterlimit:10;" points="
					312.401,286.825 322.778,289.507 321.944,292.755 318.791,293.026 311.955,292.025 				"/>
				<polygon style="fill:#92E3A9;stroke:#263238;stroke-linecap:round;stroke-linejoin:round;stroke-miterlimit:10;" points="
					311.302,293.67 318.994,295.391 320.706,296.832 319.485,301.107 310.56,298.895 				"/>
				<polygon style="fill:#92E3A9;stroke:#263238;stroke-linecap:round;stroke-linejoin:round;stroke-miterlimit:10;" points="
					310.729,300.866 319.606,302.51 318.653,305.744 314.061,306.139 309.671,304.729 				"/>
				<polygon style="fill:#92E3A9;stroke:#263238;stroke-linecap:round;stroke-linejoin:round;stroke-miterlimit:10;" points="
					309.824,306.503 316.761,308.686 316.93,310.657 315.391,312.377 308.998,311.14 308.71,307.79 				"/>
				<path style="fill:#92E3A9;stroke:#263238;stroke-linecap:round;stroke-linejoin:round;stroke-miterlimit:10;" d="
					M316.294,314.909c0.09,1.025,0.18,2.05,0.27,3.075c0.06,0.684,0.075,1.483-0.452,1.923c-0.433,0.362-1.079,0.325-1.61,0.135
					c-0.531-0.19-1.01-0.511-1.549-0.677c-1.613-0.497-3.471,0.457-5.002-0.252c-0.176-1.901-1.094-4.865,1.254-5.095
					C309.562,313.983,316.354,315.61,316.294,314.909z"/>
				<path style="fill:#92E3A9;stroke:#263238;stroke-linecap:round;stroke-linejoin:round;stroke-miterlimit:10;" d="
					M314.198,322.831c-0.017,0.709-0.083,1.417-0.197,2.117c-0.148,0.904-0.49,1.927-1.351,2.239
					c-0.455,0.165-0.957,0.088-1.435,0.008c-1.908-0.317-3.816-0.635-5.725-0.952c-0.051-0.008,0.619-2.909,0.773-3.184
					c0.656-1.17,0.396-1.128,1.719-1.327C310.081,321.417,312.012,323.286,314.198,322.831z"/>
			</g>
			
				<path style="clip-path:url(#XMLID_00000031919917263553112650000005638591916979860886_);fill:none;stroke:#263238;stroke-linecap:round;stroke-linejoin:round;stroke-miterlimit:10;" d="
				M355.615,332.539c0,0,2.374-26.579,2.374-29.213"/>
			
				<path style="clip-path:url(#XMLID_00000031919917263553112650000005638591916979860886_);fill:none;stroke:#263238;stroke-linecap:round;stroke-linejoin:round;stroke-miterlimit:10;" d="
				M350.868,331.352c0,0,0.989-13.806,1.187-16.2"/>
			
				<polygon style="clip-path:url(#XMLID_00000031919917263553112650000005638591916979860886_);fill:#92E3A9;stroke:#263238;stroke-linecap:round;stroke-linejoin:round;stroke-miterlimit:10;" points="
				332.317,321.385 329.11,337.088 332.317,337.088 334.648,321.385 			"/>
			<path style="opacity:0.2;clip-path:url(#XMLID_00000031919917263553112650000005638591916979860886_);fill-opacity:0.7;" d="
				M369.17,281.86c-6.94-1.45-13.13-3.58-17.71-6.65c0,0,3.32,9.54,15.09,25.8l-6.33,49.42c0,0-30.57-1.34-53.67-5.29
				c7.1-20,19.98-57.9,18.47-65.41c-2.07-10.31,5.24-22.48,5.24-22.48c23.11-4.16,45.52-21.63,60.9-36.4
				C383.33,244.03,372.64,275.02,369.17,281.86z"/>
			
				<use xlink:href="#XMLID_454_"  style="overflow:visible;fill:none;stroke:#263238;stroke-linecap:round;stroke-linejoin:round;stroke-miterlimit:10;"/>
		</g>
		<g>
			<g>
				<path style="fill:#FFFFFF;" d="M367.33,330.69L357,405.45c-2.3-4.89-8.57-13.23-11.81-17.4c-1.2-1.56-1.99-2.53-1.99-2.53
					l-1.83-2.82c-9.49-13.45-9.49-29.27-11.07-42.72c-1.59-13.45-1.19-12.27-0.79-24.19c0.39-11.93-0.4-18.93-1.19-26.84
					c-0.79-7.92-2.37-21.85,0-28.34c1.16-3.18,3.25-5.16,5.87-5.58c2.72-0.45,6.03,0.78,9.49,4.08c6.79,6.49,9.56,33.15,9.56,36.44
					c0,3.29,0,13.57,2.38,17.53C355.62,313.08,361.99,325.15,367.33,330.69z"/>
			</g>
			<path style="opacity:0.4;fill:#92E3A9;" d="M340.58,377.37c2.16,2.76,3.63,6.74,4.61,10.68c-1.2-1.56-1.99-2.53-1.99-2.53
				l-1.83-2.82c-9.49-13.45-9.49-29.27-11.07-42.72c-1.59-13.45-1.19-12.27-0.79-24.19c0.39-11.93-0.4-18.93-1.19-26.84
				c-0.79-7.92-2.37-21.85,0-28.34c1.16-3.18,3.25-5.16,5.87-5.58c5.04,1.42,9.98,6.51,11.74,15.22
				c2.96,14.62-10.53,2.81-13.66,15.2c-3.12,12.38,1.42,15.73,3.29,18.85c1.86,3.12-0.52,9.99-3.29,19.24
				C329.51,332.8,334.65,369.78,340.58,377.37z"/>
			<g>
				<path style="fill:none;stroke:#263238;stroke-linecap:round;stroke-linejoin:round;stroke-miterlimit:10;" d="M367.33,330.692
					c-5.341-5.538-11.714-17.615-11.714-17.615c-2.374-3.956-2.374-14.242-2.374-17.529s-2.769-29.944-9.56-36.433
					c-6.791-6.49-12.989-4.983-15.363,1.5c-2.374,6.483-0.791,20.419,0,28.331c0.791,7.912,1.582,14.914,1.187,26.842
					c-0.396,11.927-0.791,10.741,0.791,24.191c1.582,13.451,1.582,29.275,11.077,42.725l1.83,2.821c0,0,10.631,13.201,13.796,19.926
					"/>
			</g>
			<path style="fill:none;stroke:#263238;stroke-linecap:round;stroke-linejoin:round;stroke-miterlimit:10;" d="M332.317,299.052
				c0,0,9.076-4.689,13.615-4.293"/>
		</g>
	</g>
</g>
<g id="Hand_1">
	<g>
		<path style="opacity:0.2;fill-opacity:0.7;" d="M193.813,170.809c0,0-22.945-25.26-24.528-26.842
			c-1.582-1.582-2.769-28.483-7.121-40.352c-4.352-11.868-6.477-81.495-6.477-81.495s-4.143-5.143-15.844-2.374
			c-11.701,2.769-23.174-2.374-36.228,5.143c-13.055,7.517,12.264,115.121,12.264,115.121l25.687,81.871L193.813,170.809z"/>
		<g>
			<path style="fill:#FFFFFF;" d="M209.57,170.99c0,0-10.28,65.67-20.97,74.37c-6.19,5.05-15.84,7.3-24.4,6.99
				c-6.2-0.22-11.84-1.78-15.16-4.61c-7.91-6.73-18.99-10.29-24.52-14.64c-5.54-4.35-5.54-19.78-9.1-32.84
				c-3.56-13.05-8.71-13.45-9.89-26.5c-1.19-13.06-5.94-53.01-14.54-64.09s-8.8-19.78-12.36-31.06
				c-3.56-11.28-29.59-52.07-29.59-52.07l63.48-13c0,0,6.24,25.83,12.92,46.9c3.17,10,6.44,18.94,9.18,23.52
				c8.52,14.24,13.63,27.69,13.63,27.69c7.18,7.52,11.11,24.18,12.3,38.77v0.01l16.98,9.48
				C190.58,163.47,209.57,170.99,209.57,170.99z"/>
			<path style="opacity:0.4;fill:#92E3A9;" d="M209.57,170.99c0,0-10.28,65.67-20.97,74.37c-6.19,5.05-15.84,7.3-24.4,6.99
				c-20.3-5.02-25.76-16.32-28.51-19.06c-3.66-3.65-8.47-25.89-5.83-38.83c2.63-12.94,0.738-17.731-1.44-24.05
				c-4.827-14.001,9.904-21.538,11.424-26.839c1.52-5.29,0.975-34.942-5.635-44.582c-3.52-5.13-12.593-31.571-8.769-38.549
				c3.17,10,6.44,18.94,9.18,23.52c8.52,14.24,13.63,27.69,13.63,27.69c7.18,7.52,11.11,24.18,12.3,38.77v0.01l16.98,9.48
				C190.58,163.47,209.57,170.99,209.57,170.99z"/>
			<path style="fill:none;stroke:#263238;stroke-linecap:round;stroke-linejoin:round;stroke-miterlimit:10;" d="M132.048,166.383
				c0,0-3.575,4.211-6.74,4.211"/>
			<path style="fill:none;stroke:#263238;stroke-linecap:round;stroke-linejoin:round;stroke-miterlimit:10;" d="M139.844,180.608
				c0,0-3.855,8.183-9.987,9.964"/>
			<path style="fill:none;stroke:#263238;stroke-linecap:round;stroke-linejoin:round;stroke-miterlimit:10;" d="M133.022,228.549
				c0,0,8.703-3.758,10.088-10.088"/>
			<path style="fill:none;stroke:#263238;stroke-linecap:round;stroke-linejoin:round;stroke-miterlimit:10;" d="M177.527,159.912
				c0,0-2.176,2.769-2.176,4.945"/>
			<path style="fill:none;stroke:#263238;stroke-linecap:round;stroke-linejoin:round;stroke-miterlimit:10;" d="M112.52,13.54
				c0,0,13.58,56.17,22.1,70.42c8.52,14.24,13.63,27.69,13.63,27.69c7.18,7.52,11.11,24.19,12.3,38.78v-0.01v0.01l16.98,9.48
				c13.05,3.56,32.04,11.08,32.04,11.08s-10.28,65.67-20.97,74.37c-10.68,8.71-31.64,9.1-39.56,2.38
				c-7.91-6.73-18.99-10.29-24.52-14.64c-5.54-4.35-5.54-19.78-9.1-32.84c-3.56-13.05-8.71-13.45-9.89-26.5
				c-1.19-13.06-5.94-53.01-14.54-64.09s-8.8-19.78-12.36-31.06c-3.56-11.28-29.59-52.07-29.59-52.07"/>
		</g>
		<g>
			<polygon style="fill:#263238;stroke:#263238;stroke-linecap:round;stroke-linejoin:round;stroke-miterlimit:10;" points="
				233.624,166.735 128.63,328.35 153.414,331.112 228.703,334.239 236.407,190.492 			"/>
			<g>
				<defs>
					<polygon id="XMLID_456_" points="233.62,166.73 223.92,331.48 128.63,328.35 136.15,202.11 138.49,162.91 180.01,164.58 					
						"/>
				</defs>
				<use xlink:href="#XMLID_456_"  style="overflow:visible;fill:#757575;"/>
				<clipPath id="XMLID_00000183221711317776906780000005078220034775305631_">
					<use xlink:href="#XMLID_456_"  style="overflow:visible;"/>
				</clipPath>
				<g style="clip-path:url(#XMLID_00000183221711317776906780000005078220034775305631_);">
					<circle style="fill:#BFBFBF;stroke:#263238;stroke-miterlimit:10;" cx="209.659" cy="300.912" r="11.604"/>
					
						<line style="fill:none;stroke:#263238;stroke-linecap:round;stroke-linejoin:round;stroke-miterlimit:10;" x1="206.391" y1="293.209" x2="214.251" y2="294.242"/>
					
						<line style="fill:none;stroke:#263238;stroke-linecap:round;stroke-linejoin:round;stroke-miterlimit:10;" x1="204.278" y1="295.12" x2="216.094" y2="296.275"/>
					
						<line style="fill:none;stroke:#263238;stroke-linecap:round;stroke-linejoin:round;stroke-miterlimit:10;" x1="202.968" y1="306.756" x2="214.785" y2="307.91"/>
					<g>
						<path style="fill:#263238;" d="M208.145,297.753c1.014,0.108,1.292-0.357,1.555-0.896l0.882,0.095l-0.895,8.348l-1.311-0.141
							l0.683-6.368l-1.014-0.108L208.145,297.753z"/>
						<path style="fill:#263238;" d="M212.51,298.096c0.52,0.056,0.755,0.396,0.696,0.942l-0.011,0.106l-0.506-0.055l0.015-0.141
							c0.026-0.244-0.062-0.347-0.232-0.364c-0.17-0.019-0.277,0.063-0.304,0.307c-0.026,0.248,0.061,0.444,0.378,0.789
							c0.406,0.442,0.517,0.74,0.475,1.13c-0.058,0.546-0.365,0.828-0.89,0.772c-0.526-0.057-0.765-0.397-0.707-0.943l0.022-0.208
							l0.506,0.054l-0.026,0.243c-0.026,0.243,0.072,0.344,0.242,0.361c0.17,0.018,0.287-0.059,0.314-0.302
							c0.026-0.248-0.061-0.444-0.379-0.789c-0.406-0.442-0.517-0.74-0.475-1.13C211.688,298.322,211.989,298.04,212.51,298.096z"/>
						<path style="fill:#263238;" d="M213.45,298.236l1.656,0.177l-0.052,0.487l-0.56-0.06l-0.313,2.922l-0.536-0.058l0.313-2.922
							l-0.561-0.06L213.45,298.236z"/>
					</g>
				</g>
				<g style="clip-path:url(#XMLID_00000183221711317776906780000005078220034775305631_);">
					<path style="fill:#FFFFFF;stroke:#263238;stroke-linecap:round;stroke-linejoin:round;stroke-miterlimit:10;" d="
						M182.447,187.369l-18.6-4.057c-0.48-0.105-0.785-0.579-0.68-1.059l2.529-11.595c0.105-0.48,0.579-0.785,1.059-0.68l18.6,4.057
						c0.48,0.105,0.785,0.579,0.68,1.059l-2.529,11.596C183.401,187.169,182.927,187.474,182.447,187.369z"/>
					<g>
						<path style="fill:#263238;" d="M169.968,181.421c-0.01-0.019-0.031-0.039-0.065-0.07c-0.045-0.04-0.015-0.121-0.05-0.17
							c-0.014-0.019-0.036-0.03-0.055-0.045c-0.053-0.039-0.083-0.101-0.111-0.16c-0.008-0.018-0.017-0.037-0.014-0.056
							c0.006-0.037,0.047-0.054,0.078-0.075c0.045-0.029,0.078-0.077,0.089-0.13c0.004-0.019,0.006-0.041,0.021-0.053
							c0.016-0.013,0.042-0.01,0.057-0.025c0.01-0.01,0.012-0.027,0.014-0.041c0.017-0.19-0.12-0.33-0.237-0.474
							c-0.292-0.358-0.351-0.546-0.299-0.785c0.052-0.239,0.167-0.308,0.334-0.272c0.167,0.036,0.243,0.148,0.19,0.386l-0.03,0.138
							l0.496,0.108l0.023-0.105c0.099-0.453-0.029-0.781-0.385-0.939l0.054-0.248l-0.429-0.094l-0.054,0.248
							c-0.385,0.001-0.634,0.247-0.731,0.695c-0.083,0.382,0.006,0.681,0.362,1.113c0.293,0.354,0.351,0.546,0.299,0.785
							c-0.052,0.239-0.176,0.301-0.343,0.265c-0.167-0.036-0.253-0.145-0.201-0.384l0.057-0.262l-0.496-0.108l-0.05,0.229
							c-0.099,0.453,0.029,0.786,0.389,0.944l-0.053,0.243l0.429,0.094c0,0,0.053-0.243,0.053-0.243
							c-0.002,0.009,0.236-0.034,0.258-0.042c0.077-0.029,0.148-0.073,0.208-0.129c0.064-0.059,0.118-0.132,0.158-0.21
							C169.97,181.481,169.983,181.451,169.968,181.421z"/>
						<path style="fill:#263238;" d="M172.751,181.259c-0.007-0.077-0.025-0.155-0.058-0.234c-0.015-0.036-0.033-0.076-0.021-0.113
							c0.01-0.032,0.04-0.054,0.065-0.076c0.268-0.236-0.063-0.558-0.314-0.613c-0.21-0.046-0.377,0.008-0.516,0.142l0.217-0.787
							l0.916,0.2l0.104-0.477l-1.383-0.302c-0.016,0.059-0.064,0.153-0.057,0.212c0.008,0.071,0.083,0.094,0.085,0.167
							c0.001,0.037-0.017,0.073-0.015,0.111c0.004,0.061,0.058,0.103,0.106,0.141c0.048,0.037,0.098,0.087,0.092,0.147
							c-0.003,0.025-0.015,0.048-0.028,0.069c-0.049,0.086-0.106,0.176-0.197,0.215c-0.035,0.015-0.078,0.026-0.093,0.061
							c-0.008,0.018-0.006,0.038-0.008,0.057c-0.009,0.07-0.074,0.118-0.134,0.157c-0.199,0.131-0.209,0.356-0.269,0.58l0.496,0.108
							l0.022-0.1c0.052-0.239,0.177-0.306,0.344-0.27c0.167,0.036,0.252,0.15,0.2,0.389l-0.16,0.735
							c-0.052,0.239-0.176,0.301-0.343,0.265c-0.167-0.036-0.253-0.145-0.201-0.384l0.068-0.31l-0.496-0.108l-0.06,0.277
							c-0.117,0.534,0.084,0.898,0.599,1.01c0.515,0.112,0.849-0.135,0.965-0.669C172.721,181.654,172.77,181.458,172.751,181.259z"
							/>
						<path style="fill:#263238;" d="M179.279,182.659c-0.007-0.077-0.025-0.155-0.058-0.234c-0.015-0.036-0.033-0.076-0.021-0.113
							c0.01-0.033,0.04-0.054,0.065-0.077c0.268-0.236-0.063-0.559-0.314-0.613c-0.21-0.046-0.376,0.008-0.516,0.142l0.217-0.787
							l0.916,0.2l0.104-0.477l-1.383-0.302c-0.016,0.059-0.064,0.153-0.057,0.212c0.008,0.071,0.083,0.094,0.085,0.167
							c0.001,0.037-0.017,0.073-0.015,0.111c0.004,0.06,0.058,0.103,0.106,0.141c0.048,0.037,0.098,0.087,0.092,0.147
							c-0.003,0.025-0.015,0.048-0.028,0.069c-0.049,0.086-0.106,0.176-0.197,0.215c-0.035,0.015-0.078,0.026-0.093,0.061
							c-0.007,0.018-0.006,0.038-0.008,0.057c-0.009,0.07-0.074,0.118-0.134,0.157c-0.199,0.131-0.209,0.357-0.269,0.58l0.496,0.108
							l0.022-0.1c0.052-0.238,0.177-0.306,0.344-0.27c0.167,0.036,0.252,0.15,0.2,0.389l-0.16,0.735
							c-0.052,0.238-0.176,0.301-0.343,0.265c-0.167-0.036-0.253-0.145-0.201-0.384l0.068-0.31l-0.496-0.108l-0.06,0.277
							c-0.117,0.534,0.084,0.898,0.599,1.01c0.515,0.112,0.849-0.135,0.966-0.669C179.248,183.054,179.298,182.858,179.279,182.659z
							"/>
						<path style="fill:#263238;" d="M173.891,180.267c0.052-0.239,0.177-0.306,0.344-0.27c0.112,0.024,0.167,0.102,0.188,0.211
							c0.054,0.019,0.114,0.032,0.17,0.044c0.01,0.002,0.021,0.005,0.028,0.012c0.01,0.01,0.01,0.026,0.012,0.04
							c0.006,0.057,0.045,0.106,0.093,0.139c0.069,0.047,0.148,0.073,0.216,0.122c0.168-0.486-0.114-0.938-0.603-1.045
							c-0.515-0.112-0.863,0.132-0.98,0.666c-0.014,0.064-0.032,0.129-0.042,0.194c-0.025,0.161,0.027,0.105,0.164,0.167
							c0.06,0.027,0.212,0.143,0.072,0.195c-0.015,0.006-0.032,0.007-0.047,0.015c-0.014,0.008-0.026,0.025-0.02,0.04
							c0.035,0.014,0.07,0.028,0.097,0.053c0.027,0.025,0.044,0.065,0.032,0.1c-0.01,0.031-0.04,0.052-0.05,0.083
							c-0.009,0.028-0.003,0.067-0.029,0.081c-0.012,0.007-0.027,0.005-0.039,0.012c-0.021,0.011-0.073,0.128-0.094,0.155
							c-0.032,0.04-0.074,0.094-0.121,0.119c-0.136,0.073-0.19,0.016-0.231,0.199c-0.024,0.107-0.047,0.214-0.07,0.321
							c-0.117,0.534,0.098,0.901,0.614,1.013c0.515,0.112,0.863-0.132,0.98-0.666l0.152-0.696c-0.018-0.007-0.037-0.005-0.054-0.014
							c-0.119-0.052-0.231-0.116-0.337-0.19c-0.035-0.024-0.062-0.056-0.096-0.081l-0.196,0.9c-0.052,0.239-0.177,0.306-0.344,0.27
							c-0.167-0.036-0.252-0.15-0.2-0.389c0,0,0.295-1.354,0.293-1.363c-0.008-0.086,0.019-0.166,0.057-0.242L173.891,180.267z"/>
						<path style="fill:#263238;" d="M176.355,181.918c0.017-0.013,0.032-0.027,0.041-0.046c0.023-0.047,0.002-0.105,0.05-0.173
							c0.081,0.016,0.145,0.019,0.225,0.019l0.168-0.772c0.117-0.534-0.098-0.901-0.614-1.013c-0.515-0.112-0.863,0.132-0.98,0.666
							l-0.031,0.14c0.074,0.062,0.115,0.158,0.183,0.213c0.065,0.052,0.177,0.042,0.156,0.173c-0.01,0.064-0.061,0.134-0.023,0.187
							c0.021,0.029,0.063,0.039,0.081,0.071c0.02,0.036-0.004,0.081-0.033,0.11c-0.029,0.029-0.066,0.052-0.083,0.09
							c-0.025,0.057-0.005,0.144-0.062,0.17c-0.089,0.04-0.19-0.126-0.297-0.109c-0.092,0.014-0.128,0.093-0.157,0.173
							c-0.058,0.163-0.078,0.35-0.115,0.52c-0.117,0.534,0.098,0.901,0.613,1.013c0.229,0.05,0.477,0.035,0.668-0.114
							c0.094-0.073,0.164-0.171,0.217-0.277c0.085-0.171,0.079-0.222-0.033-0.372c-0.01-0.013-0.022-0.028-0.039-0.029
							c-0.02-0.002-0.036,0.016-0.053,0.029c-0.016,0.012-0.046,0.016-0.053-0.003c-0.023-0.08-0.046-0.159-0.07-0.239
							c-0.004-0.014-0.008-0.028-0.004-0.042c0.008-0.03,0.045-0.04,0.07-0.059c0.078-0.057,0.039-0.191,0.1-0.266
							C176.304,181.952,176.331,181.936,176.355,181.918z M175.929,182.601c-0.052,0.238-0.177,0.306-0.344,0.27
							c-0.167-0.036-0.252-0.15-0.2-0.389l0.393-1.803c0.052-0.239,0.177-0.306,0.344-0.27c0.167,0.036,0.252,0.15,0.2,0.389
							L175.929,182.601z"/>
						<path style="fill:#263238;" d="M177.239,183.161l-0.11,0.506l-0.506-0.11l0.11-0.506L177.239,183.161z"/>
						<path style="fill:#263238;" d="M181.417,182.271c0.062-0.045,0.067-0.236,0.083-0.309c0.117-0.534-0.098-0.901-0.614-1.013
							c-0.515-0.112-0.863,0.132-0.98,0.666c-0.048,0.221-0.093,0.443-0.145,0.663c0.129,0.118-0.025,0.311,0.055,0.448
							c0.013,0.022,0.032,0.042,0.033,0.068c0.005,0.079-0.148,0.091-0.147,0.171c0,0.015,0.006,0.028,0.009,0.043
							c0.035,0.132-0.086,0.12-0.136,0.183c-0.033,0.041-0.036,0.109-0.048,0.162c-0.117,0.534,0.098,0.901,0.613,1.013
							c0.515,0.112,0.863-0.132,0.98-0.666c0.04-0.182,0.079-0.364,0.119-0.546c0.031-0.141,0.18-0.514,0.026-0.627
							c-0.033-0.024-0.076-0.035-0.1-0.067c-0.031-0.042-0.018-0.1,0-0.148C181.222,182.161,181.309,182.327,181.417,182.271z
							 M180.811,183.15c-0.039,0.064-0.1,0.082-0.15,0.162c-0.049,0.079-0.052,0.215-0.072,0.305
							c-0.052,0.239-0.177,0.306-0.344,0.27c-0.167-0.036-0.252-0.15-0.2-0.389c0.015-0.07,0.099-0.27,0.07-0.333
							c-0.023-0.05-0.099-0.038-0.133-0.113c-0.039-0.087-0.015-0.232,0.007-0.32c0.006-0.024,0.013-0.049,0.01-0.074
							c-0.007-0.046-0.05-0.092-0.028-0.132c0.008-0.016,0.024-0.025,0.036-0.038c0.045-0.048,0.025-0.125,0.034-0.216
							c0.011-0.01,0.028-0.004,0.041,0.001c0.316,0.116,0.31-0.373,0.355-0.577c0.052-0.238,0.177-0.306,0.344-0.27
							c0.167,0.036,0.252,0.15,0.2,0.389c-0.042,0.191-0.143,0.437-0.127,0.629c0.088,0.001,0.156,0.074,0.161,0.162
							c0.003,0.057-0.02,0.115-0.001,0.169c0.015,0.042,0.056,0.084,0.037,0.125c-0.016,0.035-0.062,0.039-0.099,0.051
							c-0.056,0.018-0.101,0.068-0.114,0.126C180.833,183.107,180.823,183.131,180.811,183.15z"/>
					</g>
					<path style="fill:none;stroke:#263238;stroke-linecap:round;stroke-linejoin:round;stroke-miterlimit:10;" d="M175.832,174.993
						c1.127,0.246,2.254,0.492,3.381,0.738"/>
					<path style="fill:none;stroke:#263238;stroke-linecap:round;stroke-linejoin:round;stroke-miterlimit:10;" d="M168.152,173.318
						c2.013,0.439,4.025,0.878,6.038,1.317"/>
					
						<line style="fill:none;stroke:#263238;stroke-linecap:round;stroke-linejoin:round;stroke-miterlimit:10;" x1="167.646" y1="175.637" x2="171.608" y2="176.501"/>
				</g>
				<path style="opacity:0.4;clip-path:url(#XMLID_00000183221711317776906780000005078220034775305631_);fill:#FFFFFF;" d="
					M133.022,326.893c0,0,6.33-1.918,16.088-2.159c9.758-0.24,15.983,1.606,24-2.35c8.017-3.956,13.187,3.165,20.835-0.791
					c7.648-3.956,11.206-10.308,15.625-10.165c4.419,0.143,11.012-70.692,13.122-82.879c2.11-12.187,6.626-46.174,8.176-53.066
					l-8.703,153.568L133.022,326.893z"/>
				
					<polygon style="clip-path:url(#XMLID_00000183221711317776906780000005078220034775305631_);fill:#92E3A9;stroke:#263238;stroke-linecap:round;stroke-linejoin:round;stroke-miterlimit:10;" points="
					133.418,296.67 157.813,326.341 132.048,324.734 				"/>
				<g style="clip-path:url(#XMLID_00000183221711317776906780000005078220034775305631_);">
					<path style="fill:#92E3A9;stroke:#263238;stroke-linecap:round;stroke-linejoin:round;stroke-miterlimit:10;" d="
						M198.155,237.96l-0.394,11.293c-0.23,6.596-5.816,11.804-12.411,11.574l-11.603-0.405c-6.596-0.23-11.804-5.815-11.574-12.411
						l0.513-14.701c0.23-6.596,5.815-11.804,12.411-11.574l11.603,0.405c0.32,0.011,0.639,0.032,0.948,0.073
						c-1.709,1.671-2.811,3.984-2.9,6.553c-0.186,5.317,3.971,9.774,9.288,9.96C195.494,238.777,196.895,238.496,198.155,237.96z"/>
					<path style="fill:#92E3A9;stroke:#263238;stroke-linecap:round;stroke-linejoin:round;stroke-miterlimit:10;" d="
						M200.236,228.253c-0.106,3.029-2.647,5.398-5.676,5.293c-3.029-0.106-5.398-2.647-5.293-5.676
						c0.106-3.029,2.647-5.398,5.676-5.293C197.972,222.683,200.342,225.224,200.236,228.253z"/>
				</g>
				<path style="opacity:0.4;clip-path:url(#XMLID_00000183221711317776906780000005078220034775305631_);fill:#FFFFFF;" d="
					M165.469,249.396l17.05-14.571c0,0-2.163-7.817,0-10.286l-8.193-0.018c-4.092-0.009-7.484,3.168-7.742,7.252L165.469,249.396z"
					/>
				<path style="opacity:0.4;clip-path:url(#XMLID_00000183221711317776906780000005078220034775305631_);fill:#FFFFFF;" d="
					M192.429,228.549l3.655-4.029c0,0-2.27-1.534-3.655,0C191.044,226.055,192.429,228.549,192.429,228.549z"/>
				
					<line style="clip-path:url(#XMLID_00000183221711317776906780000005078220034775305631_);fill:none;stroke:#263238;stroke-linecap:round;stroke-linejoin:round;stroke-miterlimit:10;" x1="190.648" y1="315.659" x2="218.143" y2="316.846"/>
				
					<line style="clip-path:url(#XMLID_00000183221711317776906780000005078220034775305631_);fill:none;stroke:#263238;stroke-linecap:round;stroke-linejoin:round;stroke-miterlimit:10;" x1="181.127" y1="318.429" x2="218.143" y2="320.407"/>
				
					<line style="clip-path:url(#XMLID_00000183221711317776906780000005078220034775305631_);fill:none;stroke:#263238;stroke-linecap:round;stroke-linejoin:round;stroke-miterlimit:10;" x1="208.451" y1="326.341" x2="218.143" y2="326.341"/>
				<path style="opacity:0.2;clip-path:url(#XMLID_00000183221711317776906780000005078220034775305631_);fill-opacity:0.7;" d="
					M174.76,225.37c-14.18,6.82-29.54-17.07-34.92-20.36c-1.29-0.79-2.54-1.81-3.69-2.9l2.34-39.2l41.52,1.67
					c-0.27,5.84-0.18,12.29,1.12,16.03C183.92,188.67,188.93,218.56,174.76,225.37z"/>
				<path style="opacity:0.4;clip-path:url(#XMLID_00000183221711317776906780000005078220034775305631_);fill:#FFFFFF;" d="
					M158.868,226.589c0,0,11.341,4.917,16.483,1.961c5.143-2.956,10.681-8.495,11.473-20.89c0,0,6.747,17.451-6.867,22.681
					C166.343,235.571,158.868,226.589,158.868,226.589z"/>
				<path style="opacity:0.4;clip-path:url(#XMLID_00000183221711317776906780000005078220034775305631_);fill:#FFFFFF;" d="
					M154.451,233.571c0,0,22.945,6.176,32.835-5.022c0,0-1.319,6.209-11.934,7.989C164.736,238.319,154.451,233.571,154.451,233.571
					z"/>
				<path style="opacity:0.4;clip-path:url(#XMLID_00000183221711317776906780000005078220034775305631_);fill:#FFFFFF;" d="
					M191.44,193.615c-1.748-3.108,0.396,24.846,0.396,24.846S195,199.945,191.44,193.615z"/>
				
					<use xlink:href="#XMLID_456_"  style="overflow:visible;fill:none;stroke:#263238;stroke-linecap:round;stroke-linejoin:round;stroke-miterlimit:10;"/>
			</g>
			<polygon style="opacity:0.4;fill:#FFFFFF;" points="228.804,332.355 225.33,331.48 233.62,180.608 235.088,190.571 			"/>
		</g>
		<g>
			<path style="fill:#FFFFFF;" d="M174.76,225.37c-2.46,1.4-5.78,1.47-8.54,0.13c-1.9-0.91-3.7-2.56-5.31-5.46
				c-3.95-7.12-14.64-23.34-16.61-28.05c-1.98-4.71-6.33-17.84-10.68-23.37c-4.36-5.54-6.73-13.85-6.73-13.85l-1.58-80.7
				c2.37,11.67,8.9,24.92,8.9,24.92c9.69,5.14,14.04,12.66,14.04,12.66c0.97,1.02,1.88,2.2,2.73,3.53c6.46,10,9.59,27.99,9.93,41.96
				c0.4,15.83,5.54,22.95,13.85,36.79C183.07,207.78,180.158,222.297,174.76,225.37z"/>
			<path style="opacity:0.4;fill:#92E3A9;" d="M174.76,225.37c-2.498,1.331-5.78,1.47-8.54,0.13c4.54-1.24,10.5-3.57,9.13-7.04
				c-2.15-5.48-8.44,2.65-11.6,0c-3.17-2.65-14.64-17.85-7.35-24.54c7.28-6.7,4.97-17.91,0-21.07c-4.98-3.17-1.75-10.69-0.17-22.54
				c0.96-7.17-2.43-23.41-5.25-35.13c6.46,10,9.59,27.99,9.93,41.96c0.4,15.83,5.54,22.95,13.85,36.79
				C183.07,207.78,180.158,222.495,174.76,225.37z"/>
			<path style="fill:none;stroke:#263238;stroke-linecap:round;stroke-linejoin:round;stroke-miterlimit:10;" d="M125.308,74.066
				c2.374,11.67,8.901,24.923,8.901,24.923c9.692,5.143,14.044,12.659,14.044,12.659c8.308,8.703,12.264,29.67,12.659,45.494
				c0.396,15.824,5.538,22.945,13.846,36.791c8.308,13.846,6,28.165,0,31.439c-4.181,2.282-9.89,1.791-13.846-5.33
				c-3.956-7.121-14.637-23.341-16.615-28.052c-1.978-4.712-6.33-17.838-10.681-23.376c-4.352-5.538-6.725-13.846-6.725-13.846"/>
			<path style="fill:none;stroke:#263238;stroke-linecap:round;stroke-linejoin:round;stroke-miterlimit:10;" d="M150.98,190.571
				c0,0,6.461-0.578,9.416-3.02"/>
			<path style="fill:none;stroke:#263238;stroke-linecap:round;stroke-linejoin:round;stroke-miterlimit:10;" d="M124.517,156.409
				c0,0-1.253,3.044,5.34,5.982"/>
		</g>
	</g>
</g>
</svg>
