<?xml version="1.0" encoding="utf-8"?>
<!-- Generator: Adobe Illustrator 27.5.0, SVG Export Plug-In . SVG Version: 6.00 Build 0)  -->
<svg version="1.1" xmlns="http://www.w3.org/2000/svg" xmlns:xlink="http://www.w3.org/1999/xlink" x="0px" y="0px"
	 viewBox="0 0 500 500" style="enable-background:new 0 0 500 500;" xml:space="preserve">
<g id="Floor">
	<ellipse id="Floor_12_" style="fill:#FAFAFA;" cx="250" cy="344.18" rx="242.495" ry="141.997"/>
</g>
<g id="Shadows">
	<path id="Shadow_17_" style="fill:#EBEBEB;" d="M150.028,229.131L31.603,297.504c-2.502,1.444-2.502,3.786,0,5.231l274.705,158.789
		c2.502,1.444,6.799,2.035,9.585,1.272c52.14-14.276,92.879-38.602,119.035-68.28c1.91-2.167,1.366-5.151-1.136-6.595
		L159.088,229.131C156.586,227.686,152.53,227.686,150.028,229.131z"/>
	<ellipse id="Shadow_30_" style="fill:#EBEBEB;" cx="113.749" cy="376.454" rx="35.13" ry="20.283"/>
	<path id="Shadow_36_" style="fill:#EBEBEB;" d="M396.906,275.003c-12.989,7.499-12.989,19.658,0,27.157
		c12.989,7.499,34.048,7.499,47.036,0c12.989-7.499,12.989-19.657,0-27.157C430.954,267.504,409.895,267.504,396.906,275.003z"/>
</g>
<g id="Tree">
	<g id="Tree_2_">
		<path style="fill:#E0E0E0;" d="M437.968,211.422l-2.615-1.328l-12.479,27.928v-33.532h-4.908v26.99l-12.747-23.948l-2.493,1.543
			l15.24,27.975v50.822c0,0.363,0.239,0.725,0.719,1.002c0.958,0.553,2.512,0.553,3.47,0c0.479-0.277,0.719-0.639,0.719-1.002
			v-43.373L437.968,211.422z"/>
		
			<ellipse id="XMLID_1188_" transform="matrix(0.2298 -0.9732 0.9732 0.2298 170.0701 572.353)" style="fill:#F0F0F0;" cx="446.634" cy="178.73" rx="37.635" ry="37.635"/>
		<path id="XMLID_1187_" style="fill:#E0E0E0;" d="M458.431,169.105c4.853-15.284,10.027-21.261,6.744-23.126
			c-5.471-3.108-11.797-4.884-18.541-4.884c-20.785,0-37.634,16.85-37.634,37.635c0,20.785,16.849,37.635,37.634,37.635
			c11.687,0,22.129-5.327,29.032-13.685C464.516,205.935,452.136,188.929,458.431,169.105z"/>
		<g>
			<path id="XMLID_1186_" style="fill:#F0F0F0;" d="M413.797,189.382c0,14.608-11.842,26.45-26.45,26.45
				c-14.608,0-26.451-11.842-26.451-26.45c0-14.608,11.843-26.45,26.451-26.45C401.955,162.932,413.797,174.774,413.797,189.382z"/>
			<path id="XMLID_1185_" style="fill:#E0E0E0;" d="M387.347,162.932c-5.773,0-11.109,1.854-15.458,4.993
				c-0.716,16.155,13.001,31.913,9.167,37.209c-3.864,5.338-13.281,2.042-16.571-2.454c4.584,7.864,13.103,13.153,22.862,13.153
				c14.608,0,26.45-11.842,26.45-26.45C413.797,174.774,401.955,162.932,387.347,162.932z"/>
		</g>
		<g id="XMLID_1183_">
			<path id="XMLID_1184_" style="fill:#F0F0F0;" d="M468.948,160.864c0,26.799-21.725,48.523-48.523,48.523
				c-26.799,0-48.524-21.725-48.524-48.523c0-26.799,21.725-48.524,48.524-48.524C447.223,112.34,468.948,134.065,468.948,160.864z"
				/>
		</g>
		<path id="XMLID_327_" style="fill:#EBEBEB;" d="M467.655,171.951c-5.01,21.455-24.247,37.434-47.231,37.434
			c-26.8,0-48.526-21.72-48.526-48.52c0-12.78,4.942-24.406,13.021-33.071c3.374-3.619,3.581-3.772,0.265-0.271
			c-0.826,3.557-1.283,7.263-1.283,11.079c0,26.8,21.726,48.526,48.52,48.526C446.303,187.128,458.809,181.287,467.655,171.951z"/>
	</g>
</g>
<g id="Clouds">
	<g id="Clouds_1_">
		<path id="XMLID_1190_" style="fill:#F0F0F0;" d="M82.753,40.002l-7.742,4.47c0.038-0.346,0.065-0.689,0.065-1.025v-2.243
			c0-3.991-2.802-5.609-6.259-3.613c-1.4,0.808-2.688,2.089-3.73,3.587c-0.566-5.019-4.504-6.889-9.286-4.127
			c-5.171,2.986-9.364,10.247-9.364,16.218v3.355c0,1.547,0.286,2.849,0.793,3.887L40.8,64.224
			c-1.918,1.107-3.472,3.799-3.472,6.013s1.554,3.111,3.472,2.004L82.753,48.02c1.917-1.107,3.472-3.799,3.472-6.013
			C86.225,39.792,84.671,38.895,82.753,40.002z"/>
		<path id="XMLID_1189_" style="fill:#F0F0F0;" d="M129.972,56.27l-5.843,3.373c0.029-0.261,0.049-0.52,0.049-0.774v-1.693
			c0-3.012-2.115-4.233-4.724-2.727c-1.056,0.61-2.028,1.576-2.815,2.707c-0.427-3.788-3.399-5.199-7.008-3.115
			c-3.903,2.253-7.067,7.733-7.067,12.24v2.533c0,1.167,0.216,2.15,0.598,2.934l-4.853,2.802c-1.447,0.835-2.62,2.867-2.62,4.538
			c0,1.671,1.173,2.348,2.62,1.513l31.663-18.28c1.447-0.836,2.62-2.868,2.62-4.538C132.592,56.112,131.419,55.434,129.972,56.27z"
			/>
	</g>
</g>
<g id="Truck_1_">
	<g id="Truck">
		<g id="Back">
			<g id="XMLID_1275_">
				<path style="fill:#263238;" d="M109.183,302.674c0,3.621-0.623,6.689-1.73,9.133h-0.01c-1.066,2.354-2.595,4.124-4.466,5.23
					l-0.151,0.09l-0.02,0.02l-11.134,6.427c-0.01,0.01-0.01,0.01-0.02,0.01l-4.526-8.982L86.824,314
					c-2.434-1.861-4.717-4.204-6.759-6.87c-0.493-0.634-0.965-1.277-1.418-1.951c-2.736-3.953-4.949-8.479-6.417-13.116
					c-1.157-3.641-1.84-7.352-1.941-10.913l-0.08-0.151l-1.137-2.263l-2.374-4.707l-0.986-1.961l9.927-5.743h0.01l0.674-0.392
					l0.272-0.161c1.489-0.855,3.178-1.297,5.029-1.297c2.464,0,5.21,0.784,8.107,2.454
					C100.473,273.134,109.183,289.136,109.183,302.674z"/>
				<path id="XMLID_1281_" style="fill:#37474F;" d="M58.947,286.741c0,11.671,6.48,25.18,15.155,32.652
					c0.017,0.01,0.027,0.027,0.035,0.035c1.375,1.176,2.804,2.212,4.268,3.057c10.748,6.211,19.466,0.261,19.458-13.273
					c0-10.225-4.974-21.871-12.038-29.623c-0.017-0.017-0.043-0.034-0.06-0.06c-2.273-2.482-4.756-4.564-7.36-6.062
					C67.657,267.265,58.947,273.206,58.947,286.741z"/>
				<path id="XMLID_1280_" style="fill:#455A64;" d="M78.405,281.636c-6.839-3.948-12.383,0.166-12.383,9.191
					c0,9.024,5.544,19.541,12.383,23.49c6.838,3.948,12.382-0.166,12.382-9.19S85.243,285.586,78.405,281.636z"/>
				<path id="XMLID_1279_" style="fill:#455A64;" d="M58.947,286.741c0,11.671,6.48,25.18,15.155,32.652
					c-5.139-5.591-10.46-14.954-12.341-23.882c-1.646-7.804-1.028-19.004,5.67-21.835c6.645-2.814,15.537,3.135,18.334,5.852
					c-2.273-2.482-4.756-4.564-7.36-6.062C67.657,267.265,58.947,273.206,58.947,286.741z"/>
				<g id="XMLID_1276_">
					<path id="XMLID_1278_" style="fill:#E0E0E0;" d="M78.404,289.496c-3.549-2.049-6.426,0.087-6.426,4.77
						c0,4.684,2.877,10.143,6.426,12.192c3.55,2.049,6.427-0.087,6.427-4.77C84.831,297.004,81.954,291.546,78.404,289.496z"/>
					<path id="XMLID_1277_" style="fill:#F5F5F5;" d="M76.354,289.414c-0.489-0.282-0.96-0.465-1.413-0.574
						c-1.781,0.48-2.964,2.426-2.964,5.426c0,3.348,1.474,7.085,3.608,9.696c0.252,0.191,0.508,0.369,0.769,0.52
						c3.153,1.82,5.71-0.077,5.71-4.238C82.064,296.084,79.508,291.235,76.354,289.414z"/>
				</g>
			</g>
			<g>
				<polygon style="fill:#455A64;" points="64.829,259.264 64.827,263.981 203.738,344.181 203.738,339.464 				"/>
				<g>
					<path style="fill:#27DEBF;" d="M107.703,288.736l-7.597-4.386v25.787c0,1.389,0.975,1.952,2.178,1.257l5.989-3.459l-0.57-0.331
						V288.736z"/>
					<path style="opacity:0.7;fill:#FFFFFF;" d="M107.703,288.736l-7.597-4.386v25.787c0,1.389,0.975,1.952,2.178,1.257l5.989-3.459
						l-0.57-0.331V288.736z"/>
				</g>
				<g>
					<g>
						<polygon style="fill:#37474F;" points="107.703,288.736 107.703,302.889 142.454,322.952 142.454,308.799 						"/>
						<polygon style="fill:#263238;" points="142.454,322.952 107.703,302.889 105.684,304.086 142.454,325.294 						"/>
						<polygon style="fill:#455A64;" points="105.687,306.45 105.687,304.096 142.454,325.294 142.454,327.669 						"/>
					</g>
					<g>
						<polygon style="fill:#37474F;" points="142.454,304.081 142.454,332.387 171.053,348.899 171.053,320.593 						"/>
						<polygon style="fill:#37474F;" points="171.053,320.593 171.053,348.899 199.653,365.411 199.652,337.105 						"/>
						<polygon style="fill:#263238;" points="199.653,365.411 207.824,360.693 207.82,337.103 203.738,339.464 199.652,337.105 
													"/>
						<polygon style="fill:#263238;" points="170.02,348.302 170.023,319.999 172.064,321.177 172.064,349.483 						"/>
						<polygon style="fill:#E0E0E0;" points="184.325,337.691 184.321,332.974 186.362,334.148 186.369,338.868 						"/>
						<polygon style="fill:#E0E0E0;" points="155.725,321.188 155.722,316.47 157.763,317.644 157.77,322.365 						"/>
					</g>
					<polygon style="opacity:0.2;" points="140.363,302.873 140.363,321.75 138.368,322.939 138.368,325.311 142.454,327.669 
						142.454,304.081 					"/>
				</g>
			</g>
			<g>
				<g>
					<polygon style="fill:#27DEBF;" points="56.656,254.546 203.738,339.464 203.749,330.064 56.661,245.15 					"/>
					<g style="opacity:0.6;">
						<polygon style="fill:#FFFFFF;" points="56.656,254.546 203.738,339.464 203.749,330.064 56.661,245.15 						"/>
					</g>
				</g>
				<g>
					<polygon style="fill:#27DEBF;" points="203.738,339.464 207.82,337.103 207.82,327.668 203.738,330.029 					"/>
					<g style="opacity:0.5;">
						<polygon style="fill:#FFFFFF;" points="203.738,339.464 207.82,337.103 207.82,327.668 203.738,330.029 						"/>
					</g>
					<g style="opacity:0.1;">
						<polygon points="203.738,339.464 207.82,337.103 207.82,327.668 203.738,330.029 						"/>
					</g>
				</g>
				<g>
					<polygon style="fill:#27DEBF;" points="158.796,186.14 56.661,245.15 203.738,330.029 305.878,271.058 					"/>
					<g style="opacity:0.8;">
						<polygon style="fill:#FFFFFF;" points="158.796,186.14 56.661,245.15 203.738,330.029 305.878,271.058 						"/>
					</g>
				</g>
			</g>
		</g>
		<g id="Gift">
			<g id="Box_1_">
				<g id="Box">
					<polygon style="fill:#455A64;" points="68.914,129.529 199.652,205.011 293.621,150.758 162.881,75.276 					"/>
					<polygon style="fill:#37474F;" points="199.652,322.952 199.652,205.011 68.912,129.529 68.914,247.47 					"/>
					<polygon style="fill:#263238;" points="199.652,322.952 293.621,268.699 293.621,150.758 199.652,205.011 					"/>
				</g>
				<g>
					<g id="XMLID_293_">
						<g id="XMLID_378_">
							<path id="XMLID_382_" style="fill:#E0E0E0;" d="M161.912,286.738c-1.359-0.785-2.425-2.799-2.425-4.584v-7.017l4.924,2.892
								l0.321-0.058v0.465c0,0.004,0,0.008,0,0.012v6.279c0,1-0.352,1.777-0.963,2.131c-0.236,0.136-0.495,0.204-0.771,0.204
								C162.653,287.062,162.283,286.953,161.912,286.738z M162.46,279.178l-0.36,2.462h-1.822v0.514c0,1.479,0.93,3.264,2.03,3.901
								c0.29,0.165,0.71,0.323,1.067,0.117c0.36-0.207,0.568-0.736,0.568-1.446v-5.814L162.46,279.178z M161.76,278.499l1.454-0.259
								l-2.937-1.726v4.336h1.14L161.76,278.499z"/>
						</g>
						<g id="XMLID_373_">
							<path id="XMLID_377_" style="fill:#E0E0E0;" d="M162.11,292.068c0.218,0,0.395-0.177,0.395-0.395v-5.275
								c0-0.218-0.177-0.395-0.395-0.395c-0.218,0-0.395,0.177-0.395,0.395v5.275C161.715,291.891,161.892,292.068,162.11,292.068z"
								/>
						</g>
						<g id="XMLID_326_">
							<path id="XMLID_370_" style="fill:#E0E0E0;" d="M164.403,293.39c0.136,0,0.269-0.07,0.341-0.198
								c0.109-0.189,0.045-0.43-0.144-0.539l-4.586-2.647c-0.185-0.113-0.43-0.049-0.539,0.144c-0.109,0.189-0.045,0.43,0.144,0.539
								l4.587,2.647C164.267,293.374,164.335,293.39,164.403,293.39z"/>
						</g>
					</g>
					<g id="XMLID_1386_">
						<g id="XMLID_1402_">
							<path id="XMLID_1403_" style="fill:#E0E0E0;" d="M178.145,301.543c0.154,0,0.3-0.037,0.432-0.111
								c0.3-0.172,0.473-0.518,0.473-0.95V299.4c0-0.218-0.177-0.395-0.395-0.395c-0.218,0-0.395,0.177-0.395,0.395v1.082
								c0,0.162-0.045,0.247-0.076,0.265c-0.031,0.017-0.124,0.01-0.257-0.068c-0.348-0.206-0.734-0.989-0.734-1.785v-7.015
								c0-0.218-0.177-0.395-0.395-0.395c-0.218,0-0.395,0.177-0.395,0.395v7.015c0,1.028,0.482,2.088,1.121,2.464
								C177.734,301.482,177.946,301.543,178.145,301.543z"/>
						</g>
						<g id="XMLID_1387_">
							<path id="XMLID_1389_" style="fill:#E0E0E0;" d="M171.809,289.348v-0.228c0-1.643,0.574-2.88,1.619-3.483
								c1.04-0.603,2.402-0.481,3.827,0.34c2.785,1.607,5.049,5.532,5.049,8.749v0.685L171.809,289.348z M173.822,286.321
								c-0.745,0.43-1.174,1.339-1.22,2.574l8.875,5.125c-0.292-2.814-2.252-5.994-4.617-7.359c-0.703-0.406-1.374-0.612-1.97-0.612
								C174.497,286.049,174.137,286.139,173.822,286.321z"/>
						</g>
					</g>
					<g id="XMLID_1313_">
						<g id="XMLID_1358_">
							<g id="XMLID_1381_">
								<path id="XMLID_1385_" style="fill:#E0E0E0;" d="M194.018,310.399c0.218,0,0.395-0.177,0.395-0.395v-13.436
									c0-0.218-0.177-0.395-0.395-0.395c-0.218,0-0.395,0.177-0.395,0.395v13.436C193.623,310.223,193.8,310.399,194.018,310.399z
									"/>
							</g>
							<g id="XMLID_1372_">
								<path id="XMLID_1374_" style="fill:#E0E0E0;" d="M195.172,299.633c0.054,0,0.105-0.01,0.156-0.033
									c0.202-0.086,0.292-0.319,0.206-0.519l-1.405-3.246l-1.567,1.81c-0.144,0.164-0.126,0.413,0.039,0.556
									c0.169,0.142,0.415,0.124,0.557-0.04l0.745-0.86l0.907,2.094C194.874,299.543,195.02,299.633,195.172,299.633z"/>
							</g>
						</g>
						<g id="XMLID_1314_">
							<g id="XMLID_1354_">
								<path id="XMLID_1356_" style="fill:#E0E0E0;" d="M190.365,308.318c0.218,0,0.395-0.177,0.395-0.395v-13.437
									c0-0.218-0.177-0.395-0.395-0.395c-0.218,0-0.395,0.177-0.395,0.395v13.437
									C189.971,308.141,190.147,308.318,190.365,308.318z"/>
							</g>
							<g id="XMLID_1350_">
								<path id="XMLID_1352_" style="fill:#E0E0E0;" d="M191.521,297.55c0.054,0,0.105-0.01,0.156-0.033
									c0.202-0.086,0.292-0.319,0.206-0.519l-1.405-3.245l-1.567,1.81c-0.144,0.164-0.125,0.413,0.039,0.556
									c0.169,0.141,0.416,0.125,0.557-0.04l0.745-0.86l0.907,2.094C191.223,297.461,191.369,297.55,191.521,297.55z"/>
							</g>
						</g>
					</g>
				</g>
				<g>
					<g id="XMLID_1311_">
						<path id="XMLID_1312_" style="fill:#FAFAFA;" d="M111.074,239.236l0.002,21.632c0,0.833-0.585,1.171-1.307,0.754
							l-33.773-19.498c-0.722-0.417-1.307-1.43-1.307-2.263l0.001-21.645c0-0.833,0.585-1.171,1.306-0.754l33.77,19.51
							C110.489,237.389,111.074,238.403,111.074,239.236z"/>
					</g>
					<g id="XMLID_387_">
						<g id="XMLID_1297_">
							<polygon id="XMLID_1310_" style="fill:#455A64;" points="76.782,220.561 77.872,221.191 77.872,240.855 76.781,240.225 
															"/>
						</g>
						<g id="XMLID_475_">
							<polygon id="XMLID_483_" style="fill:#455A64;" points="81.22,223.122 83.1,224.228 83.1,243.892 81.22,242.787 							"/>
						</g>
						<g id="XMLID_437_">
							<polygon id="XMLID_1141_" style="fill:#455A64;" points="85.659,225.684 86.75,226.314 86.75,245.979 85.659,245.349 							
								"/>
						</g>
						<g id="XMLID_435_">
							<polygon id="XMLID_436_" style="fill:#455A64;" points="89.007,227.581 91.189,228.875 91.188,248.54 89.006,247.246 							
								"/>
						</g>
						<g id="XMLID_433_">
							<polygon id="XMLID_434_" style="fill:#455A64;" points="94.537,230.807 95.628,231.437 95.627,251.102 94.537,250.472 
															"/>
						</g>
						<g id="XMLID_418_">
							<polygon id="XMLID_420_" style="fill:#455A64;" points="97.734,232.611 100.067,233.999 100.066,253.663 97.734,252.276 
															"/>
						</g>
						<g id="XMLID_413_">
							<polygon id="XMLID_416_" style="fill:#455A64;" points="103.415,235.93 104.506,236.56 104.505,256.225 103.415,255.595 
															"/>
						</g>
						<g id="XMLID_411_">
							<polygon id="XMLID_412_" style="fill:#455A64;" points="105.948,237.371 106.493,237.687 106.492,257.351 105.947,257.036 
															"/>
						</g>
						<g id="XMLID_407_">
							<polygon id="XMLID_410_" style="fill:#455A64;" points="101.392,234.859 101.937,235.174 101.936,254.839 101.392,254.524 
															"/>
						</g>
						<g id="XMLID_403_">
							<polygon id="XMLID_405_" style="fill:#455A64;" points="92.45,229.622 92.995,229.937 92.995,249.601 92.45,249.287 							
								"/>
						</g>
						<g id="XMLID_398_">
							<polygon id="XMLID_401_" style="fill:#455A64;" points="87.553,226.812 88.099,227.127 88.098,246.791 87.553,246.477 
															"/>
						</g>
						<g id="XMLID_395_">
							<polygon id="XMLID_396_" style="fill:#455A64;" points="84.036,224.869 84.581,225.185 84.58,244.849 84.035,244.534 							
								"/>
						</g>
						<g id="XMLID_392_">
							<polygon id="XMLID_394_" style="fill:#455A64;" points="79.267,221.974 79.812,222.289 79.811,241.954 79.267,241.639 
															"/>
						</g>
						<g id="XMLID_389_">
							<polygon id="XMLID_391_" style="fill:#455A64;" points="107.855,238.492 108.945,239.122 108.944,258.786 107.854,258.157 
															"/>
						</g>
					</g>
				</g>
			</g>
			<g id="Ribbon_1_">
				<g>
					<polygon style="fill:#27DEBF;" points="142.454,289.928 142.453,171.987 126.111,162.552 126.112,280.493 					"/>
					<g style="opacity:0.3;">
						<polygon points="142.454,289.928 142.453,171.987 126.111,162.552 126.112,280.493 						"/>
					</g>
				</g>
				<g>
					<polygon style="fill:#27DEBF;" points="238.476,300.537 238.476,182.596 254.819,173.16 254.818,291.101 					"/>
					<g style="opacity:0.45;">
						<polygon points="238.476,300.537 238.476,182.596 254.819,173.16 254.818,291.101 						"/>
					</g>
				</g>
				<g>
					<g>
						<polygon style="fill:#27DEBF;" points="126.111,162.552 220.079,108.3 236.423,117.735 142.453,171.987 						"/>
						<g style="opacity:0.15;">
							<polygon points="126.111,162.552 220.079,108.3 236.423,117.735 142.453,171.987 							"/>
						</g>
						<g style="opacity:0.15;">
							<polygon points="161.948,141.861 178.369,151.252 181.268,149.578 164.926,140.142 							"/>
						</g>
					</g>
					<g>
						<polygon style="fill:#27DEBF;" points="254.819,173.16 124.061,97.689 107.716,107.124 238.476,182.596 						"/>
						<g style="opacity:0.15;">
							<polygon points="254.819,173.16 124.061,97.689 107.716,107.124 238.476,182.596 							"/>
						</g>
					</g>
				</g>
				<g id="Ribbon">
					<g id="XMLID_1298_">
						<path id="XMLID_793_" style="opacity:0.2;" d="M188.44,138.964c0,0,23.204,20.257,61.093,15.869
							c0,0-15.465,11.031-35.153,8.652c0,0,2.485,10.9,17.807,16.791c0,0-43.505-0.634-51.13-36.367L188.44,138.964z"/>
						<g id="XMLID_1300_">
							<g id="XMLID_507_">
								<path id="XMLID_510_" style="fill:#27DEBF;" d="M187.467,136.909c0,0,23.204,19.259,61.092,14.871
									c0,0-16.082,10.529-35.77,8.149c0,0,2.825,7.182,19.397,15.925c0,0-41.409,0.379-52.103-34.001L187.467,136.909z"/>
								<path id="XMLID_770_" style="opacity:0.25;fill:#FFFFFF;" d="M187.467,136.909c0,0,23.204,19.259,61.092,14.871
									c0,0-16.082,10.529-35.77,8.149c0,0,2.825,7.182,19.397,15.925c0,0-41.409,0.379-52.103-34.001L187.467,136.909z"/>
								<path id="XMLID_501_" style="opacity:0.1;" d="M185.836,146.622c8.161,2.172,16.256-1.348,16.256-1.348l0-0.002l0,0
									c-0.522-0.225-1.025-0.45-1.521-0.676c-0.077-0.035-0.158-0.07-0.234-0.105c-0.463-0.212-0.907-0.423-1.346-0.634
									c-0.1-0.048-0.203-0.096-0.301-0.144c-0.423-0.206-0.829-0.409-1.23-0.612c-0.101-0.052-0.206-0.103-0.306-0.155
									c-0.389-0.199-0.761-0.396-1.128-0.591c-0.101-0.054-0.204-0.108-0.303-0.161c-0.356-0.192-0.697-0.38-1.031-0.567
									c-0.097-0.054-0.194-0.108-0.288-0.162c-0.327-0.185-0.641-0.366-0.946-0.545c-0.087-0.051-0.174-0.102-0.259-0.152
									c-0.298-0.176-0.584-0.348-0.86-0.517c-0.081-0.05-0.161-0.098-0.24-0.147c-0.266-0.164-0.521-0.324-0.765-0.479
									c-0.076-0.049-0.149-0.095-0.223-0.143c-0.236-0.151-0.461-0.298-0.674-0.439c-0.067-0.044-0.13-0.087-0.195-0.13
									c-0.204-0.137-0.401-0.269-0.583-0.394c-0.063-0.043-0.119-0.082-0.178-0.124c-0.171-0.119-0.336-0.233-0.486-0.34
									c-0.055-0.039-0.102-0.073-0.154-0.11c-0.139-0.1-0.275-0.198-0.393-0.285c-0.049-0.036-0.087-0.064-0.132-0.098
									c-0.104-0.078-0.207-0.154-0.292-0.219c-0.051-0.039-0.087-0.067-0.131-0.101c-0.062-0.048-0.128-0.098-0.176-0.136
									c-0.052-0.041-0.083-0.065-0.119-0.094c-0.022-0.018-0.052-0.041-0.068-0.054c-0.041-0.033-0.063-0.051-0.063-0.051h-0.001
									l-2.417,1.618l-4.966,3.326c10.693,34.379,52.098,34.001,52.103,34.001l0,0C210.881,174.87,188.5,158.702,185.836,146.622z"
									/>
							</g>
							<g id="XMLID_491_">
								<g id="XMLID_765_">
									<path id="XMLID_500_" style="fill:#27DEBF;" d="M238.906,111.712c0,0-4.601-5.386-18.732-2.954
										c-8.531,1.476-23.02,11.411-30.168,27.966c-0.905,2.097-2.936,2.795-4.022,4.206c-0.282,0.347-0.564,0.651-0.825,0.89
										l-4.472,0.043c0-15.462,8.673-31.075,16.878-40.105c8.119-8.922,21.717-13.446,31.355-13.815
										c3.299-0.152,6.642,0.434,9.942,1.91C241.489,97.19,242.574,104.44,238.906,111.712z"/>
									<path id="XMLID_766_" style="opacity:0.5;fill:#FFFFFF;" d="M238.906,111.712c0,0-4.601-5.386-18.732-2.954
										c-8.531,1.476-23.02,11.411-30.168,27.966c-0.905,2.097-2.936,2.795-4.022,4.206c-0.282,0.347-0.564,0.651-0.825,0.89
										l-4.472,0.043c0-15.462,8.673-31.075,16.878-40.105c8.119-8.922,21.717-13.446,31.355-13.815
										c3.299-0.152,6.642,0.434,9.942,1.91C241.489,97.19,242.574,104.44,238.906,111.712z"/>
								</g>
								<g>
									<path id="XMLID_495_" style="opacity:0.3;fill:#27DEBF;" d="M190.984,134.645l-0.022-0.005c0,0-8.05-2.722-4.733-15.611
										c-3.288,7.06-5.541,14.964-5.541,22.834l4.472-0.044c0.26-0.239,0.543-0.543,0.825-0.89
										c1.085-1.411,3.116-2.109,4.022-4.206C190.313,136.013,190.651,135.331,190.984,134.645z"/>
									<path id="XMLID_783_" style="opacity:0.1;" d="M190.984,134.645l-0.022-0.005c0,0-8.05-2.722-4.733-15.611
										c-3.288,7.06-5.541,14.964-5.541,22.834l4.472-0.044c0.26-0.239,0.543-0.543,0.825-0.89
										c1.085-1.411,3.116-2.109,4.022-4.206C190.313,136.013,190.651,135.331,190.984,134.645z"/>
								</g>
								<g>
									<path id="XMLID_493_" style="opacity:0.3;fill:#27DEBF;" d="M238.906,111.712c0,0,0.717-17.04-9.985-23.769
										c3.299-0.152,6.642,0.434,9.942,1.91C241.489,97.19,242.574,104.44,238.906,111.712z"/>
									<path id="XMLID_774_" style="opacity:0.1;" d="M238.906,111.712c0,0,0.717-17.04-9.985-23.769
										c3.299-0.152,6.642,0.434,9.942,1.91C241.489,97.19,242.574,104.44,238.906,111.712z"/>
								</g>
								<g>
									<path id="XMLID_1341_" style="fill:#27DEBF;" d="M230.661,121.623c3.929-3.321,6.577-6.621,8.249-9.92
										c3.669-7.272,2.583-14.522-0.043-21.859c8.292,3.668,13.241,14.435,15.13,23.118c1.042,4.862,1.129,9.095,0.304,11.049
										c-2.323,5.47-15.936,27.58-74.216,17.843l0.062-6.125C194.73,134.854,220.217,130.407,230.661,121.623z"/>
									<path id="XMLID_761_" style="opacity:0.4;fill:#FFFFFF;" d="M230.661,121.623c3.929-3.321,6.577-6.621,8.249-9.92
										c3.669-7.272,2.583-14.522-0.043-21.859c8.292,3.668,13.241,14.435,15.13,23.118c1.042,4.862,1.129,9.095,0.304,11.049
										c-2.323,5.47-15.936,27.58-74.216,17.843l0.062-6.125C194.73,134.854,220.217,130.407,230.661,121.623z"/>
								</g>
							</g>
						</g>
					</g>
					<g id="XMLID_499_">
						<path id="XMLID_883_" style="opacity:0.2;" d="M174.132,138.964c0,0-23.204,20.257-61.092,15.869
							c0,0,15.465,11.031,35.153,8.652c0,0-2.486,10.9-17.807,16.791c0,0,43.505-0.634,51.13-36.367L174.132,138.964z"/>
						<g id="XMLID_511_">
							<g id="XMLID_792_">
								<path id="XMLID_882_" style="fill:#27DEBF;" d="M175.104,136.909c0,0-23.204,19.259-61.093,14.871
									c0,0,16.082,10.529,35.77,8.149c0,0-2.825,7.182-19.397,15.925c0,0,41.409,0.379,52.103-34.001L175.104,136.909z"/>
								<path id="XMLID_881_" style="opacity:0.25;fill:#FFFFFF;" d="M175.104,136.909c0,0-23.204,19.259-61.093,14.871
									c0,0,16.082,10.529,35.77,8.149c0,0-2.825,7.182-19.397,15.925c0,0,41.409,0.379,52.103-34.001L175.104,136.909z"/>
								<path id="XMLID_811_" style="opacity:0.1;" d="M176.735,146.622c-8.162,2.172-16.256-1.348-16.256-1.348l0-0.002l0,0
									c0.522-0.225,1.025-0.45,1.52-0.676c0.077-0.035,0.158-0.07,0.234-0.105c0.463-0.212,0.907-0.423,1.346-0.634
									c0.1-0.048,0.203-0.096,0.301-0.144c0.423-0.206,0.829-0.409,1.23-0.612c0.101-0.052,0.206-0.103,0.306-0.155
									c0.389-0.199,0.761-0.396,1.128-0.591c0.101-0.054,0.204-0.108,0.303-0.161c0.356-0.192,0.697-0.38,1.031-0.567
									c0.097-0.054,0.194-0.108,0.289-0.162c0.327-0.185,0.641-0.366,0.946-0.545c0.087-0.051,0.174-0.102,0.259-0.152
									c0.298-0.176,0.584-0.348,0.86-0.517c0.081-0.05,0.16-0.098,0.24-0.147c0.266-0.164,0.521-0.324,0.765-0.479
									c0.076-0.049,0.149-0.095,0.223-0.143c0.235-0.151,0.461-0.298,0.674-0.439c0.067-0.044,0.13-0.087,0.195-0.13
									c0.204-0.137,0.401-0.269,0.583-0.394c0.063-0.043,0.119-0.082,0.178-0.124c0.171-0.119,0.336-0.233,0.486-0.34
									c0.055-0.039,0.102-0.073,0.154-0.11c0.139-0.1,0.275-0.198,0.393-0.285c0.049-0.036,0.087-0.064,0.132-0.098
									c0.104-0.078,0.207-0.154,0.292-0.219c0.051-0.039,0.087-0.067,0.131-0.101c0.062-0.048,0.128-0.098,0.176-0.136
									c0.052-0.041,0.083-0.065,0.119-0.094c0.022-0.018,0.052-0.041,0.068-0.054c0.041-0.033,0.063-0.051,0.063-0.051h0.001
									l2.417,1.618l4.966,3.326c-10.693,34.379-52.098,34.001-52.103,34.001l0,0C151.69,174.87,174.071,158.702,176.735,146.622z"
									/>
							</g>
							<g id="XMLID_514_">
								<g id="XMLID_764_">
									<path id="XMLID_769_" style="fill:#27DEBF;" d="M123.665,111.712c0,0,4.601-5.386,18.732-2.954
										c8.531,1.476,23.02,11.411,30.168,27.966c0.905,2.097,2.936,2.795,4.022,4.206c0.282,0.347,0.564,0.651,0.825,0.89
										l4.472,0.043c0-15.462-8.673-31.075-16.878-40.105c-8.119-8.922-21.717-13.446-31.355-13.815
										c-3.299-0.152-6.642,0.434-9.942,1.91C121.082,97.19,119.997,104.44,123.665,111.712z"/>
									<path id="XMLID_768_" style="opacity:0.5;fill:#FFFFFF;" d="M123.665,111.712c0,0,4.601-5.386,18.732-2.954
										c8.531,1.476,23.02,11.411,30.168,27.966c0.905,2.097,2.936,2.795,4.022,4.206c0.282,0.347,0.564,0.651,0.825,0.89
										l4.472,0.043c0-15.462-8.673-31.075-16.878-40.105c-8.119-8.922-21.717-13.446-31.355-13.815
										c-3.299-0.152-6.642,0.434-9.942,1.91C121.082,97.19,119.997,104.44,123.665,111.712z"/>
								</g>
								<g>
									<path id="XMLID_739_" style="opacity:0.3;fill:#27DEBF;" d="M171.587,134.645l0.022-0.005c0,0,8.05-2.722,4.733-15.611
										c3.288,7.06,5.541,14.964,5.541,22.834l-4.471-0.044c-0.261-0.239-0.543-0.543-0.825-0.89
										c-1.085-1.411-3.116-2.109-4.022-4.206C172.258,136.013,171.921,135.331,171.587,134.645z"/>
									<path id="XMLID_705_" style="opacity:0.1;" d="M171.587,134.645l0.022-0.005c0,0,8.05-2.722,4.733-15.611
										c3.288,7.06,5.541,14.964,5.541,22.834l-4.471-0.044c-0.261-0.239-0.543-0.543-0.825-0.89
										c-1.085-1.411-3.116-2.109-4.022-4.206C172.258,136.013,171.921,135.331,171.587,134.645z"/>
								</g>
								<g>
									<path id="XMLID_641_" style="opacity:0.3;fill:#27DEBF;" d="M123.665,111.712c0,0-0.716-17.04,9.985-23.769
										c-3.299-0.152-6.642,0.434-9.942,1.91C121.082,97.19,119.997,104.44,123.665,111.712z"/>
									<path id="XMLID_618_" style="opacity:0.1;" d="M123.665,111.712c0,0-0.716-17.04,9.985-23.769
										c-3.299-0.152-6.642,0.434-9.942,1.91C121.082,97.19,119.997,104.44,123.665,111.712z"/>
								</g>
								<g>
									<path id="XMLID_592_" style="fill:#27DEBF;" d="M131.911,121.623c-3.929-3.321-6.577-6.621-8.249-9.92
										c-3.669-7.272-2.583-14.522,0.043-21.859c-8.292,3.668-13.241,14.435-15.13,23.118c-1.042,4.862-1.129,9.095-0.304,11.049
										c2.323,5.47,15.936,27.58,74.216,17.843l-0.062-6.125C167.841,134.854,142.354,130.407,131.911,121.623z"/>
									<path id="XMLID_524_" style="opacity:0.4;fill:#FFFFFF;" d="M131.911,121.623c-3.929-3.321-6.577-6.621-8.249-9.92
										c-3.669-7.272-2.583-14.522,0.043-21.859c-8.292,3.668-13.241,14.435-15.13,23.118c-1.042,4.862-1.129,9.095-0.304,11.049
										c2.323,5.47,15.936,27.58,74.216,17.843l-0.062-6.125C167.841,134.854,142.354,130.407,131.911,121.623z"/>
								</g>
							</g>
						</g>
					</g>
					<g>
						<path id="XMLID_490_" style="fill:#27DEBF;" d="M189.263,137.818c-0.138-1.212-0.917-2.247-2.042-2.718
							c-1.138-0.477-2.94-0.868-5.961-0.868c-3.219,0-5.053,0.445-6.176,0.963c-1.028,0.475-1.698,1.489-1.826,2.614
							c-0.21,1.838-0.334,4.937,0.873,6.69c0,0,2.594,2.572,7.15,2.572c4.556,0,7.108-2.572,7.108-2.572
							C189.594,142.749,189.472,139.658,189.263,137.818z"/>
						<path id="XMLID_773_" style="opacity:0.5;fill:#FFFFFF;" d="M189.263,137.818c-0.138-1.212-0.917-2.247-2.042-2.718
							c-1.138-0.477-2.94-0.868-5.961-0.868c-3.219,0-5.053,0.445-6.176,0.963c-1.028,0.475-1.698,1.489-1.826,2.614
							c-0.21,1.838-0.334,4.937,0.873,6.69c0,0,2.594,2.572,7.15,2.572c4.556,0,7.108-2.572,7.108-2.572
							C189.594,142.749,189.472,139.658,189.263,137.818z"/>
						<path style="opacity:0.3;fill:#27DEBF;" d="M189.377,140.712c-0.048,0.719-0.796,1.869-2.354,2.97
							c-1.658,1.171-5.121,1.951-8.748,0.618c-3.458-1.271-4.684-3.549-5.097-5.642c-0.139,1.84-0.085,4.335,0.952,5.841
							c0,0,2.594,2.572,7.15,2.572s7.108-2.572,7.108-2.572C189.07,143.509,189.32,142.091,189.377,140.712z"/>
						<path style="opacity:0.1;" d="M189.377,140.712c-0.048,0.719-0.796,1.869-2.354,2.97c-1.658,1.171-5.121,1.951-8.748,0.618
							c-3.458-1.271-4.684-3.549-5.097-5.642c-0.139,1.84-0.085,4.335,0.952,5.841c0,0,2.594,2.572,7.15,2.572
							s7.108-2.572,7.108-2.572C189.07,143.509,189.32,142.091,189.377,140.712z"/>
					</g>
				</g>
			</g>
		</g>
		<g id="Cab">
			<g id="XMLID_1293_">
				<g>
					<g id="Percentage_Box_3_">
						<g>
							<path style="fill:#FAFAFA;" d="M396.195,250.369l7.526-4.37c0.688-0.397,1.31-0.432,1.758-0.167
								c0.442,0.26,1.328,0.8,1.775,1.053c0.452,0.256,0.733,0.812,0.733,1.605l-0.001,18.062c0,1.576-1.107,3.494-2.472,4.282
								l-7.526,4.37c-0.683,0.394-1.301,0.432-1.748,0.173c-0.447-0.258-1.34-0.805-1.787-1.06c-0.451-0.257-0.73-0.812-0.73-1.604
								v-18.062C393.723,253.074,394.83,251.157,396.195,250.369z"/>
							<path style="fill:#E0E0E0;" d="M393.722,254.649v18.064c0,0.794,0.28,1.348,0.731,1.604c0.434,0.245,1.111,0.669,1.734,1.029
								c-0.417-0.274-0.668-0.816-0.668-1.57v-18.064c0-0.788,0.274-1.656,0.725-2.432l-1.797-1.063
								C394.002,252.988,393.722,253.861,393.722,254.649z"/>
							<path style="fill:#F0F0F0;" d="M405.514,270.833l-7.526,4.37c-1.365,0.788-2.472,0.149-2.472-1.427v-18.062
								c0-1.577,1.107-3.494,2.472-4.282l7.526-4.37c1.365-0.788,2.472-0.149,2.472,1.427l-0.001,18.062
								C407.986,268.128,406.879,270.045,405.514,270.833z"/>
						</g>
					</g>
					<g>
						<path style="fill:#263238;" d="M395.762,285.836c-0.216,0-0.426-0.112-0.542-0.313c-0.173-0.299-0.07-0.681,0.228-0.853
							l5.239-3.025c0.193-0.111,0.313-0.318,0.313-0.54v-19.787c0-0.345,0.28-0.625,0.625-0.625s0.625,0.28,0.625,0.625v19.787
							c0,0.668-0.359,1.289-0.939,1.622l-5.238,3.025C395.975,285.809,395.867,285.836,395.762,285.836z"/>
					</g>
				</g>
			</g>
			<g id="XMLID_1182_">
				<g id="XMLID_1283_">
					<path id="XMLID_1286_" style="fill:#27DEBF;" d="M239.837,388.243l21.258-9.821c0,0-1.669-19.987-15.693-15.215
						C231.377,367.978,239.837,388.243,239.837,388.243z"/>
					<g id="XMLID_1284_" style="opacity:0.5;">
						<path d="M239.837,388.243l21.258-9.821c0,0-1.669-19.987-15.693-15.215C231.377,367.978,239.837,388.243,239.837,388.243z"/>
					</g>
				</g>
				<g id="XMLID_1266_">
					<path id="XMLID_1274_" style="fill:#263238;" d="M251.526,385.743l-4.573-9.084l10.881-6.297v0.001
						c3.461-1.99,8.069-1.764,13.13,1.158c10.746,6.204,19.457,22.208,19.458,35.745c0.001,7.089-2.39,12.09-6.209,14.36
						l0.003,0.005l-0.154,0.088c-0.007,0.005-0.015,0.01-0.022,0.013l-11.155,6.44l-4.823-9.581
						C258.931,411.6,251.88,397.818,251.526,385.743z"/>
					<path id="XMLID_1273_" style="fill:#37474F;" d="M240.184,391.331c0,11.671,6.48,25.18,15.155,32.653
						c0.018,0.009,0.027,0.025,0.027,0.025c1.385,1.185,2.814,2.221,4.276,3.067c10.748,6.209,19.466,0.261,19.458-13.274
						c0-10.225-4.973-21.87-12.036-29.621c-0.018-0.018-0.043-0.035-0.062-0.062c-2.273-2.482-4.755-4.564-7.36-6.062
						C248.894,371.856,240.184,377.795,240.184,391.331z"/>
					<path id="XMLID_1272_" style="fill:#455A64;" d="M259.642,386.226c-6.838-3.948-12.382,0.167-12.382,9.191
						c0,9.025,5.544,19.542,12.382,23.491c6.84,3.948,12.383-0.167,12.383-9.191S266.481,390.175,259.642,386.226z"/>
					<g id="XMLID_1268_">
						<path id="XMLID_1270_" style="fill:#E0E0E0;" d="M259.642,394.086c-3.549-2.049-6.426,0.087-6.426,4.77
							c0,4.684,2.877,10.143,6.426,12.192c3.55,2.049,6.427-0.087,6.427-4.77C266.069,401.594,263.191,396.135,259.642,394.086z"/>
						<path id="XMLID_1269_" style="fill:#F5F5F5;" d="M257.592,394.004c-0.489-0.282-0.96-0.465-1.413-0.574
							c-1.781,0.48-2.964,2.426-2.964,5.426c0,3.348,1.474,7.085,3.608,9.696c0.252,0.19,0.508,0.369,0.769,0.52
							c3.153,1.82,5.71-0.077,5.71-4.238C263.302,400.674,260.746,395.825,257.592,394.004z"/>
					</g>
					<path id="XMLID_1267_" style="fill:#455A64;" d="M240.184,391.331c0,11.671,6.48,25.18,15.155,32.653
						c-5.139-5.592-10.46-14.955-12.341-23.883c-1.646-7.804-1.028-19.004,5.67-21.835c6.646-2.814,15.538,3.135,18.334,5.853
						c-2.273-2.482-4.755-4.564-7.36-6.062C248.894,371.856,240.184,377.795,240.184,391.331z"/>
				</g>
				<g id="XMLID_1261_">
					<path style="fill:#27DEBF;" d="M315.32,431.79l-19.251-11.124l-2.525-1.458l-4.858-2.816h-0.01l-2.293-1.338
						c0.1-0.201,0.1-0.483,0.1-0.684c0.091-0.292,0.091-0.674,0.091-1.066c0-14.896-10.45-33-23.415-40.443
						c-1.288-0.744-2.555-1.358-3.792-1.841h-0.01c-0.563-0.221-1.106-0.413-1.649-0.573h-0.01
						c-10.239-3.098-17.863,3.128-17.863,15.861v1.931l-32.015-18.487V223.882l0.01-0.01l39.769,22.962l34.72,25.567l15.771,76.551
						l12.211,17.933l0.654,0.956l7.453,10.943v0.01l0.01,0.01l2.424,29.762l0.603,6.518l0.251,2.675v0.01l0.604,6.437l0.282,3.038
						C322.873,431.116,318.709,433.822,315.32,431.79z"/>
					<g style="opacity:0.15;">
						<path d="M315.32,431.79l-19.251-11.124l-2.525-1.458l-4.858-2.816h-0.01l-2.293-1.338c0.1-0.201,0.1-0.483,0.1-0.684
							c0.091-0.292,0.091-0.674,0.091-1.066c0-14.896-10.45-33-23.415-40.443c-1.288-0.744-2.555-1.358-3.792-1.841h-0.01
							c-0.563-0.221-1.106-0.413-1.649-0.573h-0.01c-10.239-3.098-17.863,3.128-17.863,15.861v1.931l-32.015-18.487V223.882
							l0.01-0.01l39.769,22.962l34.72,25.567l15.771,76.551l12.211,17.933l0.654,0.956l7.453,10.943v0.01l0.01,0.01l2.424,29.762
							l0.603,6.518l0.251,2.675v0.01l0.604,6.437l0.282,3.038C322.873,431.116,318.709,433.822,315.32,431.79z"/>
					</g>
				</g>
				<g id="XMLID_1255_">
					<path id="XMLID_1258_" style="fill:#455A64;" d="M263.204,274.814v47.15c0,1.733-1.217,2.436-2.718,1.57l-39.139-22.586
						c-1.501-0.866-2.718-2.974-2.718-4.707v-49.619c0-1.733,1.217-2.436,2.718-1.569l23.532,13.588
						c1.501,0.867,3.85,2.401,5.247,3.427l10.55,7.75C262.072,270.844,263.204,273.081,263.204,274.814z"/>
					<path id="XMLID_1256_" style="fill:#455A64;" d="M275.78,332.362c-2.502-1.444-4.531-4.956-4.531-7.845v-41.731
						c0-2.889,1.07-4.428,2.39-3.437l2.39,1.794c1.611,1.203,3.212,3.777,3.599,5.743l9.645,50.1
						c0.387,1.967-0.711,2.751-2.448,1.747L275.78,332.362z"/>
				</g>
				<g id="XMLID_1250_" style="opacity:0.15;">
					<path id="XMLID_1251_" d="M265.191,267.573l-15.811-11.526c-1.177-0.855-3.168-2.152-4.426-2.876l-28.052-16.193
						c-0.774-0.443-1.529-0.503-2.122-0.161c-0.593,0.352-0.925,1.026-0.925,1.921v127.254c0,1.639,1.106,3.56,2.525,4.375
						l18.406,10.621c0.432,0.261,0.875,0.382,1.288,0.382c0.282,0,0.543-0.05,0.795-0.171c0.332-0.151,0.613-0.392,0.835-0.714
						c0.211-0.312,0.362-0.684,0.443-1.127c0.654-3.359,2.696-9.374,9.002-11.909c3.45-1.388,7.081-1.147,10.279-0.302h0.01
						c1.911,0.493,3.661,1.217,5.14,1.931c0.724,0.352,1.388,0.704,1.961,1.036c0.795,0.453,1.549,0.523,2.122,0.191
						c0.211-0.121,0.382-0.292,0.513-0.503c0.231-0.342,0.352-0.815,0.352-1.358V272.15
						C267.524,270.53,266.498,268.519,265.191,267.573z M265.945,369.451c-0.201,0.04-0.432-0.01-0.714-0.151
						c0-0.01-0.01-0.01-0.01-0.01c-0.06-0.02-0.111-0.05-0.171-0.081c-2.042-1.177-5.109-2.645-8.579-3.359
						c-3.078-0.644-6.457-0.684-9.716,0.624c-6.065,2.434-8.439,7.815-9.354,11.476v0.02c-0.121,0.433-0.211,0.815-0.281,1.187
						c-0.111,0.553-0.352,0.946-0.684,1.096c-0.392,0.181-0.835,0.01-1.126-0.171l-18.406-10.621
						c-1.086-0.624-2.001-2.213-2.001-3.47V238.737c0-0.493,0.151-0.865,0.402-1.016c0.09-0.05,0.201-0.081,0.332-0.081
						c0.211,0,0.473,0.081,0.744,0.241l28.052,16.193c1.237,0.714,3.178,1.981,4.325,2.816l15.821,11.526
						c1.036,0.744,1.901,2.454,1.901,3.732v96.295c0,0.483-0.131,0.825-0.342,0.956c-0.05,0.02-0.111,0.05-0.171,0.05H265.945z"/>
				</g>
			</g>
			<g id="XMLID_1146_">
				<path id="XMLID_1167_" style="fill:#27DEBF;" d="M423.194,365.869c0,0-14.513,20.063-46.164,38.982
					c-26.266,15.698-54.903,19.371-54.903,19.371l-3.74-45.423l101.067-58.354L423.194,365.869z"/>
				<g id="XMLID_1165_" style="opacity:0.3;">
					<path d="M423.194,365.869c0,0-14.513,20.063-46.164,38.982c-26.266,15.698-54.903,19.371-54.903,19.371l-3.74-45.423
						l101.067-58.354L423.194,365.869z"/>
				</g>
				<path id="XMLID_1163_" style="fill:#27DEBF;" d="M419.454,320.445c0,0-14.514,20.064-46.165,38.982
					c-26.265,15.698-54.901,19.372-54.901,19.372l-20.253-29.842l101.073-58.35L419.454,320.445z"/>
				<path id="XMLID_1162_" style="fill:#37474F;" d="M424.991,359.176c-0.178-0.188-0.345-0.157-0.534,0.167
					c0,0-14.51,20.055-46.167,38.979c-26.269,15.703-54.902,19.375-54.902,19.375c-12.282,1.119-27.315-11.842-27.315-11.842
					l2.061-1.517c0,0,14.269,10.807,21.519,10.807c6.245,0,28.581-2.846,58.898-19.961c30.328-17.104,44.011-37.912,44.011-37.912
					S424.123,357.376,424.991,359.176z"/>
				<path id="XMLID_1161_" style="fill:#455A64;" d="M424.456,359.339c0,0-14.514,20.064-46.165,38.982
					c-26.265,15.699-54.901,19.372-54.901,19.372c-12.284,1.121-27.317-11.838-27.317-11.838l0,0v17.324
					c0,0,15.033,12.959,27.317,11.838c0,0,28.637-3.674,54.901-19.372c31.651-18.918,46.165-38.982,46.165-38.982
					C426.956,372.381,425.923,356.765,424.456,359.339z"/>
				<path id="XMLID_1159_" style="fill:#FFFFFF;" d="M331.772,387.886c4.522-1.071,8.607,1.99,9.125,6.837
					c0.517,4.847-2.797,9.638-7.403,10.701c-4.606,1.063-8.691-1.998-9.125-6.837C323.935,393.748,327.25,388.957,331.772,387.886z"
					/>
				<path id="XMLID_1157_" style="fill:#FFFFFF;" d="M412.188,341.862c-2.747,2.737-4.509,8.611-3.934,13.119
					c0.574,4.508,3.148,5.927,5.749,3.169c2.6-2.758,4.362-8.631,3.934-13.119C417.509,340.544,414.935,339.125,412.188,341.862z"/>
				<g id="XMLID_1152_">
					<path id="XMLID_1156_" style="fill:#37474F;" d="M348.627,381.958c8.564-2.575,17.035-6.573,24.987-11.197
						c1.249-0.726,2.25-0.162,2.25,1.283v1.831c0,1.444-1.002,3.222-2.25,3.948c-7.952,4.623-16.423,8.614-24.987,11.195
						c-1.383,0.417-2.516-0.455-2.516-1.899v-1.831C346.111,383.843,347.244,382.374,348.627,381.958z"/>
					<path id="XMLID_1155_" style="fill:#37474F;" d="M403.032,352.261v1.831c0,1.444-0.889,3.377-1.998,4.303
						c-5.448,4.551-11.803,9.433-18.733,14.02c-1.204,0.797-2.191,0.257-2.191-1.188v-1.831c0-1.444,0.986-3.247,2.19-4.045
						c6.929-4.594,13.284-9.475,18.732-14.02C402.142,350.407,403.032,350.816,403.032,352.261z"/>
					<path id="XMLID_1154_" style="fill:#37474F;" d="M348.627,394.784c8.564-2.575,17.035-6.573,24.987-11.197
						c1.249-0.726,2.25-0.162,2.25,1.283v1.831c0,1.444-1.002,3.222-2.25,3.948c-7.952,4.623-16.423,8.614-24.987,11.195
						c-1.383,0.417-2.516-0.455-2.516-1.899v-1.831C346.111,396.669,347.244,395.2,348.627,394.784z"/>
					<path id="XMLID_1153_" style="fill:#37474F;" d="M403.032,365.087v1.831c0,1.444-0.889,3.377-1.998,4.303
						c-5.448,4.551-11.803,9.433-18.733,14.02c-1.204,0.797-2.191,0.257-2.191-1.188v-1.831c0-1.444,0.986-3.247,2.19-4.045
						c6.929-4.594,13.284-9.475,18.732-14.02C402.142,363.233,403.032,363.642,403.032,365.087z"/>
				</g>
				<g id="XMLID_1147_">
					<g id="XMLID_1150_" style="opacity:0.15;">
						<path d="M352.392,330.558c-15.918,8.733-31.837,15.263-41.66,18.978c-1.351,0.511-1.797,1.888-0.993,3.088l0.068,0.102
							c0.804,1.2,2.61,1.972,4.022,1.665c6.145-1.34,22.743-5.662,43.368-16.746c1.272-0.684,1.638-2.222,0.828-3.418l-1.878-2.773
							C355.336,330.257,353.658,329.863,352.392,330.558z"/>
					</g>
					<g id="XMLID_1148_" style="opacity:0.15;">
						<path d="M395.547,300.635c-6.788,5.897-18.647,15.391-34.372,24.866c-1.237,0.745-1.59,2.307-0.779,3.503l1.897,2.796
							c0.811,1.195,2.479,1.574,3.717,0.828c18.705-11.268,28.699-21.193,33.283-26.585c0.936-1.1,0.995-3.003,0.189-4.201
							l-0.514-0.764C398.162,299.879,396.637,299.688,395.547,300.635z"/>
					</g>
				</g>
			</g>
			<g id="XMLID_623_">
				<path id="XMLID_1142_" style="fill:#455A64;" d="M399.215,290.595c0,0-16.702,16.794-44.227,32.811
					c-27.556,16.049-56.852,25.534-56.852,25.534l-15.799-76.57l63.166-36.45l29.048-16.764l8.863-5.132L399.215,290.595z"/>
				<g id="XMLID_777_">
					<path style="fill:#27DEBF;" d="M383.412,214.025l-8.861,5.13l-29.047,16.767l-63.164,36.45l15.801,76.571c0,0,0.01,0,0.03-0.01
						c0.101-0.03,0.473-0.151,1.076-0.362c0.07-0.02,0.141-0.05,0.221-0.07c0.312-0.111,0.684-0.231,1.106-0.382
						c0.151-0.05,0.292-0.1,0.453-0.161c0.03-0.01,0.07-0.02,0.1-0.03c0.03-0.01,0.06-0.02,0.101-0.04
						c0.231-0.081,0.493-0.171,0.754-0.262c0.372-0.131,0.754-0.272,1.167-0.412c0.372-0.141,0.754-0.282,1.157-0.422
						c0.251-0.091,0.503-0.181,0.764-0.282c0.332-0.121,0.664-0.241,1.016-0.372c1.046-0.382,2.173-0.815,3.379-1.277
						c0.251-0.091,0.503-0.191,0.764-0.292c2.706-1.046,5.783-2.263,9.113-3.661c1.066-0.443,2.162-0.905,3.279-1.388
						c0.181-0.07,0.352-0.151,0.533-0.231c0.191-0.081,0.392-0.171,0.593-0.251c0.694-0.312,1.408-0.614,2.132-0.935
						c0.201-0.091,0.412-0.181,0.623-0.272c0.473-0.211,0.956-0.432,1.438-0.644c0.543-0.241,1.096-0.493,1.649-0.744
						c1.197-0.543,2.414-1.106,3.651-1.69c1.227-0.573,2.464-1.167,3.721-1.77c0.935-0.463,1.871-0.925,2.816-1.398
						c0.764-0.382,1.519-0.764,2.283-1.147c0.081-0.04,0.151-0.08,0.232-0.121c0.774-0.392,1.549-0.795,2.333-1.207
						c0.06-0.03,0.131-0.06,0.191-0.101c0.684-0.352,1.368-0.714,2.052-1.076c0.553-0.292,1.096-0.593,1.64-0.885
						c1.297-0.704,2.595-1.428,3.892-2.152c0.865-0.493,1.73-0.986,2.585-1.489c0.785-0.453,1.549-0.905,2.313-1.368
						c0.664-0.392,1.328-0.795,1.992-1.197c0.251-0.151,0.503-0.302,0.744-0.463c0.754-0.453,1.509-0.915,2.243-1.378
						c0.091-0.06,0.181-0.121,0.272-0.171c0.362-0.231,0.714-0.453,1.066-0.684c0.473-0.292,0.925-0.593,1.388-0.885
						c0.453-0.292,0.895-0.583,1.338-0.875c0.442-0.292,0.885-0.573,1.318-0.865c0.553-0.362,1.096-0.724,1.629-1.086
						c1.086-0.744,2.152-1.469,3.188-2.193c0.07-0.05,0.141-0.101,0.211-0.151c0.402-0.281,0.805-0.553,1.197-0.835
						c1.579-1.117,3.098-2.213,4.546-3.279c0.362-0.272,0.714-0.533,1.076-0.805c0.342-0.262,0.694-0.523,1.036-0.784
						c0.342-0.262,0.684-0.513,1.016-0.775c0.674-0.513,1.328-1.016,1.961-1.509c0.03-0.03,0.06-0.05,0.08-0.06
						c0.272-0.211,0.543-0.432,0.805-0.634c0.634-0.503,1.257-0.996,1.851-1.479c0.402-0.322,0.784-0.634,1.167-0.935
						c0.241-0.201,0.473-0.392,0.704-0.573c0.231-0.201,0.463-0.392,0.684-0.563c0.221-0.191,0.443-0.372,0.664-0.553
						c0.02-0.03,0.04-0.04,0.05-0.05c0.513-0.423,0.996-0.835,1.469-1.237c1.871-1.579,3.44-2.967,4.687-4.104
						c0.171-0.161,0.332-0.312,0.493-0.443c0.04-0.04,0.07-0.07,0.101-0.1c0.181-0.171,0.362-0.332,0.523-0.483
						c0.01-0.01,0.01-0.01,0.02-0.02c1.469-1.348,2.273-2.152,2.384-2.263c0.01-0.01,0.01-0.01,0.01-0.01L383.412,214.025z
						 M349.356,321.001c0,0.02,0,0.04-0.01,0.06c-0.02,0.151-0.05,0.312-0.09,0.463c-0.01,0.04-0.02,0.08-0.03,0.121
						c-0.04,0.121-0.081,0.251-0.131,0.372c-0.02,0.05-0.04,0.111-0.07,0.161c-0.05,0.151-0.121,0.292-0.201,0.432
						c-0.272,0.483-0.634,0.915-1.066,1.247c-0.141,0.111-0.292,0.211-0.453,0.292c-3.721,2.032-7.443,3.943-11.074,5.713
						c-0.644,0.312-1.277,0.624-1.911,0.935c-1.529,0.734-3.038,1.438-4.526,2.122c-0.704,0.322-1.398,0.644-2.082,0.956
						c-1.207,0.543-2.394,1.076-3.561,1.589c-0.593,0.261-1.167,0.513-1.74,0.754c-0.573,0.252-1.137,0.493-1.69,0.734
						c-2.243,0.956-4.385,1.841-6.397,2.655h-0.01c-1.076,0.443-2.122,0.855-3.128,1.247c-0.503,0.201-0.986,0.392-1.468,0.573
						c-2.404,0.935-4.526,1.73-6.316,2.384c-1.308,0.473-2.585-0.02-3.219-1.096c-0.151-0.272-0.262-0.563-0.332-0.895
						l-9.716-48.419c-0.342-1.68,0.563-3.732,2.052-4.607l40.986-23.667c1.499-0.835,3.027-0.191,3.43,1.489l9.706,40.544
						l2.937,12.281l0.05,0.201c0.01,0.05,0.02,0.101,0.03,0.151c0.02,0.05,0.03,0.1,0.03,0.161c0.01,0.05,0.02,0.111,0.02,0.171
						c0.02,0.111,0.02,0.241,0.02,0.362C349.396,320.659,349.386,320.83,349.356,321.001z M385.484,298.522
						c-0.01,0.01-0.01,0.01-0.02,0.01c-0.01,0.01-0.01,0.01-0.02,0.02c-0.231,0.201-0.483,0.402-0.724,0.603
						c-2.394,1.931-5.11,4.043-8.097,6.276c-1.016,0.754-2.072,1.519-3.158,2.303c-0.392,0.282-0.785,0.563-1.177,0.845
						c-1.589,1.137-3.239,2.283-4.948,3.45c-0.563,0.372-1.127,0.754-1.7,1.137c-0.573,0.392-1.157,0.774-1.75,1.157
						c-0.593,0.392-1.187,0.784-1.79,1.167c-2.153,1.388-4.375,2.776-6.679,4.154c-1.458,0.865-2.977,0.221-3.389-1.468l-0.07-0.292
						v-0.01l-2.917-12.261l-9.625-40.443c-0.402-1.68,0.493-3.731,1.991-4.607l7.775-4.476l31.622-18.295l1.408-0.805
						c0.04-0.02,0.08-0.05,0.121-0.06c1.448-0.734,2.867-0.07,3.198,1.559l9.666,48.037c0.272,1.307-0.131,3.007-0.925,4.224
						c-0.111,0.171-0.232,0.342-0.352,0.493c-0.01,0.01-0.01,0.01-0.02,0.02c-0.121,0.141-0.251,0.271-0.382,0.392
						c-0.161,0.151-0.332,0.302-0.513,0.463c-0.231,0.211-0.463,0.422-0.704,0.634c-0.654,0.563-1.378,1.197-2.163,1.881
						c-0.775,0.674-1.619,1.388-2.525,2.142c-0.603,0.503-1.237,1.026-1.891,1.559c-0.081,0.06-0.151,0.121-0.221,0.181
						C385.494,298.522,385.484,298.522,385.484,298.522z"/>
				</g>
				<g id="XMLID_759_" style="opacity:0.3;">
					<path d="M383.412,214.025l-8.861,5.13l-29.047,16.767l-63.164,36.45l15.801,76.571c0,0,0.01,0,0.03-0.01
						c0.101-0.03,0.473-0.151,1.076-0.362c0.07-0.02,0.141-0.05,0.221-0.07c0.312-0.111,0.684-0.231,1.106-0.382
						c0.151-0.05,0.292-0.1,0.453-0.161c0.03-0.01,0.07-0.02,0.1-0.03c0.03-0.01,0.06-0.02,0.101-0.04
						c0.231-0.081,0.493-0.171,0.754-0.262c0.372-0.131,0.754-0.272,1.167-0.412c0.372-0.141,0.754-0.282,1.157-0.422
						c0.251-0.091,0.503-0.181,0.764-0.282c0.332-0.121,0.664-0.241,1.016-0.372c1.046-0.382,2.173-0.815,3.379-1.277
						c0.251-0.091,0.503-0.191,0.764-0.292c2.706-1.046,5.783-2.263,9.113-3.661c1.066-0.443,2.162-0.905,3.279-1.388
						c0.181-0.07,0.352-0.151,0.533-0.231c0.191-0.081,0.392-0.171,0.593-0.251c0.694-0.312,1.408-0.614,2.132-0.935
						c0.201-0.091,0.412-0.181,0.623-0.272c0.473-0.211,0.956-0.432,1.438-0.644c0.543-0.241,1.096-0.493,1.649-0.744
						c1.197-0.543,2.414-1.106,3.651-1.69c1.227-0.573,2.464-1.167,3.721-1.77c0.935-0.463,1.871-0.925,2.816-1.398
						c0.764-0.382,1.519-0.764,2.283-1.147c0.081-0.04,0.151-0.08,0.232-0.121c0.774-0.392,1.549-0.795,2.333-1.207
						c0.06-0.03,0.131-0.06,0.191-0.101c0.684-0.352,1.368-0.714,2.052-1.076c0.553-0.292,1.096-0.593,1.64-0.885
						c1.297-0.704,2.595-1.428,3.892-2.152c0.865-0.493,1.73-0.986,2.585-1.489c0.785-0.453,1.549-0.905,2.313-1.368
						c0.664-0.392,1.328-0.795,1.992-1.197c0.251-0.151,0.503-0.302,0.744-0.463c0.754-0.453,1.509-0.915,2.243-1.378
						c0.091-0.06,0.181-0.121,0.272-0.171c0.362-0.231,0.714-0.453,1.066-0.684c0.473-0.292,0.925-0.593,1.388-0.885
						c0.453-0.292,0.895-0.583,1.338-0.875c0.442-0.292,0.885-0.573,1.318-0.865c0.553-0.362,1.096-0.724,1.629-1.086
						c1.086-0.744,2.152-1.469,3.188-2.193c0.07-0.05,0.141-0.101,0.211-0.151c0.402-0.281,0.805-0.553,1.197-0.835
						c1.579-1.117,3.098-2.213,4.546-3.279c0.362-0.272,0.714-0.533,1.076-0.805c0.342-0.262,0.694-0.523,1.036-0.784
						c0.342-0.262,0.684-0.513,1.016-0.775c0.674-0.513,1.328-1.016,1.961-1.509c0.03-0.03,0.06-0.05,0.08-0.06
						c0.272-0.211,0.543-0.432,0.805-0.634c0.634-0.503,1.257-0.996,1.851-1.479c0.402-0.322,0.784-0.634,1.167-0.935
						c0.241-0.201,0.473-0.392,0.704-0.573c0.231-0.201,0.463-0.392,0.684-0.563c0.221-0.191,0.443-0.372,0.664-0.553
						c0.02-0.03,0.04-0.04,0.05-0.05c0.513-0.423,0.996-0.835,1.469-1.237c1.871-1.579,3.44-2.967,4.687-4.104
						c0.171-0.161,0.332-0.312,0.493-0.443c0.04-0.04,0.07-0.07,0.101-0.1c0.181-0.171,0.362-0.332,0.523-0.483
						c0.01-0.01,0.01-0.01,0.02-0.02c1.469-1.348,2.273-2.152,2.384-2.263c0.01-0.01,0.01-0.01,0.01-0.01L383.412,214.025z
						 M349.356,321.001c0,0.02,0,0.04-0.01,0.06c-0.02,0.151-0.05,0.312-0.09,0.463c-0.01,0.04-0.02,0.08-0.03,0.121
						c-0.04,0.121-0.081,0.251-0.131,0.372c-0.02,0.05-0.04,0.111-0.07,0.161c-0.05,0.151-0.121,0.292-0.201,0.432
						c-0.272,0.483-0.634,0.915-1.066,1.247c-0.141,0.111-0.292,0.211-0.453,0.292c-3.721,2.032-7.443,3.943-11.074,5.713
						c-0.644,0.312-1.277,0.624-1.911,0.935c-1.529,0.734-3.038,1.438-4.526,2.122c-0.704,0.322-1.398,0.644-2.082,0.956
						c-1.207,0.543-2.394,1.076-3.561,1.589c-0.593,0.261-1.167,0.513-1.74,0.754c-0.573,0.252-1.137,0.493-1.69,0.734
						c-2.243,0.956-4.385,1.841-6.397,2.655h-0.01c-1.076,0.443-2.122,0.855-3.128,1.247c-0.503,0.201-0.986,0.392-1.468,0.573
						c-2.404,0.935-4.526,1.73-6.316,2.384c-1.308,0.473-2.585-0.02-3.219-1.096c-0.151-0.272-0.262-0.563-0.332-0.895
						l-9.716-48.419c-0.342-1.68,0.563-3.732,2.052-4.607l40.986-23.667c1.499-0.835,3.027-0.191,3.43,1.489l9.706,40.544
						l2.937,12.281l0.05,0.201c0.01,0.05,0.02,0.101,0.03,0.151c0.02,0.05,0.03,0.1,0.03,0.161c0.01,0.05,0.02,0.111,0.02,0.171
						c0.02,0.111,0.02,0.241,0.02,0.362C349.396,320.659,349.386,320.83,349.356,321.001z M385.484,298.522
						c-0.01,0.01-0.01,0.01-0.02,0.01c-0.01,0.01-0.01,0.01-0.02,0.02c-0.231,0.201-0.483,0.402-0.724,0.603
						c-2.394,1.931-5.11,4.043-8.097,6.276c-1.016,0.754-2.072,1.519-3.158,2.303c-0.392,0.282-0.785,0.563-1.177,0.845
						c-1.589,1.137-3.239,2.283-4.948,3.45c-0.563,0.372-1.127,0.754-1.7,1.137c-0.573,0.392-1.157,0.774-1.75,1.157
						c-0.593,0.392-1.187,0.784-1.79,1.167c-2.153,1.388-4.375,2.776-6.679,4.154c-1.458,0.865-2.977,0.221-3.389-1.468l-0.07-0.292
						v-0.01l-2.917-12.261l-9.625-40.443c-0.402-1.68,0.493-3.731,1.991-4.607l7.775-4.476l31.622-18.295l1.408-0.805
						c0.04-0.02,0.08-0.05,0.121-0.06c1.448-0.734,2.867-0.07,3.198,1.559l9.666,48.037c0.272,1.307-0.131,3.007-0.925,4.224
						c-0.111,0.171-0.232,0.342-0.352,0.493c-0.01,0.01-0.01,0.01-0.02,0.02c-0.121,0.141-0.251,0.271-0.382,0.392
						c-0.161,0.151-0.332,0.302-0.513,0.463c-0.231,0.211-0.463,0.422-0.704,0.634c-0.654,0.563-1.378,1.197-2.163,1.881
						c-0.775,0.674-1.619,1.388-2.525,2.142c-0.603,0.503-1.237,1.026-1.891,1.559c-0.081,0.06-0.151,0.121-0.221,0.181
						C385.494,298.522,385.484,298.522,385.484,298.522z"/>
				</g>
				<path id="XMLID_738_" style="fill:#455A64;" d="M290.714,284.759l91.186-52.671c1.156-0.669,1.881-2.273,1.617-3.582
					l-1.654-8.221c-0.264-1.31-1.415-1.83-2.572-1.161l-91.186,52.671c-1.156,0.668-1.881,2.272-1.617,3.582l1.654,8.22
					C288.405,284.906,289.557,285.426,290.714,284.759z"/>
				<g id="XMLID_633_">
					<path id="XMLID_643_" style="fill:#37474F;" d="M349.302,319.642c0.398,1.684-0.502,3.703-1.998,4.509
						c-17.502,9.551-34.952,16.393-43.907,19.657c-1.621,0.596-3.212-0.314-3.546-1.988l-0.638-3.191
						c8.861-6.444,30.38-21.812,46.899-31.353c0.063-0.042,0.136-0.073,0.199-0.115L349.302,319.642z"/>
					<path id="XMLID_639_" style="fill:#37474F;" d="M394.276,290.747c-0.22,0.345-0.471,0.659-0.753,0.91
						c-6.036,5.44-19.689,16.948-38.101,27.985c-1.465,0.868-2.982,0.22-3.39-1.465l-2.992-12.564
						c20.337-11.351,40.068-18.255,40.068-18.255L394.276,290.747z"/>
				</g>
				<g id="XMLID_627_">
					<path id="XMLID_632_" style="opacity:0.1;fill:#FFFFFF;" d="M387.915,280.359l-11.047-6.371c-2.5-1.444-4.53-4.959-4.53-7.846
						v-23.444l8.474-4.896l1.402-0.816c0.042-0.021,0.084-0.052,0.126-0.063l8.024,41.689
						C390.75,280.579,389.652,281.363,387.915,280.359z"/>
					<path id="XMLID_631_" style="opacity:0.1;fill:#FFFFFF;" d="M364.293,247.353v16.236c0,1.737-1.214,2.438-2.72,1.569
						l-14.05-8.108l1.663-0.962L364.293,247.353z"/>
				</g>
			</g>
			<polygon style="fill:#27DEBF;" points="383.412,214.015 282.34,272.361 247.599,246.834 207.83,223.872 308.903,165.525 
				348.672,188.488 			"/>
			<g>
				<g id="Percentage_Box_2_">
					<g>
						<path style="fill:#FAFAFA;" d="M271.969,321.051l7.526-4.37c0.687-0.397,1.309-0.432,1.757-0.168
							c0.442,0.26,1.328,0.8,1.775,1.053c0.453,0.256,0.733,0.812,0.733,1.606l-0.001,18.061c0,1.576-1.107,3.494-2.472,4.282
							l-7.526,4.37c-0.683,0.394-1.301,0.432-1.748,0.173c-0.447-0.258-1.34-0.805-1.786-1.06c-0.451-0.257-0.73-0.812-0.73-1.604
							v-18.062C269.497,323.756,270.604,321.839,271.969,321.051z"/>
						<path style="fill:#E0E0E0;" d="M269.496,325.331v18.064c0,0.793,0.28,1.347,0.731,1.604c0.434,0.246,1.112,0.669,1.734,1.029
							c-0.417-0.274-0.668-0.816-0.668-1.57v-18.064c0-0.788,0.274-1.656,0.725-2.432l-1.797-1.063
							C269.776,323.669,269.496,324.543,269.496,325.331z"/>
						<path style="fill:#F0F0F0;" d="M281.288,341.515l-7.526,4.37c-1.365,0.788-2.472,0.149-2.472-1.427v-18.062
							c0-1.577,1.107-3.494,2.472-4.282l7.526-4.37c1.365-0.788,2.472-0.149,2.472,1.427l-0.001,18.061
							C283.76,338.809,282.653,340.726,281.288,341.515z"/>
					</g>
				</g>
				<path style="fill:#37474F;" d="M288.003,344.513c1.398,0.811,2.532,2.78,2.532,4.398c0,1.618-1.136,2.274-2.537,1.465
					c-1.402-0.809-2.535-2.778-2.532-4.398C285.469,344.358,286.605,343.703,288.003,344.513z"/>
				<g>
					<path style="fill:#263238;" d="M279.1,353.017c-0.321,0-0.643-0.084-0.937-0.254c-0.587-0.338-0.938-0.945-0.938-1.623v-18.344
						c0-0.345,0.28-0.625,0.625-0.625c0.345,0,0.625,0.28,0.625,0.625v18.344c0,0.326,0.218,0.487,0.313,0.542
						c0.094,0.054,0.345,0.162,0.624-0.001l8.275-4.777c0.3-0.173,0.68-0.07,0.853,0.228c0.173,0.299,0.07,0.681-0.228,0.854
						l-8.275,4.777C279.743,352.933,279.422,353.017,279.1,353.017z"/>
				</g>
			</g>
		</g>
	</g>
</g>
<g id="Label_2_">
	<g id="Label_1_">
		<g>
			<path style="fill:#37474F;" d="M181.258,135.238c-0.494,0-0.925-0.364-0.995-0.867c-4.653-33.455,19.767-53.864,44.171-61.809
				c25.452-8.289,43.439,2.748,44.192,3.222c0.471,0.296,0.611,0.916,0.316,1.386c-0.297,0.471-0.918,0.613-1.387,0.317
				c-0.176-0.11-17.98-10.994-42.499-3.013c-23.631,7.693-47.284,27.395-42.802,59.619c0.076,0.55-0.308,1.059-0.857,1.135
				C181.351,135.235,181.304,135.238,181.258,135.238z"/>
		</g>
		<g id="Label">
			<path style="fill:#27DEBF;" d="M336.112,16.195L271.93,53.253l-16.344,33.03l16.344,14.152l1.841,1.066l64.181-37.058V17.261
				L336.112,16.195z M269.688,80.178c0-2.504,1.75-5.542,3.923-6.799c0.607-0.35,1.174-0.504,1.688-0.515
				c0.245,0.449,0.394,1.016,0.394,1.712c0,2.504-1.76,5.552-3.922,6.799c-0.608,0.352-1.194,0.509-1.707,0.522
				C269.818,81.447,269.688,80.877,269.688,80.178z"/>
			<path style="fill:#27DEBF;" d="M273.772,54.319l-16.344,33.03l16.344,14.152l64.181-37.058V17.261L273.772,54.319z
				 M273.611,82.441c-2.172,1.257-3.923,0.241-3.923-2.263c0-2.504,1.75-5.542,3.923-6.799c2.162-1.247,3.923-0.231,3.923,2.263
				C277.533,78.146,275.773,81.194,273.611,82.441z"/>
			<path style="opacity:0.3;" d="M277.533,75.642c0,2.504-1.76,5.552-3.923,6.799c-1.575,0.906-2.922,0.629-3.549-0.544l0,0
				c0.513-0.01,1.094-0.17,1.708-0.522c2.163-1.247,3.923-4.295,3.923-6.799c0-0.694-0.151-1.257-0.392-1.7
				c0.583-0.01,1.096,0.181,1.478,0.553C277.252,73.902,277.533,74.646,277.533,75.642z"/>
			<polygon style="opacity:0.6;fill:#FFFFFF;" points="337.953,17.261 336.112,16.195 271.93,53.253 273.772,54.319 			"/>
			<polygon style="opacity:0.15;" points="273.772,54.319 257.427,87.349 255.586,86.283 271.93,53.253 			"/>
			<polygon style="opacity:0.3;" points="257.427,87.349 273.772,101.501 271.93,100.435 255.586,86.283 			"/>
		</g>
		<g id="Text">
			<g>
				<path style="fill:#FAFAFA;" d="M293.606,50.25c0.132-0.077,0.246-0.067,0.342,0.024c0.095,0.093,0.142,0.241,0.142,0.443v2.929
					c0,0.202-0.047,0.405-0.142,0.607c-0.096,0.203-0.21,0.343-0.342,0.417l-5.366,3.098v3.785l5.007-2.89
					c0.131-0.077,0.245-0.069,0.341,0.024c0.095,0.092,0.143,0.24,0.143,0.442v2.929c0,0.203-0.048,0.406-0.143,0.608
					c-0.096,0.203-0.21,0.343-0.341,0.417l-5.007,2.892v5.968c0,0.202-0.048,0.405-0.143,0.607
					c-0.096,0.202-0.209,0.342-0.341,0.418l-2.352,1.357c-0.132,0.076-0.245,0.067-0.34-0.026c-0.096-0.091-0.144-0.239-0.144-0.441
					V56.011c0-0.202,0.048-0.405,0.144-0.608c0.095-0.202,0.208-0.342,0.34-0.418L293.606,50.25z"/>
				<path style="fill:#FAFAFA;" d="M301.789,45.526c0.789-0.456,1.495-0.735,2.117-0.836c0.622-0.101,1.152-0.02,1.588,0.245
					c0.436,0.263,0.771,0.728,1.006,1.395c0.233,0.666,0.35,1.534,0.35,2.602c0,1.382-0.186,2.635-0.557,3.761
					c-0.37,1.126-0.898,2.125-1.579,2.998l2.225,5.292c0.037,0.088,0.055,0.181,0.055,0.271c0,0.167-0.039,0.332-0.117,0.496
					c-0.078,0.165-0.171,0.278-0.278,0.341l-2.441,1.409c-0.24,0.139-0.41,0.154-0.512,0.047c-0.101-0.108-0.182-0.227-0.243-0.358
					l-1.991-4.763l-1.651,0.954v5.913c0,0.202-0.048,0.405-0.143,0.607c-0.096,0.202-0.209,0.342-0.342,0.418l-2.35,1.357
					c-0.133,0.076-0.246,0.067-0.341-0.026c-0.096-0.091-0.143-0.239-0.143-0.441V49.359c0-0.202,0.047-0.405,0.143-0.608
					c0.095-0.202,0.208-0.342,0.341-0.418L301.789,45.526z M299.761,55.069l2.028-1.171c0.502-0.291,0.917-0.678,1.246-1.163
					c0.329-0.484,0.493-1.114,0.493-1.888c0-0.774-0.164-1.212-0.493-1.316c-0.329-0.105-0.744-0.014-1.246,0.277l-2.028,1.171
					V55.069z"/>
				<path style="fill:#FAFAFA;" d="M318.353,50.883c0.132-0.077,0.245-0.069,0.341,0.024c0.096,0.092,0.143,0.24,0.143,0.442v2.929
					c0,0.202-0.047,0.405-0.143,0.608c-0.096,0.203-0.209,0.342-0.341,0.417l-8.506,4.911c-0.133,0.077-0.246,0.069-0.341-0.024
					c-0.096-0.092-0.143-0.24-0.143-0.442V41.899c0-0.202,0.047-0.405,0.143-0.609c0.095-0.2,0.208-0.341,0.341-0.416l8.363-4.829
					c0.132-0.077,0.246-0.067,0.341,0.024c0.096,0.093,0.143,0.241,0.143,0.443v2.929c0,0.202-0.047,0.405-0.143,0.608
					c-0.095,0.202-0.209,0.342-0.341,0.417l-5.527,3.192v2.984l5.132-2.963c0.132-0.076,0.245-0.068,0.341,0.025
					c0.096,0.091,0.143,0.239,0.143,0.442v2.928c0,0.203-0.047,0.406-0.143,0.608c-0.095,0.202-0.209,0.342-0.341,0.418
					l-5.132,2.962v3.094L318.353,50.883z"/>
				<path style="fill:#FAFAFA;" d="M330.34,43.962c0.132-0.077,0.245-0.069,0.341,0.024c0.096,0.092,0.143,0.24,0.143,0.442v2.929
					c0,0.202-0.047,0.405-0.143,0.608c-0.096,0.203-0.209,0.342-0.341,0.417l-8.506,4.911c-0.133,0.077-0.246,0.069-0.341-0.023
					c-0.096-0.092-0.143-0.24-0.143-0.442V34.979c0-0.202,0.047-0.405,0.143-0.609c0.095-0.2,0.208-0.341,0.341-0.417l8.363-4.829
					c0.132-0.077,0.246-0.067,0.341,0.024c0.096,0.093,0.143,0.241,0.143,0.443v2.929c0,0.202-0.047,0.405-0.143,0.608
					c-0.095,0.202-0.209,0.342-0.341,0.416l-5.527,3.192v2.984l5.132-2.963c0.132-0.076,0.246-0.068,0.341,0.024
					c0.096,0.091,0.143,0.239,0.143,0.442v2.928c0,0.203-0.047,0.406-0.143,0.608c-0.095,0.202-0.209,0.342-0.341,0.418
					l-5.132,2.962v3.094L330.34,43.962z"/>
			</g>
			<g>
				<path style="fill:#FAFAFA;" d="M286.893,76.262c0.404-0.233,0.775-0.358,1.113-0.373c0.339-0.015,0.631,0.048,0.877,0.188
					c0.246,0.14,0.439,0.34,0.578,0.599c0.138,0.261,0.211,0.544,0.217,0.851c0,0.088-0.02,0.175-0.061,0.261
					c-0.04,0.087-0.086,0.145-0.137,0.175l-1.242,0.716c-0.088,0.051-0.159,0.073-0.212,0.065c-0.054-0.008-0.109-0.033-0.166-0.079
					c-0.019-0.018-0.049-0.049-0.09-0.093c-0.04-0.044-0.099-0.081-0.175-0.11c-0.076-0.029-0.171-0.037-0.285-0.027
					c-0.114,0.013-0.252,0.066-0.416,0.161c-0.12,0.07-0.236,0.148-0.346,0.237c-0.111,0.088-0.209,0.183-0.294,0.286
					c-0.085,0.102-0.155,0.218-0.208,0.347c-0.054,0.128-0.082,0.265-0.082,0.41c0,0.146,0.03,0.252,0.09,0.312
					c0.06,0.064,0.161,0.094,0.303,0.095c0.142,0.001,0.331-0.027,0.565-0.086c0.234-0.056,0.523-0.132,0.871-0.226
					c0.348-0.092,0.651-0.132,0.91-0.116c0.259,0.016,0.475,0.097,0.649,0.245c0.174,0.148,0.303,0.364,0.389,0.651
					c0.085,0.287,0.128,0.658,0.128,1.116c0,0.495-0.073,0.98-0.218,1.452c-0.145,0.474-0.349,0.925-0.611,1.354
					c-0.263,0.428-0.573,0.818-0.929,1.171c-0.357,0.352-0.747,0.65-1.17,0.894c-0.43,0.248-0.821,0.386-1.175,0.415
					c-0.355,0.03-0.659-0.025-0.914-0.164c-0.255-0.14-0.456-0.348-0.602-0.624c-0.145-0.276-0.221-0.596-0.227-0.964
					c0-0.086,0.021-0.173,0.062-0.261c0.04-0.087,0.087-0.143,0.138-0.173l1.241-0.717c0.088-0.051,0.158-0.075,0.209-0.069
					c0.05,0.004,0.101,0.026,0.151,0.065c0.025,0.024,0.063,0.065,0.114,0.124c0.05,0.059,0.118,0.109,0.203,0.152
					c0.085,0.044,0.193,0.062,0.322,0.054c0.13-0.006,0.289-0.065,0.478-0.173c0.335-0.194,0.614-0.411,0.839-0.652
					c0.224-0.242,0.337-0.509,0.337-0.799c0-0.145-0.042-0.244-0.124-0.294c-0.082-0.05-0.206-0.069-0.37-0.056
					c-0.164,0.012-0.374,0.053-0.63,0.122c-0.255,0.071-0.558,0.147-0.905,0.232c-0.651,0.161-1.127,0.079-1.426-0.249
					c-0.3-0.327-0.45-0.91-0.45-1.746c0-0.417,0.062-0.852,0.185-1.302c0.124-0.451,0.302-0.888,0.535-1.315
					c0.234-0.427,0.517-0.82,0.848-1.184C286.111,76.798,286.483,76.499,286.893,76.262z"/>
				<path style="fill:#FAFAFA;" d="M296.406,70.916c0.07-0.041,0.129-0.035,0.18,0.012c0.051,0.049,0.077,0.127,0.077,0.234v9.423
					c0,0.107-0.026,0.214-0.077,0.32c-0.051,0.108-0.11,0.181-0.18,0.222l-1.242,0.716c-0.07,0.04-0.13,0.036-0.18-0.013
					c-0.05-0.049-0.076-0.126-0.076-0.234v-3.573l-2.104,1.214v3.574c0,0.107-0.025,0.213-0.076,0.321
					c-0.05,0.107-0.111,0.181-0.18,0.22l-1.242,0.717c-0.069,0.039-0.13,0.038-0.18-0.006c-0.051-0.043-0.076-0.124-0.076-0.241
					V74.4c0-0.107,0.025-0.213,0.076-0.321c0.05-0.106,0.111-0.181,0.18-0.22l1.242-0.717c0.069-0.039,0.13-0.035,0.18,0.014
					c0.051,0.047,0.076,0.126,0.076,0.233v3.515l2.104-1.214v-3.516c0-0.106,0.026-0.214,0.076-0.32
					c0.05-0.106,0.11-0.181,0.18-0.221L296.406,70.916z"/>
				<path style="fill:#FAFAFA;" d="M298.479,79.929c-0.069,0.04-0.129,0.037-0.18-0.013c-0.05-0.048-0.076-0.127-0.076-0.233V70.26
					c0-0.108,0.026-0.214,0.076-0.321c0.051-0.107,0.111-0.181,0.18-0.221l1.242-0.717c0.069-0.039,0.129-0.035,0.179,0.014
					c0.051,0.048,0.076,0.126,0.076,0.234v9.423c0,0.106-0.025,0.213-0.076,0.32c-0.05,0.108-0.11,0.181-0.179,0.22L298.479,79.929z
					"/>
				<path style="fill:#FAFAFA;" d="M304.506,66.239c0.404-0.234,0.767-0.372,1.089-0.418c0.323-0.044,0.597,0.012,0.825,0.167
					c0.227,0.155,0.402,0.413,0.526,0.768c0.123,0.357,0.185,0.817,0.185,1.381c0,0.576-0.062,1.11-0.185,1.61
					c-0.124,0.5-0.299,0.956-0.526,1.368c-0.228,0.412-0.502,0.786-0.825,1.118c-0.322,0.332-0.686,0.615-1.089,0.848l-1.213,0.7
					v2.976c0,0.107-0.025,0.214-0.076,0.32c-0.05,0.108-0.111,0.181-0.18,0.221l-1.242,0.717c-0.069,0.04-0.13,0.036-0.18-0.013
					c-0.051-0.049-0.076-0.127-0.076-0.234v-9.424c0-0.107,0.025-0.214,0.076-0.32c0.05-0.107,0.111-0.181,0.18-0.221
					L304.506,66.239z M303.293,71.506l1.166-0.673c0.265-0.153,0.484-0.37,0.658-0.65c0.174-0.28,0.261-0.626,0.261-1.034
					s-0.087-0.652-0.261-0.731c-0.174-0.079-0.393-0.043-0.658,0.11l-1.166,0.673V71.506z"/>
				<path style="fill:#FAFAFA;" d="M311.242,62.349c0.404-0.233,0.767-0.371,1.089-0.417c0.323-0.044,0.597,0.011,0.825,0.166
					c0.227,0.156,0.402,0.412,0.526,0.768c0.123,0.358,0.185,0.818,0.185,1.382c0,0.575-0.062,1.11-0.185,1.61
					c-0.124,0.499-0.299,0.955-0.526,1.367c-0.228,0.413-0.502,0.786-0.825,1.119c-0.322,0.331-0.686,0.614-1.089,0.848
					l-1.213,0.699v2.976c0,0.108-0.025,0.214-0.076,0.321c-0.05,0.107-0.111,0.181-0.18,0.221l-1.241,0.717
					c-0.069,0.039-0.13,0.035-0.18-0.014c-0.051-0.048-0.076-0.126-0.076-0.234v-9.424c0-0.106,0.025-0.213,0.076-0.32
					c0.05-0.106,0.111-0.181,0.18-0.22L311.242,62.349z M310.029,67.616l1.166-0.672c0.265-0.153,0.484-0.371,0.658-0.65
					c0.174-0.281,0.261-0.626,0.261-1.034s-0.087-0.652-0.261-0.732c-0.174-0.079-0.393-0.043-0.658,0.11l-1.166,0.674V67.616z"/>
				<path style="fill:#FAFAFA;" d="M315.269,70.237c-0.069,0.039-0.13,0.036-0.18-0.014c-0.051-0.047-0.076-0.126-0.076-0.233
					v-9.423c0-0.107,0.024-0.213,0.076-0.321c0.05-0.106,0.111-0.181,0.18-0.22l1.242-0.717c0.069-0.039,0.13-0.035,0.18,0.014
					c0.051,0.047,0.076,0.126,0.076,0.233v9.424c0,0.107-0.025,0.213-0.076,0.321c-0.05,0.107-0.111,0.181-0.18,0.22L315.269,70.237
					z"/>
				<path style="fill:#FAFAFA;" d="M322.641,65.979c-0.108,0.063-0.195,0.069-0.261,0.02c-0.067-0.049-0.109-0.092-0.128-0.131
					l-2.17-3.735v4.931c0,0.106-0.025,0.213-0.076,0.32c-0.05,0.108-0.111,0.181-0.18,0.22l-1.242,0.717
					c-0.07,0.04-0.13,0.037-0.18-0.013c-0.051-0.048-0.076-0.127-0.076-0.233v-9.424c0-0.108,0.025-0.214,0.076-0.321
					c0.05-0.107,0.11-0.181,0.18-0.221l0.985-0.569c0.107-0.062,0.194-0.068,0.26-0.019c0.067,0.049,0.109,0.092,0.129,0.13
					l2.169,3.736v-4.931c0-0.106,0.026-0.214,0.077-0.32c0.05-0.107,0.11-0.181,0.18-0.221l1.242-0.716
					c0.07-0.041,0.129-0.035,0.18,0.012c0.05,0.049,0.076,0.127,0.076,0.234v9.423c0,0.107-0.026,0.214-0.076,0.32
					c-0.051,0.108-0.11,0.181-0.18,0.222L322.641,65.979z"/>
				<path style="fill:#FAFAFA;" d="M328.164,54.768c-0.214,0.124-0.395,0.274-0.539,0.45c-0.145,0.177-0.264,0.369-0.355,0.577
					c-0.092,0.208-0.16,0.427-0.204,0.657c-0.044,0.23-0.076,0.463-0.094,0.696c-0.013,0.134-0.021,0.314-0.024,0.538
					c-0.004,0.226-0.005,0.458-0.005,0.696c0,0.238,0.003,0.471,0.01,0.694c0.006,0.225,0.012,0.399,0.019,0.523
					c0.013,0.215,0.042,0.412,0.09,0.589c0.046,0.177,0.116,0.316,0.208,0.419c0.091,0.103,0.211,0.156,0.359,0.164
					c0.148,0.006,0.327-0.051,0.535-0.171c0.164-0.094,0.319-0.212,0.465-0.355c0.145-0.141,0.271-0.306,0.379-0.496
					c0.107-0.189,0.193-0.403,0.255-0.643c0.064-0.242,0.095-0.507,0.095-0.799l-0.797,0.46c-0.07,0.04-0.129,0.035-0.18-0.013
					c-0.05-0.049-0.076-0.126-0.076-0.234v-1.546c0-0.106,0.025-0.214,0.076-0.322c0.051-0.106,0.11-0.18,0.18-0.22l2.293-1.324
					c0.069-0.039,0.13-0.035,0.18,0.014c0.051,0.049,0.076,0.127,0.076,0.233v1.867c0,0.623-0.076,1.226-0.227,1.809
					c-0.152,0.583-0.361,1.125-0.626,1.623c-0.265,0.498-0.577,0.943-0.933,1.334c-0.358,0.391-0.744,0.707-1.161,0.948
					c-0.455,0.262-0.86,0.392-1.217,0.388c-0.357-0.003-0.662-0.11-0.914-0.325c-0.254-0.213-0.447-0.522-0.583-0.924
					c-0.135-0.403-0.212-0.868-0.232-1.391c-0.013-0.391-0.019-0.816-0.019-1.273s0.006-0.898,0.019-1.324
					c0.013-0.542,0.088-1.094,0.228-1.656c0.138-0.562,0.333-1.094,0.582-1.597c0.25-0.505,0.554-0.965,0.914-1.382
					c0.361-0.417,0.767-0.756,1.222-1.019c0.442-0.255,0.841-0.386,1.194-0.391c0.354-0.005,0.653,0.075,0.9,0.239
					c0.246,0.164,0.439,0.389,0.577,0.673c0.14,0.285,0.215,0.588,0.228,0.911c0.006,0.084-0.013,0.171-0.057,0.259
					c-0.044,0.089-0.094,0.149-0.151,0.183l-1.26,0.728c-0.095,0.054-0.169,0.053-0.222-0.003c-0.055-0.057-0.107-0.114-0.157-0.173
					c-0.088-0.124-0.208-0.215-0.359-0.273C328.704,54.529,328.474,54.59,328.164,54.768z"/>
			</g>
		</g>
		<g>
			<path style="fill:#37474F;" d="M264.861,93.969c-0.898,0-1.846-0.111-2.837-0.354c-0.539-0.132-0.87-0.676-0.737-1.216
				c0.132-0.539,0.677-0.875,1.216-0.737c4.869,1.19,8.424-1.488,9.782-4.672c1.04-2.436,1.09-6.021-2.189-8.107
				c-0.469-0.299-0.606-0.92-0.309-1.389c0.298-0.468,0.922-0.607,1.389-0.309c4.063,2.587,4.415,7.185,2.96,10.594
				C272.721,91.091,269.417,93.969,264.861,93.969z"/>
		</g>
	</g>
</g>
<g id="Character">
	<g id="Character_3_">
		<g id="Bottom_8_">
			<path style="fill:#263238;" d="M97.581,371.205c-0.48,1.059-0.559,2.034-0.48,2.903c0.079,0.869,0.644,1.975,0.48,3.951
				c-0.164,1.976-0.587,2.608-0.744,4.004c-0.157,1.396-0.011,2.74,0.849,4.031c0.86,1.291,2.782,2.315,6.316,2.056
				c2.858-0.209,4.065-1.813,4.065-3.5L97.581,371.205z"/>
			<path id="XMLID_1181_" style="fill:#FFA8A7;" d="M98.977,369.521c1.8,0.966,4.743-0.168,6.932-1.337l2.304-13.608l-9.955-2.208
				L98.977,369.521z"/>
			<path id="XMLID_1180_" style="fill:#37474F;" d="M98.26,367.099c-0.099,0.197-0.056,0.643-0.13,1.118
				c-0.082,0.666-0.256,1.308-0.39,1.964c-0.035,0.173-0.068,0.347-0.098,0.522c-0.227,1.323,0.103,2.672,0.132,4.013
				c0.034,1.588-0.354,3.149-0.653,4.708c-0.538,2.803-0.53,4.554,1.974,6.389c1.321,0.968,2.683,1.066,4.312,1.048
				c1.235-0.014,2.933-0.334,3.55-1c0.794-0.857,0.977-1.451,0.975-1.698c-0.015-2.959-1.207-6.355-1.534-9.296
				c-0.085-0.764-0.192-1.627-0.143-2.39c0.063-0.982,0.368-1.963,0.438-2.956c0.026-0.37,0.034-0.771-0.177-1.077
				c-0.282-0.41-0.84-0.497-1.335-0.544c-1.3-0.121-2.604-0.203-3.909-0.246c-0.31-0.01-0.656-0.005-0.878,0.211
				c-0.244,0.236-0.237,0.62-0.291,0.956s-0.287,0.722-0.623,0.671c-0.222-0.033-0.371-0.256-0.413-0.476
				c-0.042-0.22-0.197-1.925-0.199-2.149C98.866,366.867,98.405,366.81,98.26,367.099z"/>
			<path style="fill:#455A64;" d="M108.216,383.674c0.012-0.67-0.197-1.275-0.474-1.789c-1.453-2.6-8.732-2.417-10.908,0.317
				c0.07,1.646,0.288,2.567,1.832,3.712c1.268,0.94,3.253,1.062,4.882,1.045c1.235-0.013,2.853-0.473,3.564-1.103
				C107.955,385.111,108.197,384.751,108.216,383.674z"/>
			<path id="XMLID_1178_" style="fill:#FFA8A7;" d="M117.72,369.92c1.521,3.288,3.908,1.962,7.002-0.144l1.511-19.683l-9.538,2.572
				L117.72,369.92z"/>
			<g>
				<path id="XMLID_1177_" style="fill:#263238;" d="M137.302,377.425c0.191,0.399,0.136,1.149-0.091,1.624
					c-0.227,0.475-2.708,1.874-6.055,1.648c-3.347-0.226-5.645-1.574-6.922-2.419c-1.276-0.845-2.604-1.003-4.262-1.098
					c-1.658-0.095-3.834-0.921-4.197-1.696c-0.364-0.775,0.055-2.11,0.055-2.11L137.302,377.425z"/>
				<path id="XMLID_1176_" style="fill:#37474F;" d="M125.593,367.041c0.13,0.235,0.217,0.499,0.318,0.749
					c0.37,0.921,0.977,1.745,1.747,2.372c1.078,0.878,2.383,1.533,3.618,2.145c0.807,0.4,1.666,0.539,2.488,0.865
					c0.893,0.354,1.859,0.759,2.662,1.3c1.314,0.885,1.483,3.109-0.013,3.988c-1.291,0.758-4.687,1.579-8.25,0.57
					c-1.941-0.55-4.095-2.623-6.642-2.823c-1.62-0.127-4.683-0.582-5.726-1.812c-0.33-1.788,0.129-2.275,0.552-3.768
					c0.238-0.84,0.356-1.709,0.409-2.579c0.028-0.459-0.231-1.789,0.738-1.909l0.059,0.99c0,0,0.167,0.342,1.161,0.559
					c0.321,0.07,0.56,0.505,0.72,0.902c0.123,0.305,0.25,0.693,0.579,0.7c0.224,0.004,0.415-0.172,0.517-0.372
					c0.102-0.199,0.139-0.425,0.213-0.636c0.244-0.694,0.885-1.191,1.577-1.441c0.587-0.212,1.18-0.23,1.791-0.3
					c0.465-0.053,0.849-0.235,1.242,0.172C125.451,366.81,125.527,366.922,125.593,367.041z"/>
				<path style="fill:#455A64;" d="M116.585,369.539c-0.062,0.367-0.136,0.731-0.237,1.088c-0.423,1.493-0.881,1.979-0.552,3.768
					c0.801,0.945,2.793,1.431,4.409,1.664C120.752,373,118.837,370.712,116.585,369.539z"/>
			</g>
			<path id="XMLID_1175_" style="fill:#455A64;" d="M99.714,291.371c-0.42,12.744-0.245,17.858-0.195,41.307
				c0,0-1.541,4.452-1.722,11.085c-0.16,5.868,0.46,18.009,0.46,18.009s4.857,3.006,8.973,0.614c0,0,3.301-17.848,4.568-26.033
				c1.112-7.191,2.252-17.716,2.252-17.716l1.589,14.951c0,0-0.718,5.023-0.271,11.358c0.271,3.847,1.326,17.385,1.326,17.385
				s4.394,3.073,9.032,0.605c0,0,2.164-26.939,2.23-30.427c0.076-3.976-1.474-44.411-1.474-44.411L99.714,291.371z"/>
			<path style="fill:#263238;" d="M114.051,318.638l2.405-13.918c0,0,5.238-0.458,8.13-3.378c0,0-0.515,2.863-7.1,4.581
				l-2.404,14.042l0.557,13.625L114.051,318.638z"/>
			<path style="fill:#455A64;" d="M136.49,374.354c-0.695-0.469-1.574-0.714-2.36-1.034c-4.127,0.44-5.504,4.118-5.29,5.879
				c3.259,0.894,6.4,0.062,7.609-0.648C137.945,377.673,137.803,375.24,136.49,374.354z"/>
		</g>
		<g id="Top_9_">
			<g id="Arm_2_">
				<path style="fill:#FFA8A7;" d="M118.118,258.704c2.253-0.065,6.449-0.11,9.374,3.67c2.056,2.657,7.683,9.063,10.857,13.28
					c2.246-2.231,7.695-7.638,8.604-9.234c1.131-1.879,1.742-3.742,2.098-4.715c0.455-1.244,0.635-2.216,0.768-2.952
					c0.317-1.756,0.151-3.075,0.151-3.72c-0.001-1.126,1.658-0.509,2.256,1.292c0.437,1.316,0.377,2.267,0.418,3.068
					c0.627-0.283,2.447-1.124,2.731-1.248c0.989-0.431,4.127-1.451,4.383,0.31c0.057,0.394-0.077,0.82,0.086,1.183
					c0.078,0.174,0.216,0.312,0.33,0.464c0.429,0.573,0.508,1.389,0.196,2.034c-0.153,0.316-0.226,0.569-0.192,0.925
					c0.033,0.333,0.121,0.68,0.019,1.01c-0.082,0.264-0.277,0.475-0.41,0.717c-0.173,0.313-0.238,0.673-0.294,1.027
					c-0.056,0.353-0.109,0.714-0.26,1.038c-0.36,0.77-1.304,0.926-2.033,1.168c-0.969,0.323-2.264,0.742-3.274,1.203
					c-1.762,1.103-6.636,9.45-11.498,14.758c-1.665,1.818-3.148,2.946-4.682,2.707l0.014-0.005c-1.244-0.057-2.758-1.224-4.212-2.54
					c-4.624-4.186-12.106-12.007-12.106-12.007C118.339,268.219,117.697,261.269,118.118,258.704z"/>
				<path style="fill:#455A64;" d="M118.118,258.704c1.911-0.318,4.381-0.006,6.344,0.961c1.964,0.967,2.395,1.636,4.285,3.853
					c1.889,2.217,4.525,5.562,4.525,5.562s-1.49,6.316-7.642,7.886l-8.1-9.402L118.118,258.704z"/>
				<path style="fill:#F28F8F;" d="M153.892,259.586c-0.971,0.318-1.234,0.965-1.194,2.366c0.024,0.831-0.21,2.367-1.105,2.99
					c0,0,0.748-0.077,1.171-0.52c0.423-0.442,0.539-0.493,0.778-0.245c0.238,0.248,0.626,0.353,0.626,0.353
					s-0.528,0.571-0.088,1.286c0.44,0.714,2.385,0.714,3.97-0.124c0,0-2.58,0.828-3.186,0.011c-0.606-0.817,0.755-1.86,1.772-2.147
					c0,0-2.492,0.617-2.881-0.199c-0.389-0.816,0.637-1.446,2.105-1.833c0,0-2.062,0.392-2.421-0.305
					C153.001,260.367,153.623,259.868,153.892,259.586z"/>
			</g>
			<path id="XMLID_1170_" style="fill:#27DEBF;" d="M126.033,268.442c-0.564-4.09-1.104-9.589-7.444-9.841l-8.241-0.393
				c-2.014,0.524-10.979,3.13-10.979,3.13v13.007c0,0,0.298,5.433,0.67,12.279c0,0-0.74,7.987-0.67,11.111
				c5.858,3.715,21.406,2.656,27.595-1.072C127.202,291.011,126.592,272.493,126.033,268.442z"/>
			<g id="XMLID_1140_">
				<g>
					<g>
						<path style="fill:#27DEBF;" d="M115.891,245.223l-12.92-0.677c-2.452,1.941-7.006,6.014-6.978,7.115l0,0l0.017,0.764l0,0
							c0.004,0.035,0.012,0.067,0.027,0.094c0.476,0.86,2.131,1.358,4.695,1.347c3.04-0.013,7.75-0.391,8.968-1.482
							c1.834-1.643,6.207-6.436,6.207-6.436l-0.651-0.034C115.648,245.489,115.891,245.223,115.891,245.223z"/>
						<path style="opacity:0.2;" d="M115.891,245.223l-12.92-0.677c-2.452,1.941-7.006,6.014-6.978,7.115l0,0l0.017,0.764l0,0
							c0.004,0.035,0.012,0.067,0.027,0.094c0.476,0.86,2.131,1.358,4.695,1.347c3.04-0.013,7.75-0.391,8.968-1.482
							c1.834-1.643,6.207-6.436,6.207-6.436l-0.651-0.034C115.648,245.489,115.891,245.223,115.891,245.223z"/>
						<path style="fill:#27DEBF;" d="M102.987,245.271c-2.563,2.029-7.425,6.388-6.949,7.248c0.476,0.86,2.131,1.358,4.695,1.347
							c3.04-0.013,7.75-0.391,8.968-1.482c1.834-1.643,6.207-6.436,6.207-6.436L102.987,245.271z"/>
						<path style="opacity:0.4;" d="M102.987,245.271c-2.563,2.029-7.425,6.388-6.949,7.248c0.476,0.86,2.131,1.358,4.695,1.347
							c3.04-0.013,7.75-0.391,8.968-1.482c1.834-1.643,6.207-6.436,6.207-6.436L102.987,245.271z"/>
					</g>
					<g>
						<path style="fill:#27DEBF;" d="M102.987,245.271c-0.033,0.375,1.3,1.126,1.3,1.126l-0.417-2.257L102.987,245.271z"/>
						<path style="opacity:0.3;" d="M102.987,245.271c-0.033,0.375,1.3,1.126,1.3,1.126l-0.417-2.257L102.987,245.271z"/>
					</g>
				</g>
				<g id="XMLID_1168_">
					<g>
						<path style="fill:#263238;" d="M123.352,236.812c-0.634-1.149-1.515-2.158-2.599-2.909c-1.914-1.327-4.381-1.538-6.708-1.446
							c-1.476,0.059-2.959,0.224-4.368,0.668c-2.748,0.866-4.873,2.914-5.791,5.653c-1.104,3.294-0.646,7.076,1.213,10.011
							c0.805,1.271,1.334,2.645,2.014,3.981c0.565,1.109,0.978,2.038,0.978,2.038l-0.188-3.505c1.111-0.1,2.222-0.199,3.333-0.299
							c0.956-0.086,1.971-0.289,2.91-0.155c0.925,0.133,1.789-0.321,2.546-0.804c1.577-1.006,3.084-2.121,4.506-3.335
							c0.903-0.77,1.78-1.591,2.435-2.58c0.151-0.229,0.291-0.465,0.414-0.71c0.241-0.481,0.349-0.806,0.441-1.341
							c0.114-0.662,0.164-1.539,0.093-1.994c0,0-0.135-0.883-0.592-1.994C123.814,237.663,123.576,237.217,123.352,236.812z"/>
						<path style="fill:#FFA8A7;" d="M114.678,239.712c-0.756-0.093-1.497-0.259-2.249-0.451c-0.069-0.018-0.138-0.035-0.207-0.053
							c-0.526,1.67-2.003,3.003-3.717,3.358c0.194,1.41,0.388,2.853,0.1,4.248c-0.062,0.299-0.148,0.599-0.32,0.851
							c-0.172,0.252-0.443,0.451-0.748,0.474c-0.41,0.03-0.579-0.219-0.705-0.54c-0.163-0.415-0.406-0.802-0.623-1.193
							c-0.105-0.189-0.229-0.31-0.364-0.46c-0.624-0.576-2.472-1.279-3.327,0.686c-0.886,2.035,0.747,4.73,2.235,5.144
							c2.564,0.714,3.121-1.03,3.121-1.03l0.491,9.151c1.391,1.455,6.674,3.453,8.19,5.174c0.681-1.172,2.634-4.047,0.062-5.684
							l-0.098-2.787c0,0,2.312,0.274,3.428,0.065c1.858-0.349,2.779-1.928,3.279-3.967c0.804-3.275,0.7-9.519,0.449-11.981
							c-0.14-1.374-0.291-2.34-0.382-2.625c0.079,0.25-1.76,0.981-1.963,1.051c-0.826,0.285-1.692,0.445-2.558,0.539
							c-1.009,0.11-2.026,0.131-3.039,0.109C115.376,239.783,115.026,239.755,114.678,239.712z"/>
					</g>
					<path id="XMLID_1169_" style="fill:#F28F8F;" d="M116.52,256.599c0,0-4.195-0.704-5.677-1.431
						c-0.992-0.487-1.824-1.359-2.079-1.927c0,0,0.313,1.228,1.22,2.313c1.11,1.328,6.566,1.93,6.566,1.93L116.52,256.599z"/>
				</g>
				<g id="XMLID_1143_">
					<path id="XMLID_1166_" style="fill:#263238;" d="M114.733,245.752c0.014,0.446-0.322,0.818-0.752,0.831
						c-0.429,0.013-0.789-0.339-0.804-0.785c-0.015-0.446,0.322-0.818,0.751-0.831C114.358,244.955,114.718,245.306,114.733,245.752
						z"/>
					<path id="XMLID_1164_" style="fill:#263238;" d="M113.68,241.916l-1.953,0.597c-0.152-0.557,0.162-1.142,0.701-1.307
						C112.967,241.042,113.527,241.359,113.68,241.916z"/>
					<g>
						<path id="XMLID_1160_" style="fill:#B16668;" d="M115.032,251.185l2.874,0.973c-0.255,0.823-1.104,1.272-1.898,1.004
							C115.214,252.894,114.777,252.008,115.032,251.185z"/>
						<path style="fill:#F28F8F;" d="M115.336,251.789c-0.127,0-0.247,0.023-0.363,0.057c0.067,0.591,0.454,1.12,1.035,1.316
							c0.216,0.073,0.435,0.089,0.646,0.063c0.003-0.036,0.011-0.07,0.011-0.107C116.665,252.384,116.07,251.789,115.336,251.789z"
							/>
					</g>
					<path id="XMLID_1158_" style="fill:#263238;" d="M123.031,242.351l-1.87-0.709c0.181-0.512,0.747-0.767,1.263-0.571
						C122.941,241.266,123.213,241.839,123.031,242.351z"/>
					<path style="fill:#37474F;" d="M110.858,243.09l-6.552,2.245c0,0,1.027-0.083,1.888,0.958l4.641-1.763L110.858,243.09z"/>
					<path id="XMLID_1151_" style="fill:#263238;" d="M121.881,245.621c0.015,0.449-0.324,0.824-0.757,0.836
						c-0.432,0.013-0.795-0.341-0.809-0.79c-0.015-0.449,0.324-0.824,0.756-0.837C121.504,244.818,121.867,245.172,121.881,245.621z
						"/>
					<g>
						<path style="fill:#263238;" d="M125.403,242.767c-0.137-0.016-0.28-0.031-0.428-0.045c-1.38-0.126-3.187-0.137-4.284,0.219
							c-1.374,0.449-1.864,0.931-2.621,0.949c-0.809,0.011-1.311-0.453-2.762-0.85c-1.156-0.314-3.09-0.234-4.573-0.055
							c-0.159,0.019-0.313,0.04-0.461,0.061c-0.254,0.037-0.535,0.384-0.523,0.783c0.011,0.399,0.302,0.712,0.423,0.892
							c0.054,0.08,0.105,0.194,0.144,0.359c0.145,0.621,0.221,1.815,0.513,2.474c0.117,0.264,0.287,0.588,0.569,0.882
							c0.092,0.095,0.187,0.179,0.294,0.258c0.056,0.04,0.111,0.078,0.171,0.115c0.15,0.092,0.317,0.173,0.509,0.239
							c0.029,0.01,0.057,0.02,0.086,0.027c0.044,0.013,0.09,0.027,0.136,0.039c0.046,0.012,0.093,0.022,0.142,0.033
							c0.14,0.03,0.291,0.053,0.452,0.064c0.062,0.007,0.127,0.01,0.194,0.013c0.078,0.002,0.159,0.003,0.243,0.002
							c1.879-0.026,2.68-0.953,3.164-1.903c0.485-0.949,0.388-2.278,1.255-2.29c0.029,0,0.056,0,0.083,0.003
							c0.026,0.002,0.053,0.006,0.076,0.011c0.637,0.141,0.537,1.361,0.924,2.233c0.149,0.334,0.337,0.666,0.597,0.949
							c0.046,0.051,0.093,0.099,0.143,0.145c0.025,0.025,0.051,0.047,0.077,0.068c0.026,0.023,0.053,0.045,0.081,0.066
							c0.024,0.019,0.048,0.038,0.074,0.055c0.043,0.03,0.061,0.043,0.08,0.055c0.021,0.014,0.042,0.027,0.064,0.04
							c0.014,0.01,0.029,0.019,0.044,0.028c0.213,0.125,0.458,0.226,0.743,0.292c0.022,0.005,0.045,0.01,0.069,0.015
							c0.268,0.057,0.571,0.085,0.914,0.077c1.759-0.04,2.385-1.103,2.685-1.773c0.299-0.671,0.429-1.865,0.582-2.494
							c0.034-0.14,0.097-0.247,0.166-0.329c0.131-0.155,0.384-0.525,0.413-0.923C125.889,243.153,125.639,242.795,125.403,242.767z
							 M116.322,246.446c-0.087,0.363-0.268,0.887-0.676,1.323l-0.001,0.001c-0.412,0.437-1.054,0.784-2.062,0.786
							c-1.019,0.003-1.605-0.419-1.952-0.921c-0.022-0.031-0.043-0.062-0.061-0.093c-0.021-0.031-0.039-0.062-0.056-0.092
							c-0.017-0.029-0.033-0.058-0.047-0.087c-0.013-0.026-0.027-0.052-0.038-0.078c-0.011-0.021-0.021-0.041-0.029-0.062
							c-0.01-0.019-0.018-0.038-0.025-0.056c-0.013-0.031-0.026-0.063-0.038-0.094v-0.001c-0.037-0.094-0.068-0.185-0.093-0.274
							c-0.001-0.002-0.001-0.004-0.003-0.007c-0.016-0.056-0.032-0.111-0.045-0.164c-0.025-0.096-0.044-0.185-0.06-0.265
							c-0.003-0.017-0.007-0.035-0.01-0.051c-0.003-0.016-0.007-0.032-0.01-0.049c-0.133-0.655-0.281-1.945,0.047-2.242
							c0.317-0.286,1.188-0.615,2.585-0.502c0.047,0.001,0.098,0.006,0.149,0.012c0.214,0.022,0.427,0.055,0.637,0.1
							c0.083,0.017,0.166,0.037,0.247,0.057c0.218,0.055,0.429,0.121,0.619,0.195c0.066,0.025,0.129,0.051,0.189,0.077
							c0.072,0.03,0.14,0.063,0.205,0.096c0.014,0.007,0.027,0.014,0.041,0.021c0.026,0.013,0.051,0.026,0.074,0.042
							c0.192,0.108,0.336,0.224,0.413,0.337C116.593,244.857,116.494,245.711,116.322,246.446z M124.487,246.017
							c-0.117,0.515-0.37,1.628-1.36,2.131c-0.282,0.144-0.627,0.237-1.045,0.251c-1.108,0.041-1.727-0.416-2.073-0.947
							c-0.002-0.003-0.005-0.007-0.006-0.01c-0.014-0.021-0.026-0.04-0.037-0.06c-0.015-0.023-0.028-0.047-0.041-0.069
							c-0.007-0.011-0.013-0.024-0.02-0.036c-0.018-0.034-0.036-0.069-0.052-0.103c-0.019-0.04-0.037-0.08-0.054-0.121
							c-0.009-0.019-0.017-0.039-0.024-0.059c-0.005-0.011-0.008-0.022-0.012-0.033c-0.007-0.017-0.012-0.033-0.018-0.049
							c-0.004-0.014-0.01-0.027-0.013-0.038c-0.061-0.177-0.1-0.344-0.126-0.488c-0.13-0.729-0.191-1.579,0.08-1.988
							c0.271-0.409,1.311-0.87,2.307-1.014c0.229-0.033,0.444-0.053,0.644-0.061c0.026-0.001,0.051-0.002,0.076-0.002
							c0.028-0.001,0.055-0.001,0.082-0.001c0.076-0.001,0.151,0,0.223,0.002c0.027,0.001,0.054,0.002,0.081,0.004
							c0.036,0.002,0.071,0.004,0.105,0.007c0.06,0.003,0.118,0.01,0.174,0.017c0.115,0.013,0.222,0.031,0.321,0.053
							c0.026,0.006,0.051,0.011,0.076,0.018c0.006,0.001,0.013,0.002,0.02,0.005c0.016,0.004,0.034,0.008,0.051,0.014
							c0.026,0.006,0.052,0.014,0.077,0.021c0.031,0.009,0.063,0.02,0.092,0.029c0.055,0.019,0.104,0.038,0.151,0.059
							c0.009,0.004,0.017,0.007,0.027,0.012c0.151,0.067,0.264,0.142,0.341,0.216C124.829,244.06,124.635,245.357,124.487,246.017z"
							/>
					</g>
					<path id="XMLID_1149_" style="fill:#F28F8F;" d="M117.807,245.079l0.148,5.446l3.039-0.878l-2.833-4.614
						C118.031,245.021,117.914,245.04,117.807,245.079z"/>
				</g>
				<g>
					<path style="fill:#27DEBF;" d="M102.368,242.145c0.054,1.116,0.266,2.186,0.617,3.192c0.21-0.361,0.479-0.645,0.77-0.914
						c1.56-1.449,3.575-2.553,5.73-3.443l0.009-0.001c4.832-1.985,10.515-2.399,15.088-0.894c-0.118-0.964-0.311-1.869-0.664-2.714
						c-1.75-4.284-5.147-6.476-10.485-5.807C107.172,232.35,102.071,235.944,102.368,242.145z"/>
					<path style="fill:#263238;" d="M113.775,238.081c1.446-0.521,5.156-0.888,6.25-0.57c0,0,0.782-0.649,1.274-1.467
						c0.492-0.818,0.297-1.83-0.185-2.027c-0.481-0.196-0.5,0.43-2.329,1.384c0,0,0.429-1.125,0.112-1.869
						c-0.316-0.744-0.923,0.617-2.279,1.513C115.262,235.942,113.914,236.414,113.775,238.081z"/>
				</g>
			</g>
			<g>
				<path style="fill:#455A64;" d="M116.556,265.07c-1.043-0.631-3.219-1.723-4.352-0.506c-1.132,1.217-1.741,1.553-2.495,1.334
					c-0.755-0.219-3.122-2.658-3.984-4.029c-0.961-1.528-0.76-2.145-0.76-2.145s1.22-1.613,1.866-2.463
					c0.524-0.689,0.691-0.771,1.349-0.821l0.094,1.825c0,0,0.143,1.348,1.408,2.238C111.53,261.801,115.194,262.142,116.556,265.07z
					"/>
				<path style="fill:#455A64;" d="M116.556,265.07c0.614-0.568,1.952-1.978,2.965-1.695c1.01,0.283,1.456,0.896,1.483,0.354
					c0.027-0.542-0.879-2.49-1.651-3.631c-0.772-1.141-2.12-2.278-2.796-2.391l0.062,1.678c0,0,1.2,1.521,1.066,2.437
					C117.551,262.738,116.678,264.181,116.556,265.07z"/>
			</g>
			<g id="Arm_1_">
				<g id="XMLID_6105_">
					<polygon id="XMLID_6113_" style="fill:#263238;" points="142.636,280.668 120.93,284.387 112.348,310.163 133.033,306.082 
											"/>
					<path id="XMLID_6111_" style="opacity:0.15;" d="M124.16,299.789c-0.155,0.693-1.075,2.923-3.585,3.521
						c-2.856,0.68-5.786-0.476-5.786-0.476l0.718-2.155L124.16,299.789z"/>
					<path id="XMLID_6110_" style="opacity:0.15;" d="M136.089,283.934c0,0,0.11-0.355,0.246-0.794
						c0.136-0.439-1.107-0.567-2.777-0.288l-3.197,0.535c-1.67,0.28-3.134,0.862-3.269,1.3l-0.246,0.794L136.089,283.934z"/>
					<g id="XMLID_6106_">
						<path id="XMLID_6109_" style="fill:#27DEBF;" d="M137.829,281.011c0.086-0.274-0.412-0.391-1.112-0.263l-1.268,0.233
							c0,0,0.523-1.717-2.277-1.348c-2.8,0.37-3.576,2.304-3.576,2.304s-0.606,0.116-1.354,0.259
							c-0.748,0.143-1.444,0.478-1.555,0.749l-0.201,0.49l11.181-1.914C137.667,281.52,137.743,281.284,137.829,281.011z"/>
						<path id="XMLID_6091_" style="opacity:0.3;" d="M137.829,281.011c0.086-0.274-0.412-0.391-1.112-0.263l-1.268,0.233
							c0,0,0.523-1.717-2.277-1.348c-2.8,0.37-3.576,2.304-3.576,2.304s-0.606,0.116-1.354,0.259
							c-0.748,0.143-1.444,0.478-1.555,0.749l-0.201,0.49l11.181-1.914C137.667,281.52,137.743,281.284,137.829,281.011z"/>
						<path style="fill:#27DEBF;" d="M127.218,284.775c0.113-0.364,1.148-0.826,2.451-1.132c0.014-0.046,0.028-0.091,0.038-0.128
							c0.109-0.382-0.035-0.63-0.823-0.494l-0.038-0.314l7.749-1.262l-0.348,0.307c-1.023,0.153-1.45,0.25-1.661,0.925
							c-0.017,0.056-0.029,0.101-0.046,0.154c1.213-0.11,2.031,0.037,1.92,0.396c-0.136,0.439-0.246,0.794-0.246,0.794l-9.243,1.547
							L127.218,284.775z"/>
						<path style="opacity:0.4;" d="M127.218,284.775c0.113-0.364,1.148-0.826,2.451-1.132c0.014-0.046,0.028-0.091,0.038-0.128
							c0.109-0.382-0.035-0.63-0.823-0.494l-0.038-0.314l7.749-1.262l-0.348,0.307c-1.023,0.153-1.45,0.25-1.661,0.925
							c-0.017,0.056-0.029,0.101-0.046,0.154c1.213-0.11,2.031,0.037,1.92,0.396c-0.136,0.439-0.246,0.794-0.246,0.794l-9.243,1.547
							L127.218,284.775z"/>
					</g>
				</g>
				<path style="fill:#FFA8A7;" d="M117.087,295.93c2.625,0.949,5.576,0.707,8.321,0.796c0.265,0.009,0.586,0.053,0.689,0.298
					c0.092,0.219-0.058,0.468-0.24,0.621c-0.182,0.153-0.406,0.266-0.539,0.463c-0.209,0.31-0.13,0.723-0.19,1.092
					c-0.089,0.543-0.481,0.98-0.855,1.384c-0.423,0.456-0.854,0.918-1.388,1.236c-1.698,1.014-4.282,1.083-6.182,0.73
					c-1.289-0.24-2.564-0.732-3.777-1.213c-1.154-0.457-8.19-2.712-9.025-3.025c-6.204-2.329-14.744-5.208-15.18-8.184
					c-0.436-2.976,2.131-12.75,3.431-20.256c1.235-7.131,3.888-7.987,7.905-8.728c4.954,6.939,0.983,13.889,0.983,13.889
					l-2.609,11.586c0.66,0.578,10.761,6.563,12.515,7.177c0.636,0.223,1.843-0.002,2.485-0.205c1.724-0.544,2.895-0.468,4.55-0.354"
					/>
				<path style="fill:#455A64;" d="M100.235,261.082c-4.258,0.483-6.207,1.522-7.284,4.917c-1.068,3.365-2.634,11.476-2.634,11.476
					c2.765,2.556,6.51,3.053,9.655,3.062l1.404-5.67C102.471,272.598,104.375,266.051,100.235,261.082z"/>
			</g>
		</g>
	</g>
</g>
</svg>
