<svg width="320" height="152" viewBox="0 0 320 152" fill="none" xmlns="http://www.w3.org/2000/svg">
<path d="M85.125 5.23314C86.862 5.25324 88.5989 5.27148 90.3359 5.28783C94.5579 5.33155 98.7787 5.40038 103 5.48314C100.759 12.8327 97.742 19.726 94.5344 26.6945C92.9553 30.1259 91.3911 33.564 89.8281 37.0027C89.5075 37.7078 89.1868 38.413 88.8564 39.1395C85.8747 45.7182 83.0176 52.3476 80.1763 58.9878C75.8241 69.1466 71.3553 79.2436 66.625 89.2331C66.1614 90.2262 65.6978 91.2193 65.2202 92.2424C59.2328 104.711 52.4565 114.513 39.2483 119.667C32.1234 121.457 24.6705 120.885 17.375 120.733C15.6862 120.713 13.9974 120.695 12.3086 120.678C8.20515 120.635 4.10283 120.566 0 120.483C2.38349 112.854 5.42037 105.613 8.625 98.2956C9.18976 97.0006 9.75446 95.7055 10.3191 94.4104C12.2031 90.0971 14.0998 85.7894 16 81.4831C16.349 80.6922 16.698 79.9012 17.0576 79.0862C19.2684 74.0793 21.4872 69.076 23.7138 64.076C24.4343 62.4577 25.1538 60.8389 25.8721 59.2196C45.8215 14.2929 45.8215 14.2929 60.1016 7.2722C68.0731 4.22609 76.7337 5.06365 85.125 5.23314Z" fill="#1A1B41"/>
<path d="M108.02 78.3854C109.307 78.3876 109.307 78.3876 110.621 78.3897C113.352 78.3953 116.082 78.4079 118.812 78.4206C120.669 78.4256 122.525 78.4302 124.381 78.4343C128.921 78.4453 133.46 78.4625 138 78.4831C133.153 93.511 125.359 110.172 110.875 117.796C104.99 120.689 99.1805 120.62 92.7617 120.581C91.881 120.579 91.0002 120.578 90.0927 120.576C87.291 120.571 84.4893 120.558 81.6875 120.546C79.7832 120.541 77.8789 120.536 75.9746 120.532C71.3164 120.521 66.6582 120.504 62 120.483C64.374 107.085 72.5766 93.3045 83.1094 84.7643C90.9931 79.4217 98.7294 78.3275 108.02 78.3854Z" fill="#0985E3"/>
<path d="M151.75 59.9375V58.5C151.75 53.625 152.458 49.1042 153.875 44.9375C155.292 40.7292 157.333 37.0833 160 34C162.667 30.875 165.896 28.4583 169.688 26.75C173.479 25 177.729 24.125 182.438 24.125C187.188 24.125 191.458 25 195.25 26.75C199.083 28.4583 202.333 30.875 205 34C207.708 37.0833 209.771 40.7292 211.188 44.9375C212.604 49.1042 213.312 53.625 213.312 58.5V59.9375C213.312 64.8125 212.604 69.3333 211.188 73.5C209.771 77.6667 207.708 81.3125 205 84.4375C202.333 87.5208 199.104 89.9375 195.312 91.6875C191.562 93.3958 187.312 94.25 182.562 94.25C177.812 94.25 173.542 93.3958 169.75 91.6875C165.958 89.9375 162.708 87.5208 160 84.4375C157.333 81.3125 155.292 77.6667 153.875 73.5C152.458 69.3333 151.75 64.8125 151.75 59.9375ZM163.312 58.5V59.9375C163.312 63.3125 163.708 66.5 164.5 69.5C165.292 72.4583 166.479 75.0833 168.062 77.375C169.688 79.6667 171.708 81.4792 174.125 82.8125C176.542 84.1042 179.354 84.75 182.562 84.75C185.729 84.75 188.5 84.1042 190.875 82.8125C193.292 81.4792 195.292 79.6667 196.875 77.375C198.458 75.0833 199.646 72.4583 200.438 69.5C201.271 66.5 201.688 63.3125 201.688 59.9375V58.5C201.688 55.1667 201.271 52.0208 200.438 49.0625C199.646 46.0625 198.438 43.4167 196.812 41.125C195.229 38.7917 193.229 36.9583 190.812 35.625C188.438 34.2917 185.646 33.625 182.438 33.625C179.271 33.625 176.479 34.2917 174.062 35.625C171.688 36.9583 169.688 38.7917 168.062 41.125C166.479 43.4167 165.292 46.0625 164.5 49.0625C163.708 52.0208 163.312 55.1667 163.312 58.5ZM228.125 25.375H239.75V101.062C239.75 105.188 239.083 108.688 237.75 111.562C236.458 114.438 234.5 116.604 231.875 118.062C229.292 119.562 226.021 120.312 222.062 120.312C221.021 120.312 219.812 120.208 218.438 120C217.021 119.792 215.833 119.542 214.875 119.25L214.938 109.938C215.729 110.104 216.625 110.229 217.625 110.312C218.625 110.438 219.5 110.5 220.25 110.5C221.958 110.5 223.396 110.188 224.562 109.562C225.729 108.938 226.604 107.938 227.188 106.562C227.812 105.188 228.125 103.354 228.125 101.062V25.375ZM226.938 7.4375C226.938 5.5625 227.521 3.97917 228.688 2.6875C229.854 1.39583 231.542 0.75 233.75 0.75C236 0.75 237.708 1.39583 238.875 2.6875C240.042 3.97917 240.625 5.5625 240.625 7.4375C240.625 9.22917 240.042 10.7708 238.875 12.0625C237.708 13.3125 236 13.9375 233.75 13.9375C231.542 13.9375 229.854 13.3125 228.688 12.0625C227.521 10.7708 226.938 9.22917 226.938 7.4375ZM298.312 81.4375V46.625C298.312 43.9583 297.771 41.6458 296.688 39.6875C295.646 37.6875 294.062 36.1458 291.938 35.0625C289.812 33.9792 287.188 33.4375 284.062 33.4375C281.146 33.4375 278.583 33.9375 276.375 34.9375C274.208 35.9375 272.5 37.25 271.25 38.875C270.042 40.5 269.438 42.25 269.438 44.125H257.875C257.875 41.7083 258.5 39.3125 259.75 36.9375C261 34.5625 262.792 32.4167 265.125 30.5C267.5 28.5417 270.333 27 273.625 25.875C276.958 24.7083 280.667 24.125 284.75 24.125C289.667 24.125 294 24.9583 297.75 26.625C301.542 28.2917 304.5 30.8125 306.625 34.1875C308.792 37.5208 309.875 41.7083 309.875 46.75V78.25C309.875 80.5 310.062 82.8958 310.438 85.4375C310.854 87.9792 311.458 90.1667 312.25 92V93H300.188C299.604 91.6667 299.146 89.8958 298.812 87.6875C298.479 85.4375 298.312 83.3542 298.312 81.4375ZM300.312 52L300.438 60.125H288.75C285.458 60.125 282.521 60.3958 279.938 60.9375C277.354 61.4375 275.188 62.2083 273.438 63.25C271.688 64.2917 270.354 65.6042 269.438 67.1875C268.521 68.7292 268.062 70.5417 268.062 72.625C268.062 74.75 268.542 76.6875 269.5 78.4375C270.458 80.1875 271.896 81.5833 273.812 82.625C275.771 83.625 278.167 84.125 281 84.125C284.542 84.125 287.667 83.375 290.375 81.875C293.083 80.375 295.229 78.5417 296.812 76.375C298.438 74.2083 299.312 72.1042 299.438 70.0625L304.375 75.625C304.083 77.375 303.292 79.3125 302 81.4375C300.708 83.5625 298.979 85.6042 296.812 87.5625C294.688 89.4792 292.146 91.0833 289.188 92.375C286.271 93.625 282.979 94.25 279.312 94.25C274.729 94.25 270.708 93.3542 267.25 91.5625C263.833 89.7708 261.167 87.375 259.25 84.375C257.375 81.3333 256.438 77.9375 256.438 74.1875C256.438 70.5625 257.146 67.375 258.562 64.625C259.979 61.8333 262.021 59.5208 264.688 57.6875C267.354 55.8125 270.562 54.3958 274.312 53.4375C278.062 52.4792 282.25 52 286.875 52H300.312Z" fill="#F2F2F2"/>
<path d="M102.96 149.36C101.32 149.36 99.86 148.94 98.58 148.1C97.32 147.26 96.33 146.07 95.61 144.53C94.91 142.99 94.56 141.17 94.56 139.07C94.56 136.97 94.91 135.17 95.61 133.67C96.33 132.15 97.32 130.99 98.58 130.19C99.86 129.37 101.32 128.96 102.96 128.96C104.62 128.96 106.08 129.37 107.34 130.19C108.6 130.99 109.59 132.15 110.31 133.67C111.03 135.17 111.39 136.97 111.39 139.07C111.39 141.17 111.03 142.99 110.31 144.53C109.59 146.07 108.6 147.26 107.34 148.1C106.08 148.94 104.62 149.36 102.96 149.36ZM102.96 147.17C104.14 147.17 105.16 146.84 106.02 146.18C106.9 145.5 107.58 144.56 108.06 143.36C108.54 142.14 108.78 140.71 108.78 139.07C108.78 136.63 108.25 134.7 107.19 133.28C106.13 131.86 104.72 131.15 102.96 131.15C101.2 131.15 99.79 131.86 98.73 133.28C97.67 134.7 97.14 136.63 97.14 139.07C97.14 140.71 97.38 142.14 97.86 143.36C98.34 144.56 99.02 145.5 99.9 146.18C100.78 146.84 101.8 147.17 102.96 147.17ZM123.422 149V129.32H126.002L133.112 141.68L135.242 145.76H135.362C135.302 144.76 135.232 143.73 135.152 142.67C135.092 141.59 135.062 140.53 135.062 139.49V129.32H137.432V149H134.852L127.712 136.61L125.582 132.56H125.462C125.542 133.54 125.612 134.55 125.672 135.59C125.752 136.63 125.792 137.67 125.792 138.71V149H123.422ZM150.646 149V129.32H153.136V146.87H161.746V149H150.646ZM173.036 149V129.32H175.526V149H173.036ZM188.716 149V129.32H191.296L198.406 141.68L200.536 145.76H200.656C200.596 144.76 200.526 143.73 200.446 142.67C200.386 141.59 200.356 140.53 200.356 139.49V129.32H202.726V149H200.146L193.006 136.61L190.876 132.56H190.756C190.836 133.54 190.906 134.55 190.966 135.59C191.046 136.63 191.086 137.67 191.086 138.71V149H188.716ZM215.94 149V129.32H227.28V131.42H218.43V137.6H225.9V139.73H218.43V146.87H227.58V149H215.94Z" fill="#F2F2F2"/>
</svg>
