<?xml version="1.0" encoding="utf-8"?>
<!-- Generator: Adobe Illustrator 27.5.0, SVG Export Plug-In . SVG Version: 6.00 Build 0)  -->
<svg version="1.1" xmlns="http://www.w3.org/2000/svg" xmlns:xlink="http://www.w3.org/1999/xlink" x="0px" y="0px"
	 viewBox="0 0 750 500" style="enable-background:new 0 0 750 500;" xml:space="preserve">
<g id="Background_Complete">
	<g>
		<g>
			<g>
				<g>
					<rect x="96.501" y="71.59" style="fill:#E0E0E0;" width="91.743" height="132.979"/>
				</g>
			</g>
		</g>
		<g>
			<g>
				<g>
					<rect x="91.905" y="71.59" style="fill:#F5F5F5;" width="91.744" height="132.979"/>
				</g>
			</g>
		</g>
		<g>
			<g>
				<g>
					<g>
						<rect x="103.303" y="85.992" style="fill:#FFFFFF;" width="68.947" height="104.174"/>
					</g>
				</g>
			</g>
			<g>
				<g>
					<g>
						<g>
							<path style="fill:#E0E0E0;" d="M172.25,190.166c0,0-0.009-0.176-0.014-0.509c-0.003-0.344-0.008-0.835-0.014-1.477
								c-0.006-1.309-0.016-3.226-0.028-5.714c-0.014-4.993-0.035-12.268-0.062-21.459c-0.027-18.369-0.067-44.381-0.113-75.014
								l0.229,0.229c-21.064,0.006-44.406,0.013-68.938,0.021h-0.008l0.249-0.249c-0.019,39.298-0.037,75.532-0.051,104.174
								l-0.199-0.199c20.997,0.044,38.208,0.079,50.184,0.104c5.991,0.022,10.669,0.039,13.865,0.051
								c1.588,0.01,2.805,0.017,3.639,0.022C171.816,190.152,172.25,190.166,172.25,190.166s-0.406,0.014-1.217,0.021
								c-0.826,0.005-2.03,0.013-3.602,0.022c-3.185,0.012-7.849,0.029-13.82,0.051c-12.006,0.025-29.259,0.061-50.308,0.104
								l-0.199,0l0-0.199c-0.014-28.641-0.032-64.875-0.051-104.174l0-0.25h0.25h0.008c24.533,0.007,47.874,0.014,68.938,0.021
								h0.229l0,0.229c-0.046,30.694-0.085,56.758-0.113,75.164c-0.026,9.169-0.047,16.427-0.062,21.408
								c-0.012,2.468-0.021,4.369-0.028,5.668c-0.006,0.631-0.01,1.114-0.014,1.451C172.259,190.008,172.25,190.166,172.25,190.166z
								"/>
						</g>
					</g>
				</g>
			</g>
		</g>
		<g>
			<g>
				<g>
					<g>
						<path style="fill:none;stroke:#FBFBFB;stroke-width:0.25;stroke-miterlimit:10;" d="M169.054,86.687"/>
					</g>
				</g>
			</g>
		</g>
		<g>
			<g>
				<g>
					<g>
						<path style="fill:#E0E0E0;" d="M183.906,71.59c0.054,0.042-0.569,0.951-1.635,2.376c-1.066,1.425-2.579,3.364-4.305,5.46
							c-1.727,2.097-3.34,3.953-4.535,5.272s-1.967,2.105-2.019,2.06c-0.053-0.046,0.626-0.913,1.751-2.29
							c1.23-1.492,2.743-3.328,4.417-5.359c1.672-2.031,3.184-3.868,4.413-5.361C183.13,72.379,183.851,71.547,183.906,71.59z"/>
					</g>
				</g>
			</g>
		</g>
		<g>
			<g>
				<g>
					<g>
						<path style="fill:#FFFFFF;" d="M172.602,189.831c3.424,5.445,7.467,10.501,12.025,15.039"/>
					</g>
				</g>
			</g>
			<g>
				<g>
					<g>
						<g>
							<path style="fill:#E0E0E0;" d="M184.627,204.87c-0.045,0.046-0.864-0.664-2.096-1.907c-1.233-1.242-2.867-3.03-4.536-5.116
								c-1.669-2.089-3.053-4.076-3.994-5.551c-0.941-1.476-1.454-2.43-1.399-2.465c0.062-0.039,0.68,0.848,1.691,2.267
								c1.011,1.42,2.433,3.361,4.091,5.438c1.66,2.074,3.241,3.887,4.404,5.186C183.949,204.02,184.679,204.818,184.627,204.87z"/>
						</g>
					</g>
				</g>
			</g>
		</g>
		<g>
			<g>
				<g>
					<g>
						<path style="fill:#FFFFFF;" d="M91.892,204.463c4.006-4.942,8.011-9.884,12.017-14.827"/>
					</g>
				</g>
			</g>
			<g>
				<g>
					<g>
						<g>
							<path style="fill:#E0E0E0;" d="M103.909,189.637c0.107,0.087-2.496,3.476-5.814,7.57c-3.319,4.095-6.095,7.343-6.203,7.256
								c-0.107-0.087,2.496-3.476,5.815-7.571C101.025,192.799,103.802,189.55,103.909,189.637z"/>
						</g>
					</g>
				</g>
			</g>
		</g>
		<g>
			<g>
				<g>
					<g>
						<path style="fill:#E0E0E0;" d="M91.905,71.59c0.108-0.085,2.72,3.037,5.833,6.973c3.114,3.937,5.55,7.197,5.442,7.283
							c-0.108,0.086-2.719-3.036-5.833-6.973C94.233,74.936,91.797,71.675,91.905,71.59z"/>
					</g>
				</g>
			</g>
		</g>
		<g>
			<g>
				<g>
					<rect x="127.683" y="107.144" style="fill:#E0E0E0;" width="23.086" height="65.548"/>
				</g>
			</g>
		</g>
	</g>
	<g>
		<g>
			<g>
				<g>
					<polygon style="fill:#E0E0E0;" points="311.929,52.214 311.929,110.447 228.292,110.447 225.279,52.621 					"/>
				</g>
			</g>
		</g>
		<g>
			<g>
				<g>
					
						<rect x="238.246" y="39.654" transform="matrix(6.123234e-17 -1 1 6.123234e-17 185.6246 348.57)" style="fill:#FFFFFF;" width="57.702" height="83.637"/>
				</g>
			</g>
			<g>
				<g>
					<path style="fill:#E0E0E0;" d="M309.313,110.721h-84.431V52.225h84.431V110.721z M225.675,109.927h82.844V53.018h-82.844
						V109.927z"/>
				</g>
			</g>
		</g>
		<g>
			<g>
				<g>
					<g>
						<rect x="234.337" y="59.791" style="fill:#FFFFFF;" width="65.52" height="43.364"/>
					</g>
				</g>
			</g>
			<g>
				<g>
					<g>
						<g>
							<path style="fill:#E0E0E0;" d="M299.857,59.791c0,0-0.113,0.007-0.323,0.011c-0.222,0.003-0.53,0.006-0.932,0.011
								c-0.83,0.005-2.035,0.013-3.598,0.023c-3.147,0.012-7.723,0.029-13.502,0.051c-11.554,0.023-27.909,0.055-47.165,0.093
								l0.19-0.189c0.005,13.249,0.011,27.929,0.017,43.359v0.005l-0.207-0.207c24.716,0.016,47.504,0.031,65.52,0.042l-0.165,0.165
								c0.036-13.197,0.066-24.017,0.087-31.551c0.018-3.766,0.032-6.708,0.042-8.725c0.008-0.997,0.014-1.762,0.018-2.293
								C299.846,60.067,299.857,59.791,299.857,59.791s0.012,0.252,0.018,0.761c0.004,0.524,0.01,1.279,0.018,2.262
								c0.01,2.008,0.024,4.938,0.042,8.688c0.021,7.559,0.05,18.414,0.086,31.654l0,0.164l-0.165,0
								c-18.017,0.011-40.804,0.026-65.52,0.042l-0.207,0v-0.207v-0.005c0.006-15.43,0.012-30.11,0.017-43.359l0-0.19l0.189,0
								c19.307,0.038,35.705,0.07,47.29,0.093c5.761,0.022,10.322,0.039,13.459,0.051c1.547,0.01,2.739,0.018,3.56,0.023
								c0.392,0.005,0.694,0.008,0.91,0.011C299.76,59.783,299.857,59.791,299.857,59.791z"/>
						</g>
					</g>
				</g>
			</g>
		</g>
		<g>
			<g>
				<g>
					<g>
						<path style="fill:#E0E0E0;" d="M225.279,52.459c0.035-0.045,0.582,0.314,1.438,0.931c0.855,0.618,2.021,1.494,3.279,2.501
							c1.258,1.007,2.365,1.96,3.144,2.673c0.779,0.714,1.235,1.184,1.198,1.226c-0.078,0.088-2.089-1.571-4.6-3.576
							C227.224,54.211,225.205,52.554,225.279,52.459z"/>
					</g>
				</g>
			</g>
		</g>
		<g>
			<g>
				<g>
					<g>
						<path style="fill:#E0E0E0;" d="M308.916,52.621c0.071,0.09-1.9,1.767-4.401,3.746c-2.502,1.98-4.587,3.512-4.658,3.423
							c-0.071-0.089,1.899-1.767,4.401-3.747C306.76,54.064,308.845,52.532,308.916,52.621z"/>
					</g>
				</g>
			</g>
		</g>
		<g>
			<g>
				<g>
					<g>
						<path style="fill:#FFFFFF;" d="M308.85,110.332c-3.108-2.519-6.217-5.039-9.325-7.558"/>
					</g>
				</g>
			</g>
			<g>
				<g>
					<g>
						<g>
							<path style="fill:#E0E0E0;" d="M299.525,102.774c0.072-0.089,2.218,1.532,4.792,3.618c2.576,2.088,4.605,3.851,4.533,3.94
								c-0.072,0.089-2.217-1.531-4.793-3.619C301.482,104.627,299.453,102.863,299.525,102.774z"/>
						</g>
					</g>
				</g>
			</g>
		</g>
		<g>
			<g>
				<g>
					<g>
						<path style="fill:#E0E0E0;" d="M225.279,110.324c-0.071-0.09,1.879-1.75,4.355-3.707c2.476-1.959,4.54-3.473,4.611-3.384
							s-1.879,1.749-4.355,3.708C227.414,108.898,225.349,110.413,225.279,110.324z"/>
					</g>
				</g>
			</g>
		</g>
		<g>
			<g>
				<g>
					
						<rect x="260.994" y="59.948" transform="matrix(6.123234e-17 -1 1 6.123234e-17 187.6926 348.8148)" style="fill:#E0E0E0;" width="14.52" height="41.227"/>
				</g>
			</g>
		</g>
	</g>
	<g>
		<g>
			<g>
				<path style="fill:#EBEBEB;" d="M652.693,313.167c0,0-7.514-3.499-13.404,14.105c-5.889,17.603-7.636,27.508-7.636,27.508
					s-1.691,3.757-4.38,1.869c-2.689-1.888-6.864-7.76-10.694-6.017c-3.972,1.807-4.646,6.643-2.837,13.33
					c1.809,6.687,5.236,21.483,5.54,22.822c0.299,1.315-0.169,3.387-2.207,2.395c-2.038-0.992-14.441-11.242-18.952-5.066
					c-4.511,6.177,3.59,23.977,4.438,25.94c0.848,1.963,0.579,2.896-0.316,3.547c-0.895,0.651-4.74-3.187-8.387-5.958
					c-3.647-2.771-8.362-5.344-10.666-1.563c-2.304,3.782-1.115,17.869,15.555,38.547l8.351,9.076l12.131-2.509
					c25.635-6.951,34.869-17.656,35.224-22.07c0.355-4.414-4.972-5.099-9.551-4.998c-4.579,0.101-9.945,0.951-10.287-0.102
					c-0.343-1.053-0.013-1.966,1.826-3.057c1.839-1.091,18.849-10.744,18.823-18.392c-0.025-7.649-16.084-6.634-18.316-7.027
					c-2.233-0.393-1.395-2.346-0.38-3.234c1.033-0.905,12.494-10.87,17.885-15.221c5.391-4.351,7.685-8.661,5.53-12.456
					c-2.077-3.66-8.904-1.357-12.189-1.408c-3.285-0.051-2.448-4.084-2.448-4.084s4.401-9.044,9.97-26.751
					c5.569-17.707-2.781-19.286-2.781-19.286"/>
			</g>
		</g>
		<g>
			<g>
				<g>
					<path style="fill:#E0E0E0;" d="M605.476,456.189c4.141-12.988,11.888-35.949,18.437-55.697
						c6.547-19.741,12.457-37.62,16.664-50.586c2.093-6.474,3.788-11.718,4.965-15.36c0.584-1.801,1.039-3.206,1.353-4.176
						c0.155-0.465,0.275-0.825,0.361-1.083c0.083-0.243,0.136-0.365,0.136-0.365s-0.027,0.13-0.098,0.377
						c-0.078,0.261-0.186,0.625-0.325,1.094c-0.299,0.975-0.731,2.387-1.285,4.198c-1.12,3.644-2.777,8.906-4.85,15.399
						c-4.141,12.988-10.011,30.882-16.558,50.623c-6.549,19.748-14.336,42.694-18.542,55.66"/>
				</g>
			</g>
		</g>
		<g>
			<g>
				<g>
					<path style="fill:#E0E0E0;" d="M622.088,359.081c0.024-0.011,0.176,0.268,0.431,0.781c0.258,0.513,0.607,1.264,1.031,2.197
						c0.844,1.868,1.944,4.477,3.107,7.377c1.135,2.865,2.162,5.456,2.948,7.437c0.359,0.891,0.663,1.642,0.907,2.247
						c0.217,0.53,0.325,0.828,0.301,0.84c-0.024,0.011-0.178-0.266-0.437-0.778c-0.256-0.514-0.606-1.266-1.021-2.203
						c-0.826-1.876-1.892-4.499-3.053-7.399c-1.156-2.855-2.2-5.437-3-7.413c-0.364-0.89-0.672-1.64-0.919-2.244
						C622.171,359.391,622.064,359.092,622.088,359.081z"/>
				</g>
			</g>
		</g>
		<g>
			<g>
				<g>
					<path style="fill:#E0E0E0;" d="M631.966,380.01c-0.044-0.096,5.235-2.602,11.79-5.595c6.557-2.994,11.906-5.343,11.95-5.247
						c0.044,0.096-5.234,2.601-11.791,5.595C637.36,377.757,632.01,380.106,631.966,380.01z"/>
				</g>
			</g>
		</g>
		<g>
			<g>
				<g>
					<path style="fill:#E0E0E0;" d="M620.543,409.877c-0.003-0.026,0.316-0.088,0.894-0.176c0.656-0.096,1.476-0.216,2.449-0.358
						c2.067-0.305,4.92-0.738,8.049-1.331c3.133-0.586,5.949-1.216,7.984-1.688c0.958-0.221,1.765-0.408,2.412-0.557
						c0.571-0.129,0.889-0.188,0.896-0.162c0.007,0.026-0.299,0.133-0.858,0.306c-0.559,0.173-1.373,0.408-2.385,0.676
						c-2.022,0.54-4.837,1.213-7.978,1.801c-3.139,0.595-6.006,0.987-8.086,1.223c-1.04,0.114-1.883,0.197-2.467,0.237
						C620.87,409.892,620.546,409.903,620.543,409.877z"/>
				</g>
			</g>
		</g>
		<g>
			<g>
				<g>
					<path style="fill:#E0E0E0;" d="M607.442,392.913c0.021-0.016,0.226,0.202,0.58,0.611c0.399,0.477,0.89,1.064,1.469,1.755
						c1.227,1.492,2.902,3.57,4.733,5.879c1.832,2.31,3.473,4.415,4.647,5.95c0.541,0.721,1,1.333,1.374,1.83
						c0.318,0.438,0.483,0.687,0.463,0.704c-0.021,0.016-0.226-0.202-0.58-0.611c-0.399-0.477-0.89-1.063-1.469-1.755
						c-1.228-1.492-2.903-3.57-4.734-5.88c-1.831-2.31-3.473-4.414-4.646-5.949c-0.541-0.721-1-1.333-1.374-1.831
						C607.587,393.179,607.422,392.929,607.442,392.913z"/>
				</g>
			</g>
		</g>
		<g>
			<g>
				<g>
					<path style="fill:#E0E0E0;" d="M594.009,417.999c0.021-0.017,0.281,0.265,0.734,0.789c0.493,0.584,1.128,1.337,1.891,2.242
						c1.584,1.904,3.751,4.55,6.126,7.487c2.376,2.938,4.51,5.612,6.04,7.559c0.725,0.935,1.328,1.714,1.796,2.318
						c0.417,0.553,0.638,0.866,0.618,0.883c-0.021,0.017-0.281-0.265-0.734-0.789c-0.493-0.584-1.128-1.337-1.891-2.242
						c-1.584-1.903-3.751-4.55-6.127-7.488c-2.375-2.938-4.509-5.611-6.039-7.558c-0.725-0.935-1.328-1.714-1.796-2.318
						C594.209,418.329,593.988,418.016,594.009,417.999z"/>
				</g>
			</g>
		</g>
		<g>
			<g>
				<g>
					<path style="fill:#E0E0E0;" d="M610.946,438.653c-0.004-0.026,0.398-0.115,1.127-0.252c0.797-0.146,1.836-0.336,3.089-0.566
						c2.607-0.48,6.206-1.157,10.157-2.017c3.954-0.854,7.511-1.721,10.083-2.367c1.235-0.309,2.261-0.566,3.046-0.763
						c0.72-0.177,1.122-0.263,1.129-0.238c0.007,0.025-0.381,0.16-1.089,0.382c-0.708,0.221-1.738,0.526-3.017,0.881
						c-2.556,0.713-6.11,1.624-10.071,2.479c-3.958,0.861-7.571,1.497-10.192,1.91c-1.311,0.203-2.374,0.356-3.111,0.446
						C611.359,438.64,610.95,438.679,610.946,438.653z"/>
				</g>
			</g>
		</g>
	</g>
</g>
<g id="Background_Simple" style="display:none;">
	<path style="display:inline;fill:#F5F5F5;" d="M651.719,163.5c-12.396-46.276-49.239-84.791-94.095-97.116
		s-96.055,2.477-127.763,37.822c-15.487,17.264-26.653,38.991-45.154,52.709c-22.52,16.697-52.089,18.688-79.658,16.93
		c-27.568-1.757-55.426-6.625-82.613-1.364c-43.553,8.428-81.014,44.763-91.967,89.204c-10.953,44.441,5.183,94.627,39.615,123.208
		l38.067,31.496c34.905,25.353,167.163,35.926,249.508,29.66c58.293-4.436,98.113-26.809,133.209-61.729
		c27.161-27.025,43.256-63.872,54.021-101.185C656.096,244.295,662.151,202.445,651.719,163.5z"/>
</g>
<g id="Floor">
	<g>
		<g>
			<path style="fill:#263238;" d="M675.042,455.829c0,0.144-137.388,0.26-306.826,0.26c-169.496,0-306.855-0.117-306.855-0.26
				c0-0.144,137.359-0.26,306.855-0.26C537.654,455.569,675.042,455.685,675.042,455.829z"/>
		</g>
	</g>
</g>
<g id="Stopwatch">
	<g>
		<g>
			<g>
				<g>
					
						<rect x="482.04" y="108.337" transform="matrix(0.7582 -0.652 0.652 0.7582 41.0684 346.9512)" style="fill:#263238;" width="12.521" height="19.54"/>
				</g>
				<g>
					<path style="fill:#455A64;" d="M495.577,106.67l-19.553,16.816l-13.733-15.968c5.395-7.573,11.844-13.299,19.553-16.815
						L495.577,106.67z"/>
				</g>
			</g>
			<g>
				<g>
					<path style="fill:#263238;" d="M479.297,120.671c-0.109,0.094-3.421-3.536-7.398-8.108c-3.978-4.573-7.115-8.356-7.006-8.451
						c0.108-0.094,3.421,3.535,7.399,8.109C476.269,116.793,479.405,120.576,479.297,120.671z"/>
				</g>
			</g>
			<g>
				<g>
					<path style="fill:#263238;" d="M483.024,117.465c-0.056,0.045-0.899-0.89-2.219-2.436c-1.321-1.546-3.119-3.703-5.088-6.098
						c-1.909-2.345-3.635-4.465-5.014-6.159c-0.574-0.715-1.074-1.337-1.506-1.875c-0.358-0.452-0.541-0.672-0.543-0.695
						c0.193-0.186,3.528,3.606,7.465,8.398c1.97,2.397,3.723,4.591,4.971,6.197C482.338,116.402,483.08,117.42,483.024,117.465z"/>
				</g>
			</g>
			<g>
				<g>
					<path style="fill:#263238;" d="M487.985,113.199c-0.056,0.045-0.904-0.903-2.232-2.47c-1.328-1.567-3.136-3.755-5.112-6.186
						c-1.913-2.385-3.643-4.54-5.022-6.26c-0.571-0.731-1.068-1.368-1.496-1.916c-0.361-0.467-0.511-0.681-0.523-0.725
						c0.065-0.083,0.967,0.859,2.303,2.407c1.346,1.553,3.165,3.733,5.142,6.166c1.977,2.432,3.74,4.656,4.995,6.283
						C487.294,112.124,488.041,113.154,487.985,113.199z"/>
				</g>
			</g>
			<g>
				<g>
					<path style="fill:#263238;" d="M492.507,109.2c-0.109,0.093-3.398-3.58-7.343-8.204c-3.947-4.626-7.057-8.45-6.948-8.543
						s3.397,3.58,7.344,8.205C489.506,105.282,492.617,109.107,492.507,109.2z"/>
				</g>
			</g>
		</g>
		<g>
			<g>
				<g>
					
						<rect x="637.265" y="110.402" transform="matrix(0.6909 0.723 -0.723 0.6909 285.8137 -428.1059)" style="fill:#263238;" width="12.521" height="19.54"/>
				</g>
				<g>
					<path style="fill:#455A64;" d="M655.327,126.839l-17.817-18.645l15.227-14.551c7.845,4.991,13.901,11.131,17.817,18.645
						L655.327,126.839z"/>
				</g>
			</g>
			<g>
				<g>
					<path style="fill:#263238;" d="M640.492,111.315c-0.1-0.103,3.352-3.602,7.709-7.813c4.358-4.213,7.972-7.543,8.072-7.439
						c0.1,0.103-3.351,3.601-7.71,7.814C644.206,108.088,640.592,111.419,640.492,111.315z"/>
				</g>
			</g>
			<g>
				<g>
					<path style="fill:#263238;" d="M643.889,114.869c-0.048-0.053,0.842-0.944,2.317-2.344c1.475-1.4,3.534-3.309,5.823-5.401
						c2.242-2.03,4.268-3.864,5.887-5.33c0.684-0.611,1.279-1.143,1.794-1.602c0.432-0.381,0.642-0.576,0.665-0.578
						c0.195,0.183-3.416,3.713-7.995,7.895c-2.29,2.093-4.389,3.959-5.928,5.289C644.914,114.129,643.937,114.923,643.889,114.869z"
						/>
				</g>
			</g>
			<g>
				<g>
					<path style="fill:#263238;" d="M648.409,119.6c-0.048-0.053,0.854-0.95,2.35-2.359c1.496-1.408,3.585-3.328,5.91-5.429
						c2.281-2.036,4.343-3.876,5.988-5.343c0.701-0.609,1.31-1.138,1.836-1.595c0.447-0.385,0.653-0.546,0.697-0.561
						c0.087,0.06-0.807,1.011-2.283,2.426c-1.481,1.426-3.562,3.356-5.888,5.458c-2.325,2.102-4.454,3.978-6.013,5.317
						C649.446,118.853,648.457,119.653,648.409,119.6z"/>
				</g>
			</g>
			<g>
				<g>
					<path style="fill:#263238;" d="M652.639,123.906c-0.099-0.104,3.397-3.58,7.808-7.763c4.413-4.184,8.069-7.49,8.168-7.386
						c0.099,0.104-3.397,3.58-7.809,7.764C656.395,120.704,652.738,124.011,652.639,123.906z"/>
				</g>
			</g>
		</g>
		<g>
			<g>
				<g>
					<rect x="560.258" y="74.719" style="fill:#263238;" width="14.822" height="23.131"/>
				</g>
				<g>
					<path style="fill:#0F4C81;" d="M583.028,81.637h-30.529V56.705c10.687-2.633,20.895-2.794,30.529,0V81.637z"/>
				</g>
			</g>
			<g>
				<g>
					<path style="fill:#263238;" d="M583.387,56.81c0.014,0.033-0.387,0.23-1.126,0.558c-0.735,0.339-1.834,0.75-3.215,1.184
						c-1.38,0.442-3.061,0.846-4.951,1.174c-1.893,0.3-3.996,0.508-6.211,0.529c-2.216,0.001-4.321-0.187-6.218-0.469
						c-1.893-0.309-3.578-0.697-4.962-1.126c-1.385-0.42-2.488-0.821-3.226-1.153c-0.743-0.321-1.145-0.514-1.131-0.547
						c0.037-0.091,1.685,0.602,4.458,1.346c1.384,0.38,3.059,0.726,4.933,1.006c1.878,0.253,3.957,0.424,6.144,0.423
						c2.186-0.02,4.263-0.211,6.138-0.482c1.871-0.298,3.542-0.66,4.922-1.053C581.707,57.428,583.349,56.719,583.387,56.81z"/>
				</g>
			</g>
			<g>
				<g>
					<path style="fill:#263238;" d="M562.584,81.567c-0.144,0-0.26-4.786-0.26-10.689c0-5.905,0.117-10.69,0.26-10.69
						s0.26,4.785,0.26,10.69C562.845,76.781,562.728,81.567,562.584,81.567z"/>
				</g>
			</g>
			<g>
				<g>
					<path style="fill:#263238;" d="M568.393,81.712c-0.144,0-0.26-4.808-0.26-10.738c0-5.932,0.117-10.739,0.26-10.739
						c0.144,0,0.26,4.807,0.26,10.739C568.653,76.904,568.537,81.712,568.393,81.712z"/>
				</g>
			</g>
			<g>
				<g>
					<path style="fill:#263238;" d="M574.201,81.616c-0.144,0-0.26-4.808-0.26-10.738c0-5.932,0.117-10.739,0.26-10.739
						s0.26,4.807,0.26,10.739C574.462,76.808,574.345,81.616,574.201,81.616z"/>
				</g>
			</g>
			<g>
				<g>
					<path style="fill:#263238;" d="M579.039,81.616c-0.144,0-0.26-5.197-0.26-11.606c0-6.411,0.117-11.607,0.26-11.607
						s0.26,5.196,0.26,11.607C579.299,76.419,579.182,81.616,579.039,81.616z"/>
				</g>
			</g>
			<g>
				<g>
					<path style="fill:#263238;" d="M557.092,81.467c-0.144,0-0.26-5.197-0.26-11.606c0-6.411,0.117-11.607,0.26-11.607
						c0.144,0,0.26,5.196,0.26,11.607C557.353,76.271,557.236,81.467,557.092,81.467z"/>
				</g>
			</g>
		</g>
		<g>
			
				<ellipse transform="matrix(0.7071 -0.7071 0.7071 0.7071 25.3568 458.2836)" style="fill:#0F4C81;" cx="565.876" cy="198.533" rx="107.832" ry="107.832"/>
		</g>
		<g>
			<g>
				<circle style="fill:#FAFAFA;" cx="565.876" cy="197.675" r="90.563"/>
			</g>
			<g>
				<g>
					<path style="fill:#263238;" d="M656.438,197.675c0,0-0.03-0.497-0.064-1.468c-0.059-0.969-0.022-2.417-0.191-4.305
						c-0.227-3.777-0.856-9.355-2.58-16.339c-0.924-3.472-2.047-7.318-3.716-11.364c-1.635-4.052-3.651-8.375-6.301-12.741
						c-5.236-8.742-12.746-17.889-22.979-25.69c-5.095-3.91-10.887-7.42-17.269-10.318c-6.379-2.895-13.349-5.221-20.784-6.559
						c-7.42-1.369-15.275-1.908-23.297-1.282c-4.016,0.238-8.054,0.891-12.107,1.694c-4.045,0.865-8.078,2.025-12.077,3.445
						c-15.937,5.771-31.081,16.548-41.992,31.496c-2.762,3.702-5.181,7.7-7.363,11.854c-1.112,2.069-2.061,4.228-3.032,6.386
						c-0.871,2.2-1.773,4.399-2.491,6.673c-1.481,4.528-2.706,9.19-3.44,13.971c-0.753,4.776-1.149,9.637-1.182,14.534
						c0.033,4.899,0.425,9.762,1.178,14.539c0.734,4.783,1.957,9.447,3.438,13.976c0.719,2.275,1.62,4.475,2.491,6.676
						c0.972,2.158,1.919,4.318,3.032,6.388c2.183,4.155,4.6,8.155,7.364,11.857c10.912,14.953,26.058,25.733,41.998,31.505
						c4,1.42,8.034,2.58,12.079,3.445c4.054,0.802,8.092,1.456,12.109,1.693c8.023,0.626,15.878,0.086,23.299-1.283
						c7.435-1.339,14.405-3.665,20.784-6.561c6.383-2.899,12.174-6.409,17.269-10.32c10.232-7.801,17.741-16.949,22.976-25.69
						c2.65-4.366,4.665-8.688,6.3-12.74c1.669-4.046,2.791-7.892,3.715-11.363c1.724-6.983,2.352-12.56,2.579-16.337
						c0.169-1.887,0.133-3.335,0.191-4.304C656.408,198.172,656.438,197.675,656.438,197.675s0.005,0.497-0.011,1.469
						c-0.041,0.97,0.013,2.419-0.14,4.31c-0.194,3.783-0.79,9.373-2.487,16.38c-0.911,3.483-2.021,7.343-3.681,11.406
						c-1.626,4.069-3.634,8.41-6.281,12.797c-5.228,8.784-12.744,17.982-23.003,25.834c-5.108,3.936-10.918,7.471-17.325,10.393
						c-6.403,2.918-13.403,5.265-20.872,6.62c-7.455,1.385-15.348,1.936-23.411,1.316c-4.037-0.236-8.097-0.888-12.172-1.691
						c-4.067-0.866-8.124-2.029-12.146-3.453c-16.03-5.79-31.267-16.621-42.245-31.654c-2.78-3.723-5.213-7.744-7.409-11.922
						c-1.12-2.081-2.073-4.254-3.051-6.424c-0.877-2.213-1.783-4.426-2.506-6.714c-1.49-4.555-2.72-9.246-3.46-14.057
						c-0.757-4.805-1.153-9.696-1.185-14.622c0.033-4.925,0.431-9.814,1.189-14.617c0.738-4.809,1.971-9.498,3.462-14.051
						c0.724-2.288,1.63-4.499,2.507-6.712c0.977-2.17,1.932-4.341,3.051-6.422c2.196-4.177,4.63-8.197,7.409-11.918
						c10.978-15.028,26.212-25.856,42.239-31.645c4.022-1.424,8.078-2.587,12.144-3.453c4.075-0.803,8.134-1.455,12.171-1.691
						c8.063-0.621,15.955-0.071,23.409,1.314c7.468,1.354,14.468,3.7,20.871,6.618c6.407,2.922,12.218,6.455,17.326,10.391
						c10.26,7.851,17.776,17.05,23.005,25.834c2.647,4.388,4.656,8.729,6.282,12.798c1.66,4.063,2.771,7.924,3.682,11.407
						c1.698,7.008,2.294,12.598,2.488,16.382c0.152,1.89,0.099,3.34,0.14,4.31C656.444,197.177,656.438,197.675,656.438,197.675z"/>
				</g>
			</g>
		</g>
		<g>
			<g>
				<path style="fill:none;stroke:#87A5C0;stroke-miterlimit:10;" d="M677.225,205.665"/>
			</g>
		</g>
		<g>
			<g>
				<g>
					<path style="fill:#263238;" d="M643.153,194.387c-2.875,0.12-5.214,0.011-5.227-0.244c-0.012-0.254,2.305-0.592,5.178-0.755
						c2.87-0.163,5.211-0.054,5.225,0.244C648.344,193.929,646.026,194.267,643.153,194.387z"/>
				</g>
			</g>
			<g>
				<g>
					<path style="fill:#263238;" d="M641.223,215.237c-2.801-0.655-5.026-1.387-4.97-1.635c0.056-0.248,2.38,0.047,5.191,0.659
						c2.809,0.612,5.035,1.343,4.969,1.634C646.347,216.187,644.023,215.892,641.223,215.237z"/>
				</g>
			</g>
			<g>
				<g>
					<path style="fill:#263238;" d="M633.746,234.794c-2.521-1.386-4.467-2.69-4.346-2.914c0.121-0.224,2.279,0.687,4.821,2.034
						c2.54,1.346,4.486,2.651,4.345,2.913C638.424,237.09,636.265,236.179,633.746,234.794z"/>
				</g>
			</g>
			<g>
				<g>
					<path style="fill:#263238;" d="M621.296,251.63c-2.06-2.009-3.586-3.785-3.41-3.969c0.176-0.183,2.013,1.27,4.102,3.248
						c2.088,1.976,3.615,3.753,3.409,3.968C625.191,255.092,623.354,253.638,621.296,251.63z"/>
				</g>
			</g>
			<g>
				<g>
					<path style="fill:#263238;" d="M604.804,264.531c-1.447-2.487-2.442-4.607-2.224-4.736c0.219-0.129,1.599,1.763,3.083,4.227
						c1.484,2.463,2.479,4.583,2.223,4.735C607.63,268.909,606.25,267.016,604.804,264.531z"/>
				</g>
			</g>
			<g>
				<g>
					<path style="fill:#263238;" d="M585.45,272.52c-0.722-2.785-1.108-5.095-0.862-5.161c0.245-0.066,1.064,2.129,1.828,4.903
						c0.764,2.772,1.15,5.082,0.862,5.159C586.99,277.498,586.171,275.303,585.45,272.52z"/>
				</g>
			</g>
			<g>
				<g>
					<path style="fill:#263238;" d="M564.659,275.016c0.046-2.877,0.289-5.206,0.543-5.204c0.254,0.002,0.459,2.335,0.457,5.212
						c-0.002,2.875-0.245,5.205-0.543,5.203C564.818,280.224,564.613,277.89,564.659,275.016z"/>
				</g>
			</g>
			<g>
				<g>
					<path style="fill:#263238;" d="M543.953,271.872c0.818-2.758,1.681-4.936,1.926-4.865c0.245,0.071-0.185,2.373-0.961,5.144
						c-0.775,2.769-1.638,4.947-1.925,4.864C542.705,276.931,543.135,274.628,543.953,271.872z"/>
				</g>
			</g>
			<g>
				<g>
					<path style="fill:#263238;" d="M524.868,263.264c1.53-2.436,2.946-4.303,3.162-4.169c0.216,0.133-0.818,2.235-2.311,4.694
						c-1.492,2.458-2.908,4.324-3.161,4.168C522.304,267.801,523.339,265.699,524.868,263.264z"/>
				</g>
			</g>
			<g>
				<g>
					<path style="fill:#263238;" d="M508.782,249.859c2.125-1.94,3.987-3.361,4.159-3.174c0.173,0.186-1.385,1.936-3.48,3.907
						c-2.094,1.97-3.956,3.392-4.158,3.173C505.1,253.547,506.658,251.798,508.782,249.859z"/>
				</g>
			</g>
			<g>
				<g>
					<path style="fill:#263238;" d="M496.863,232.644c2.567-1.299,4.742-2.168,4.858-1.943c0.116,0.226-1.853,1.493-4.4,2.831
						c-2.545,1.337-4.721,2.207-4.857,1.942C492.327,235.21,494.298,233.942,496.863,232.644z"/>
				</g>
			</g>
			<g>
				<g>
					<path style="fill:#263238;" d="M490.024,212.861c2.822-0.558,5.151-0.808,5.202-0.56s-2.188,0.938-5.001,1.539
						c-2.812,0.601-5.141,0.851-5.201,0.559C484.964,214.108,487.203,213.419,490.024,212.861z"/>
				</g>
			</g>
			<g>
				<g>
					<path style="fill:#263238;" d="M488.731,191.956c2.869,0.212,5.181,0.59,5.164,0.844c-0.017,0.254-2.358,0.323-5.23,0.154
						c-2.87-0.169-5.182-0.546-5.162-0.844C483.522,191.813,485.864,191.744,488.731,191.956z"/>
				</g>
			</g>
			<g>
				<g>
					<path style="fill:#263238;" d="M493.081,171.472c2.705,0.979,4.829,1.966,4.745,2.205c-0.085,0.239-2.358-0.326-5.078-1.263
						c-2.718-0.937-4.843-1.924-4.743-2.205C488.104,169.928,490.377,170.494,493.081,171.472z"/>
				</g>
			</g>
			<g>
				<g>
					<path style="fill:#263238;" d="M502.786,152.923c2.343,1.669,4.125,3.19,3.979,3.398c-0.146,0.208-2.184-0.947-4.553-2.579
						c-2.367-1.632-4.148-3.153-3.977-3.397C498.406,150.1,500.444,151.255,502.786,152.923z"/>
				</g>
			</g>
			<g>
				<g>
					<path style="fill:#263238;" d="M517.099,137.639c1.813,2.234,3.124,4.175,2.928,4.336c-0.196,0.162-1.852-1.495-3.699-3.701
						c-1.846-2.204-3.157-4.146-2.927-4.335S515.287,135.407,517.099,137.639z"/>
				</g>
			</g>
			<g>
				<g>
					<path style="fill:#263238;" d="M534.979,126.743c1.146,2.639,1.887,4.861,1.655,4.964c-0.232,0.103-1.382-1.938-2.569-4.559
						c-1.186-2.619-1.927-4.842-1.654-4.963C532.683,122.065,533.833,124.106,534.979,126.743z"/>
				</g>
			</g>
			<g>
				<g>
					<path style="fill:#263238;" d="M555.138,121.072c0.393,2.85,0.507,5.19,0.256,5.226c-0.252,0.037-0.809-2.238-1.245-5.082
						c-0.436-2.842-0.55-5.182-0.256-5.225C554.188,115.948,554.745,118.224,555.138,121.072z"/>
				</g>
			</g>
			<g>
				<g>
					<path style="fill:#263238;" d="M576.081,120.989c-0.38,2.852-0.892,5.137-1.144,5.106c-0.252-0.032-0.184-2.373,0.152-5.23
						c0.336-2.855,0.848-5.141,1.144-5.104C576.528,115.798,576.46,118.14,576.081,120.989z"/>
				</g>
			</g>
			<g>
				<g>
					<path style="fill:#263238;" d="M596.274,126.532c-1.135,2.643-2.246,4.706-2.48,4.607c-0.234-0.098,0.463-2.334,1.558-4.995
						c1.094-2.659,2.204-4.722,2.479-4.606C598.106,121.654,597.408,123.891,596.274,126.532z"/>
				</g>
			</g>
			<g>
				<g>
					<path style="fill:#263238;" d="M614.229,137.304c-1.802,2.243-3.424,3.933-3.623,3.775c-0.199-0.158,1.072-2.125,2.839-4.395
						c1.767-2.268,3.389-3.959,3.622-3.774C617.301,133.095,616.03,135.063,614.229,137.304z"/>
				</g>
			</g>
			<g>
				<g>
					<path style="fill:#263238;" d="M628.657,152.479c-2.335,1.68-4.349,2.876-4.499,2.671c-0.15-0.205,1.6-1.762,3.909-3.478
						c2.308-1.715,4.322-2.91,4.498-2.67C632.741,149.243,630.99,150.8,628.657,152.479z"/>
				</g>
			</g>
			<g>
				<g>
					<path style="fill:#263238;" d="M638.487,170.966c-2.702,0.989-4.963,1.598-5.052,1.36c-0.089-0.238,2.016-1.266,4.702-2.296
						c2.684-1.03,4.946-1.639,5.051-1.36C643.292,168.95,641.187,169.978,638.487,170.966z"/>
				</g>
			</g>
			<g>
				<g>
					<path style="fill:#263238;" d="M642.97,191.418c-2.868,0.228-5.21,0.208-5.232-0.045c-0.022-0.253,2.281-0.677,5.146-0.948
						c2.862-0.271,5.205-0.251,5.231,0.045C648.14,190.766,645.836,191.19,642.97,191.418z"/>
				</g>
			</g>
		</g>
		<g>
			<g>
				<path style="fill:#FFFFFF;" d="M530.711,99.697c0.003,0.008-0.101,0.057-0.308,0.143c-0.233,0.094-0.537,0.217-0.92,0.372
					c-0.804,0.339-2.024,0.747-3.537,1.419c-3.059,1.259-7.41,3.283-12.524,6.25c-2.562,1.475-5.275,3.246-8.121,5.24
					c-2.803,2.052-5.76,4.305-8.668,6.916c-5.857,5.168-11.679,11.562-16.795,18.987c-5.062,7.466-8.906,15.215-11.595,22.549
					c-1.377,3.658-2.402,7.232-3.296,10.589c-0.824,3.376-1.489,6.547-1.934,9.47c-0.907,5.843-1.212,10.632-1.275,13.938
					c-0.077,1.654-0.014,2.939-0.038,3.81c-0.005,0.414-0.009,0.741-0.012,0.992c-0.006,0.224-0.013,0.338-0.022,0.339
					c-0.009,0-0.019-0.114-0.031-0.337c-0.01-0.251-0.023-0.578-0.04-0.992c-0.01-0.872-0.106-2.159-0.06-3.816
					c0-3.314,0.25-8.12,1.114-13.991c0.422-2.937,1.069-6.125,1.879-9.519c0.879-3.376,1.894-6.97,3.264-10.649
					c2.676-7.377,6.526-15.173,11.615-22.678c5.143-7.464,11.007-13.881,16.908-19.053c2.93-2.613,5.91-4.863,8.736-6.908
					c2.868-1.987,5.604-3.747,8.186-5.207c5.156-2.937,9.544-4.915,12.632-6.119c1.527-0.645,2.761-1.023,3.578-1.33
					c0.391-0.135,0.701-0.241,0.938-0.323C530.598,99.721,530.708,99.689,530.711,99.697z"/>
			</g>
		</g>
		<g>
			<g>
				<path style="fill:#FFFFFF;" d="M560.808,93.858c0.005,0.075-1.192,0.207-3.123,0.411c-1.931,0.204-4.597,0.493-7.534,0.872
					c-2.937,0.382-5.589,0.783-7.508,1.078c-1.92,0.295-3.11,0.472-3.124,0.398c-0.013-0.068,1.152-0.373,3.06-0.761
					c1.907-0.389,4.559-0.849,7.506-1.232c2.946-0.381,5.627-0.613,7.57-0.723C559.599,93.792,560.804,93.789,560.808,93.858z"/>
			</g>
		</g>
		<g style="opacity:0.4;">
			<path d="M493.496,252.11c0,0,46.93,74.062,119.733,36.128c75.988-39.593,34.011-130.364,34.011-130.364
				s35.759,72.337-38.322,119.499c-18.45,11.746-38.537,11.756-53.86,10.222C515.9,283.672,493.496,252.11,493.496,252.11z"/>
		</g>
		<g>
			<path style="fill:#E0E0E0;" d="M591.121,149.544c0.453,13.277,0.05,26.583-1.205,39.808c-0.454,4.784-1.037,9.627-2.849,14.079
				c-1.812,4.451-5.014,8.53-9.437,10.41c-4.423,1.88-10.118,1.1-13.212-2.577L591.121,149.544z"/>
		</g>
		<g>
			<g>
				<g>
					<polygon style="fill:#0F4C81;" points="563.909,190.532 596.82,135.106 576.956,197.675 566.808,200.713 					"/>
				</g>
				<g style="opacity:0.4;">
					<polygon points="596.82,135.106 572.413,191.736 576.956,197.675 					"/>
				</g>
			</g>
			<g>
				<g>
					<g>
						<circle style="fill:#FAFAFA;" cx="566.808" cy="200.713" r="10.593"/>
					</g>
					<g>
						<g>
							<path style="fill:#263238;" d="M577.401,200.713c-0.069,0.005-0.011-0.945-0.43-2.562c-0.414-1.586-1.479-3.914-3.866-5.712
								c-1.182-0.878-2.669-1.623-4.382-1.919c-1.701-0.286-3.619-0.228-5.442,0.469c-0.918,0.32-1.802,0.804-2.615,1.414
								c-0.822,0.598-1.568,1.34-2.183,2.199c-1.271,1.693-1.986,3.867-2.008,6.109c0.02,2.242,0.736,4.417,2.007,6.111
								c0.615,0.86,1.361,1.602,2.183,2.2c0.813,0.61,1.698,1.094,2.616,1.414c1.823,0.698,3.741,0.756,5.442,0.469
								c1.713-0.297,3.2-1.042,4.382-1.92c2.386-1.798,3.451-4.126,3.865-5.712C577.39,201.657,577.332,200.708,577.401,200.713
								c0,0,0.132,0.946-0.233,2.611c-0.362,1.63-1.397,4.055-3.839,5.955c-1.209,0.928-2.745,1.723-4.526,2.051
								c-1.769,0.318-3.771,0.274-5.685-0.443c-0.963-0.33-1.893-0.831-2.748-1.466c-0.865-0.623-1.65-1.398-2.299-2.297
								c-1.339-1.772-2.097-4.059-2.116-6.413c0.02-2.353,0.779-4.639,2.117-6.411c0.648-0.899,1.434-1.674,2.298-2.297
								c0.855-0.635,1.785-1.136,2.747-1.465c1.914-0.716,3.916-0.76,5.685-0.443c1.781,0.328,3.317,1.123,4.526,2.051
								c2.441,1.9,3.477,4.325,3.839,5.955C577.533,199.767,577.401,200.713,577.401,200.713z"/>
						</g>
					</g>
				</g>
				<g>
					<g>
						
							<ellipse transform="matrix(0.1981 -0.9802 0.9802 0.1981 257.7896 716.5275)" style="fill:#455A64;" cx="566.808" cy="200.713" rx="7.884" ry="7.884"/>
					</g>
				</g>
			</g>
		</g>
	</g>
</g>
<g id="Calendar">
	<g>
		<g>
			<g>
				<polygon style="fill:#E0E0E0;" points="483.317,454.893 535.424,454.893 511.132,245.547 				"/>
			</g>
			<g>
				<polygon style="fill:#FAFAFA;" points="226.957,245.547 193.037,457.36 482.489,461.129 511.132,245.547 				"/>
			</g>
			<g>
				<polygon style="fill:#EBEBEB;" points="498.239,342.584 211.417,342.584 217.664,303.577 503.422,303.577 				"/>
				<path style="fill:#263238;" d="M498.26,342.61H211.388l0.004-0.029l6.25-39.028h285.809l-0.004,0.028L498.26,342.61z
					 M211.446,342.559h286.771l5.177-38.956H217.685L211.446,342.559z"/>
			</g>
			<g>
				<polygon style="fill:#0F4C81;" points="226.957,245.547 217.664,303.577 503.422,303.577 511.132,245.547 				"/>
			</g>
			<g>
				<g>
					<path style="fill:#263238;" d="M226.957,245.547c2.068-0.002,115.756-0.096,284.175-0.235l0.268,0l-0.035,0.266
						c-8.378,63.113-17.878,134.683-27.913,210.273l-0.03,0.226h-0.228c-1.027,0-2.143,0-3.259,0
						c-106.892-0.018-205.933-0.034-286.651-0.047h-0.25l0.04-0.247C213.591,328.476,226.676,247.287,226.957,245.547
						c-0.277,1.739-13.2,82.955-33.463,210.304l-0.21-0.247c80.718-0.013,179.759-0.03,286.651-0.047c1.116,0,2.232,0,3.259,0
						l-0.258,0.226c10.052-75.588,19.57-147.155,27.963-210.267l0.233,0.266C342.713,245.643,229.024,245.549,226.957,245.547z"/>
				</g>
			</g>
			<g>
				<g>
					<path style="fill:#263238;" d="M503.422,303.577c0,0.144-63.974,0.26-142.872,0.26c-78.925,0-142.886-0.117-142.886-0.26
						s63.961-0.26,142.886-0.26C439.448,303.317,503.422,303.433,503.422,303.577z"/>
				</g>
			</g>
			<g>
				<g>
					<path style="fill:#263238;" d="M498.239,342.584c0,0.144-64.335,0.26-143.678,0.26c-79.37,0-143.691-0.117-143.691-0.26
						s64.321-0.26,143.691-0.26C433.904,342.324,498.239,342.44,498.239,342.584z"/>
				</g>
			</g>
			<g>
				<g>
					<path style="fill:#263238;" d="M492.404,378.472c0,0.144-64.335,0.26-143.678,0.26c-79.37,0-143.691-0.117-143.691-0.26
						s64.321-0.26,143.691-0.26C428.069,378.211,492.404,378.328,492.404,378.472z"/>
				</g>
			</g>
			<g>
				<g>
					<path style="fill:#263238;" d="M486.569,414.359c0,0.144-64.335,0.26-143.678,0.26c-79.37,0-143.691-0.117-143.691-0.26
						c0-0.144,64.321-0.26,143.691-0.26C422.234,414.099,486.569,414.216,486.569,414.359z"/>
				</g>
			</g>
			<g>
				<g>
					<path style="fill:#263238;" d="M233.674,456.137c-0.142-0.022,5.111-34.195,11.732-76.317
						c6.623-42.136,12.106-76.265,12.248-76.243c0.142,0.022-5.11,34.188-11.733,76.324
						C239.299,422.023,233.816,456.159,233.674,456.137z"/>
				</g>
			</g>
			<g>
				<g>
					<path style="fill:#263238;" d="M277.897,456.137c-0.142-0.022,5.111-34.195,11.732-76.317
						c6.623-42.136,12.105-76.265,12.247-76.243c0.142,0.022-5.11,34.188-11.733,76.324
						C283.523,422.023,278.039,456.159,277.897,456.137z"/>
				</g>
			</g>
			<g>
				<g>
					<path style="fill:#263238;" d="M318.99,454.61c-0.142-0.022,5.057-33.853,11.612-75.553
						c6.557-41.715,11.985-75.502,12.128-75.48c0.142,0.022-5.056,33.846-11.613,75.56
						C324.561,420.838,319.132,454.633,318.99,454.61z"/>
				</g>
			</g>
			<g>
				<g>
					<path style="fill:#263238;" d="M359.652,455.818c-0.142-0.022,5.1-34.123,11.707-76.157
						c6.609-42.048,12.08-76.106,12.223-76.083c0.142,0.022-5.099,34.116-11.708,76.164
						C365.267,421.775,359.794,455.84,359.652,455.818z"/>
				</g>
			</g>
			<g>
				<g>
					<path style="fill:#263238;" d="M400.505,455.818c-0.142-0.022,5.1-34.123,11.707-76.157
						c6.609-42.048,12.08-76.106,12.223-76.083c0.142,0.022-5.099,34.116-11.708,76.164
						C406.119,421.775,400.647,455.84,400.505,455.818z"/>
				</g>
			</g>
			<g>
				<g>
					<path style="fill:#263238;" d="M441.323,456.04c-0.142-0.022,5.108-34.173,11.724-76.268
						c6.619-42.11,12.098-76.217,12.24-76.195c0.142,0.022-5.107,34.166-11.726,76.276
						C446.945,421.948,441.465,456.063,441.323,456.04z"/>
				</g>
			</g>
		</g>
		<g style="opacity:0.2;">
			<g>
				<path d="M415.617,306.304c4.925-2.179,7.997-7.304,9.276-12.535s1.07-10.691,1.253-16.074c0.183-5.382,0.83-10.947,3.586-15.574
					c1.629-2.735,3.921-5.012,5.728-7.633c1.807-2.621,3.148-5.833,2.481-8.945l-30.779,0.156L415.617,306.304z"/>
			</g>
		</g>
		<g>
			<g>
				<path style="fill:#263238;" d="M287.951,345.471c0.013,0.013-0.09,0.137-0.298,0.361c-0.254,0.264-0.56,0.582-0.927,0.963
					c-0.811,0.83-2.005,2.01-3.496,3.452c-2.981,2.885-7.171,6.798-11.916,10.989c-4.749,4.19-9.152,7.862-12.385,10.462
					c-1.616,1.301-2.935,2.339-3.859,3.04c-0.424,0.317-0.777,0.58-1.071,0.8c-0.248,0.178-0.384,0.265-0.395,0.251
					c-0.011-0.014,0.103-0.128,0.33-0.333c0.277-0.24,0.609-0.529,1.009-0.876c0.95-0.802,2.217-1.871,3.752-3.167
					c3.171-2.671,7.531-6.383,12.275-10.568c4.74-4.186,8.964-8.051,12.008-10.866c1.476-1.363,2.694-2.487,3.608-3.33
					c0.394-0.353,0.721-0.648,0.994-0.893C287.811,345.557,287.939,345.458,287.951,345.471z"/>
			</g>
		</g>
		<g>
			<g>
				<path style="fill:#263238;" d="M285.693,376.198c-0.027,0.024-0.451-0.397-1.196-1.179c-0.8-0.852-1.854-1.975-3.128-3.334
					c-2.697-2.877-6.314-6.736-10.312-11.001c-4.039-4.229-7.692-8.055-10.416-10.907c-1.285-1.348-2.349-2.462-3.155-3.308
					c-0.739-0.787-1.136-1.234-1.111-1.259c0.025-0.025,0.471,0.373,1.255,1.116c0.784,0.742,1.904,1.833,3.274,3.193
					c2.742,2.719,6.48,6.526,10.531,10.807c4.049,4.28,7.643,8.223,10.206,11.111c1.282,1.444,2.309,2.621,3.007,3.446
					C285.346,375.707,285.72,376.174,285.693,376.198z"/>
			</g>
		</g>
		<g>
			<g>
				<path style="fill:#0F4C81;" d="M296.373,354.662c0,0,0.097-0.263,0.31-0.769c0.216-0.503,0.589-1.237,1.202-2.117
					c1.21-1.734,3.54-4.134,7.415-5.53c0.959-0.348,2.008-0.626,3.133-0.778c1.121-0.179,2.322-0.202,3.56-0.094
					c2.483,0.2,5.117,1.079,7.598,2.586c2.477,1.512,4.79,3.708,6.546,6.503c1.724,2.782,2.978,6.227,2.737,9.927
					c-0.117,1.837-0.686,3.699-1.713,5.336c-1.02,1.637-2.437,3.074-4.118,4.167c-3.357,2.203-7.576,3.309-11.885,3.086
					c-2.152-0.122-4.327-0.565-6.403-1.394c-2.068-0.833-4.035-2.077-5.6-3.793c-0.769-0.867-1.417-1.849-1.931-2.907
					c-0.498-1.066-0.835-2.213-1.017-3.388c-0.36-2.356-0.095-4.806,0.617-7.127c1.446-4.643,4.781-8.806,9.258-11.249
					c4.444-2.52,10.182-2.82,15.048-0.695c2.441,1.03,4.649,2.693,6.306,4.829c1.666,2.14,2.654,4.783,2.979,7.498
					c0.328,2.718-0.083,5.564-1.297,8.078c-0.609,1.253-1.411,2.419-2.378,3.435c-0.976,1.008-2.094,1.875-3.304,2.591
					c-4.902,2.815-10.902,3.176-16.084,1.506c-2.598-0.829-5.031-2.181-6.998-4.037c-1.972-1.841-3.396-4.279-3.896-6.904
					c-0.526-2.605-0.22-5.392,1.053-7.708c0.63-1.156,1.511-2.165,2.536-2.963c1.03-0.798,2.202-1.377,3.408-1.796
					c2.425-0.833,4.97-1.033,7.439-0.984c2.471,0.058,4.924,0.342,7.258,1.018c2.322,0.673,4.555,1.741,6.304,3.379
					c1.753,1.623,2.935,3.793,3.387,6.064c0.47,2.27,0.303,4.618-0.393,6.75c-0.698,2.14-1.955,4.025-3.488,5.546
					c-3.091,3.041-7.211,4.714-11.212,4.884c-2.002,0.089-3.987-0.187-5.8-0.846c-1.806-0.666-3.442-1.718-4.678-3.089
					c-1.26-1.35-2.155-2.951-2.713-4.607c-0.574-1.653-0.801-3.369-0.729-5.022c0.102-3.334,1.586-6.303,3.542-8.436
					c1.962-2.16,4.371-3.577,6.729-4.355c2.368-0.796,4.7-0.872,6.719-0.64c4.079,0.519,6.911,2.209,8.614,3.466
					c0.856,0.645,1.461,1.196,1.851,1.581c0.384,0.392,0.571,0.602,0.571,0.602s-0.212-0.185-0.608-0.563
					c-0.401-0.372-1.014-0.908-1.876-1.535c-1.712-1.223-4.541-2.868-8.575-3.35c-1.998-0.213-4.293-0.122-6.618,0.674
					c-2.315,0.779-4.677,2.187-6.59,4.314c-1.909,2.104-3.341,5.004-3.428,8.254c-0.064,1.612,0.163,3.287,0.729,4.896
					c0.549,1.612,1.426,3.166,2.652,4.47c1.201,1.324,2.785,2.335,4.541,2.978c1.762,0.634,3.696,0.898,5.649,0.806
					c3.903-0.175,7.928-1.823,10.926-4.788c1.488-1.482,2.701-3.314,3.369-5.378c0.669-2.06,0.824-4.333,0.368-6.518
					c-0.442-2.19-1.573-4.255-3.259-5.814c-1.681-1.57-3.844-2.607-6.116-3.261c-2.281-0.659-4.698-0.937-7.135-0.99
					c-2.432-0.046-4.926,0.158-7.266,0.966c-2.331,0.778-4.48,2.315-5.665,4.531c-1.205,2.194-1.503,4.865-0.995,7.366
					c0.484,2.519,1.842,4.846,3.751,6.63c1.901,1.793,4.266,3.109,6.802,3.917c5.05,1.63,10.916,1.267,15.663-1.462
					c1.171-0.694,2.25-1.531,3.19-2.501c0.931-0.979,1.702-2.099,2.286-3.302c1.167-2.415,1.567-5.163,1.25-7.793
					c-0.314-2.626-1.27-5.183-2.873-7.243c-1.596-2.061-3.731-3.673-6.099-4.674c-4.728-2.064-10.283-1.782-14.609,0.663
					c-4.36,2.372-7.625,6.436-9.037,10.954c-0.697,2.258-0.955,4.639-0.611,6.914c0.174,1.134,0.497,2.238,0.973,3.262
					c0.493,1.016,1.113,1.961,1.852,2.798c1.505,1.656,3.41,2.87,5.426,3.686c2.023,0.812,4.152,1.252,6.26,1.376
					c4.215,0.229,8.36-0.849,11.639-2.99c3.293-2.11,5.501-5.593,5.686-9.194c0.248-3.592-0.965-6.983-2.651-9.725
					c-1.716-2.755-3.985-4.93-6.418-6.43c-2.436-1.496-5.025-2.375-7.468-2.586c-1.218-0.114-2.399-0.099-3.505,0.07
					c-1.11,0.143-2.146,0.409-3.097,0.746c-3.838,1.349-6.169,3.698-7.397,5.4c-0.622,0.864-1.008,1.585-1.239,2.078
					C296.503,354.412,296.373,354.662,296.373,354.662z"/>
			</g>
		</g>
		<g>
			<g>
				<path style="fill:#263238;" d="M323.46,382.273c0.092,0.11-7.843,6.891-17.722,15.143c-9.882,8.255-17.966,14.855-18.058,14.745
					c-0.092-0.11,7.842-6.889,17.724-15.144C315.283,388.764,323.368,382.162,323.46,382.273z"/>
			</g>
		</g>
		<g>
			<g>
				<path style="fill:#263238;" d="M325.188,411.274c-0.022,0.028-0.496-0.312-1.332-0.952c-0.9-0.704-2.083-1.629-3.511-2.746
					c-2.951-2.337-7.004-5.593-11.46-9.214c-4.458-3.622-8.475-6.924-11.366-9.334c-1.386-1.169-2.533-2.137-3.406-2.874
					c-0.797-0.688-1.227-1.081-1.204-1.109c0.023-0.028,0.496,0.313,1.332,0.952c0.9,0.704,2.083,1.629,3.511,2.746
					c2.95,2.337,7.004,5.592,11.461,9.214c4.456,3.621,8.472,6.921,11.363,9.331c1.386,1.169,2.533,2.138,3.407,2.875
					C324.78,410.852,325.21,411.246,325.188,411.274z"/>
			</g>
		</g>
		<g>
			<g>
				<path style="fill:#263238;" d="M406.939,382.655c0.086,0.115-7.502,5.924-16.946,12.973
					c-9.447,7.051-17.173,12.672-17.259,12.557c-0.086-0.115,7.5-5.923,16.948-12.974
					C399.125,388.162,406.853,382.54,406.939,382.655z"/>
			</g>
		</g>
		<g>
			<g>
				<path style="fill:#263238;" d="M409.884,407.262c-0.077,0.121-8.132-4.875-17.989-11.159
					c-9.86-6.286-17.789-11.478-17.711-11.599c0.077-0.121,8.131,4.874,17.991,11.16
					C402.032,401.948,409.961,407.141,409.884,407.262z"/>
			</g>
		</g>
		<g>
			<g>
				<path style="fill:#0F4C81;" d="M324.757,455.829c-0.103-0.1,7.776-8.355,17.595-18.434c9.823-10.083,17.867-18.173,17.97-18.072
					c0.103,0.1-7.774,8.353-17.597,18.436C332.906,447.838,324.86,455.93,324.757,455.829z"/>
			</g>
		</g>
		<g>
			<g>
				<path style="fill:#0F4C81;" d="M358.067,455.818c-0.014,0.011-0.125-0.108-0.324-0.344c-0.232-0.287-0.511-0.632-0.846-1.047
					c-0.781-0.979-1.821-2.285-3.084-3.868c-2.616-3.254-6.312-7.685-10.6-12.395c-4.293-4.708-8.362-8.799-11.36-11.706
					c-1.46-1.404-2.663-2.561-3.565-3.429c-0.382-0.372-0.699-0.682-0.964-0.94c-0.216-0.219-0.324-0.341-0.312-0.354
					c0.012-0.013,0.143,0.082,0.383,0.276c0.282,0.238,0.622,0.524,1.03,0.868c0.889,0.759,2.149,1.889,3.682,3.312
					c3.067,2.843,7.188,6.903,11.491,11.622c4.298,4.721,7.958,9.2,10.504,12.518c1.274,1.658,2.283,3.018,2.956,3.974
					c0.305,0.438,0.558,0.803,0.769,1.106C357.999,455.667,358.082,455.807,358.067,455.818z"/>
			</g>
		</g>
		<g>
			<g>
				<g>
					<path style="fill:#EBEBEB;" d="M276.213,413.762c0,0,0.317,24.565-5.884,39.28l-37.792-6.444c0,0,11.383-23.276,8.284-36.216
						L276.213,413.762z"/>
				</g>
			</g>
			<g>
				<g>
					<g>
						<path style="fill:#0F4C81;" d="M276.198,412.841c0,0-4.734,30.129-7.635,39.105l-37.571-7.407c0,0,7.726-29.163,7.625-37.278
							L276.198,412.841z"/>
					</g>
				</g>
				<g>
					<g>
						<g>
							<path style="fill:#FFFFFF;" d="M242.438,420.78c-0.029,0.138,5.581,1.436,12.529,2.898c6.95,1.463,12.606,2.537,12.635,2.398
								c0.029-0.138-5.58-1.435-12.53-2.898C248.124,421.716,242.467,420.642,242.438,420.78z"/>
						</g>
					</g>
				</g>
				<g>
					<g>
						<g>
							<path style="fill:#FFFFFF;" d="M241.479,427.168c-0.029,0.138,5.581,1.436,12.529,2.898
								c6.95,1.463,12.606,2.537,12.635,2.399c0.029-0.138-5.58-1.435-12.53-2.898C247.165,428.104,241.508,427.03,241.479,427.168z
								"/>
						</g>
					</g>
				</g>
				<g>
					<g>
						<g>
							<path style="fill:#FFFFFF;" d="M246.979,434.397c-0.014,0.069,0.775,0.3,2.063,0.619c1.288,0.318,3.074,0.723,5.053,1.14
								c1.98,0.417,3.778,0.766,5.085,0.994c1.307,0.228,2.122,0.334,2.137,0.265c0.014-0.069-0.775-0.3-2.062-0.618
								c-1.288-0.318-3.074-0.724-5.054-1.14c-1.979-0.417-3.777-0.766-5.084-0.994
								C247.809,434.434,246.994,434.328,246.979,434.397z"/>
						</g>
					</g>
				</g>
			</g>
		</g>
		<g>
			<g>
				<g>
					<path style="fill:#EBEBEB;" d="M454.981,344.766c0,0,3.872,23.946-0.051,39.217l-37.845-0.814c0,0,7.743-24.384,2.839-36.572
						L454.981,344.766z"/>
				</g>
			</g>
			<g>
				<g>
					<g>
						<path style="fill:#455A64;" d="M454.832,343.87c0,0-0.255,30.113-1.786,39.3l-37.769-1.786c0,0,3.318-29.602,2.042-37.514
							H454.832z"/>
					</g>
				</g>
				<g>
					<g>
						<g>
							<path style="fill:#FFFFFF;" d="M422.638,357.269c0,0.139,5.684,0.262,12.694,0.273c7.013,0.012,12.696-0.092,12.696-0.231
								c0-0.139-5.683-0.262-12.695-0.273C428.322,357.026,422.638,357.13,422.638,357.269z"/>
						</g>
					</g>
				</g>
				<g>
					<g>
						<g>
							<path style="fill:#FFFFFF;" d="M423,363.637c0,0.139,5.684,0.262,12.694,0.273c7.013,0.012,12.696-0.092,12.696-0.231
								c0-0.139-5.683-0.262-12.695-0.273C428.685,363.395,423,363.498,423,363.637z"/>
						</g>
					</g>
				</g>
				<g>
					<g>
						<g>
							<path style="fill:#FFFFFF;" d="M429.774,369.514c0,0.07,0.809,0.134,2.118,0.182c1.309,0.048,3.117,0.079,5.114,0.082
								c1.998,0.003,3.806-0.022,5.115-0.065c1.309-0.044,2.119-0.105,2.119-0.175c0-0.07-0.809-0.134-2.118-0.182
								c-1.309-0.048-3.117-0.079-5.115-0.082c-1.997-0.003-3.805,0.022-5.114,0.065
								C430.584,369.383,429.774,369.444,429.774,369.514z"/>
						</g>
					</g>
				</g>
			</g>
		</g>
		<g>
			<path style="fill:#263238;" d="M463.041,275.738c-7.064,0.001-14.169-4.423-17.908-11.397c-3.612-6.74-4.777-14.98-3.197-22.605
				c2.076-10.025,8.699-18.196,16.871-20.815c6.955-2.229,19.376-0.965,25.231,8.813c4.558,7.614,4.078,15.496,4.056,15.828
				c-0.113,1.653-1.536,2.897-3.197,2.789c-1.649-0.113-2.896-1.538-2.79-3.188c0.007-0.121,0.327-6.426-3.217-12.347
				c-4.52-7.552-14.426-7.407-18.252-6.181c-6.99,2.24-11.479,9.81-12.827,16.318c-1.299,6.271-0.348,13.033,2.611,18.554
				c2.952,5.509,8.919,8.928,14.212,8.111c1.626-0.251,3.169,0.873,3.42,2.512c0.251,1.638-0.874,3.169-2.512,3.42
				C464.712,275.676,463.877,275.738,463.041,275.738z"/>
		</g>
		<g>
			<path style="fill:#263238;" d="M269.316,275.738c-7.064,0.001-14.168-4.423-17.907-11.397
				c-3.612-6.739-4.778-14.979-3.198-22.605c1.748-8.438,7.668-18.154,16.954-20.84c4.231-1.223,9.324-0.961,13.624,0.697
				l-2.161,5.598c-3.672-1.418-7.467-1.204-9.795-0.531c-6.886,1.992-11.364,9.619-12.746,16.294
				c-1.299,6.271-0.347,13.034,2.611,18.554c2.955,5.51,8.935,8.929,14.212,8.111l0.909,5.932
				C270.989,275.676,270.152,275.738,269.316,275.738z"/>
		</g>
		<g>
			<polygon style="fill:#0F4C81;" points="460.528,245.711 457.772,260.822 498.38,260.822 501.985,245.862 			"/>
		</g>
		<g>
			<path style="fill:#263238;" d="M279.612,273.351c0,3.565-2.89,6.456-6.456,6.456c-3.565,0-6.456-2.89-6.456-6.456
				c0-3.565,2.89-6.456,6.456-6.456C276.721,266.895,279.612,269.785,279.612,273.351z"/>
		</g>
		<g>
			<path style="fill:#263238;" d="M473.122,273.351c0,3.565-2.89,6.456-6.456,6.456c-3.565,0-6.456-2.89-6.456-6.456
				c0-3.565,2.89-6.456,6.456-6.456C470.232,266.895,473.122,269.785,473.122,273.351z"/>
		</g>
	</g>
</g>
<g id="Character">
	<g>
		<g>
			<g>
				<polygon style="fill:#FFBE9D;" points="366.547,148.32 355.927,188.605 319.271,192.536 319.271,199.042 370.783,200.852 
					380.464,155.662 				"/>
			</g>
		</g>
	</g>
	<g>
		<g>
			<g>
				<path style="fill:#263238;" d="M382.012,201.92c0,0-57.277-2.728-73.595,10.042c-16.318,12.77-8.471,33.586-8.471,33.586
					l92.187-0.241l8.134-46.723L382.012,201.92z"/>
			</g>
			<g>
				<g>
					<path style="fill:#455A64;" d="M391.746,232.75c-0.002,0.018-0.286-0.002-0.824-0.058c-0.538-0.058-1.331-0.139-2.349-0.272
						c-2.038-0.255-4.981-0.672-8.603-1.284c-7.243-1.214-17.195-3.3-27.954-6.461c-5.376-1.59-10.461-3.2-15.164-4.362
						c-4.703-1.14-9.016-1.878-12.672-2.02c-3.652-0.159-6.619,0.104-8.627,0.493c-1.017,0.13-1.777,0.381-2.309,0.473
						c-0.528,0.115-0.808,0.166-0.813,0.149c-0.005-0.017,0.265-0.103,0.786-0.251c0.525-0.125,1.281-0.409,2.298-0.57
						c2.008-0.452,4.996-0.775,8.68-0.662c3.688,0.097,8.039,0.802,12.771,1.922c4.73,1.142,9.83,2.742,15.197,4.329
						c10.737,3.155,20.655,5.293,27.872,6.598c3.608,0.657,6.54,1.13,8.568,1.446c0.976,0.154,1.754,0.277,2.335,0.369
						C391.469,232.677,391.748,232.732,391.746,232.75z"/>
				</g>
			</g>
			<g>
				<g>
					<path style="fill:#455A64;" d="M338.512,220.042c-0.115,0.12-2.036-1.957-5.076-3.529c-3.024-1.605-5.824-2.003-5.791-2.166
						c0.008-0.063,0.717-0.047,1.838,0.184c1.119,0.228,2.642,0.709,4.195,1.521c1.551,0.815,2.813,1.793,3.637,2.583
						C338.142,219.426,338.559,220,338.512,220.042z"/>
				</g>
			</g>
		</g>
		<g>
			<g>
				<path style="fill:#0F4C81;" d="M388.067,326.426l0.771,24.078l-4.882,19.221c-0.352,1.385,0.543,2.779,1.949,3.036l0,0
					c0.788,0.144,1.59-0.097,2.162-0.656c3.644-3.559,16.984-16.719,16.829-18.478c-0.18-2.037,0.873-25.453,0.873-25.453
					L388.067,326.426z"/>
			</g>
			<g style="opacity:0.6;">
				<path style="fill:#FFFFFF;" d="M385.905,372.76L404.882,352l0.009,1.021c0.008,0.882-0.293,1.74-0.859,2.417
					c-1.513,1.811-5.801,6.722-15.892,16.666C387.554,372.682,386.712,372.93,385.905,372.76L385.905,372.76z"/>
			</g>
			<g style="opacity:0.6;">
				<g>
					<path style="fill:#FFFFFF;" d="M399.867,344.274c-0.6,0.423-0.789,1.337-0.391,1.954c0.398,0.617,1.327,0.817,1.934,0.404
						c0.607-0.412,0.867-1.503,0.403-2.071c-0.464-0.568-1.568-0.744-2.058-0.198"/>
				</g>
			</g>
			<g>
				<g>
					<path style="fill:#263238;" d="M391.315,362.185c-0.136,0.068-0.69-1.189-2.129-1.854c-1.419-0.708-2.747-0.357-2.778-0.505
						c-0.022-0.059,0.282-0.249,0.845-0.334c0.558-0.088,1.374-0.016,2.163,0.362c0.788,0.38,1.353,0.973,1.633,1.463
						C391.334,361.809,391.375,362.164,391.315,362.185z"/>
				</g>
			</g>
			<g>
				<g>
					<path style="fill:#263238;" d="M389.629,365.426c-0.114,0.105-0.894-0.671-2.143-1.016c-1.242-0.373-2.315-0.132-2.355-0.282
						c-0.071-0.122,1.084-0.644,2.502-0.227C389.055,364.303,389.754,365.36,389.629,365.426z"/>
				</g>
			</g>
			<g>
				<g>
					<path style="fill:#263238;" d="M394.472,358.021c-0.112,0.116-1.306-1.084-3.202-1.792c-1.885-0.737-3.575-0.64-3.581-0.8
						c-0.04-0.128,1.746-0.479,3.77,0.306C393.49,356.499,394.587,357.952,394.472,358.021z"/>
				</g>
			</g>
			<g>
				<g>
					<path style="fill:#263238;" d="M394.849,350.682c-0.063,0.145-1.399-0.399-3.131-0.446c-1.732-0.07-3.101,0.382-3.154,0.233
						c-0.068-0.117,1.311-0.833,3.172-0.762C393.597,349.762,394.924,350.569,394.849,350.682z"/>
				</g>
			</g>
			<g>
				<g>
					<path style="fill:#263238;" d="M394.802,343.608c-0.073,0.14-1.419-0.651-3.247-0.551c-1.831,0.06-3.102,0.965-3.187,0.832
						c-0.04-0.05,0.22-0.355,0.773-0.681c0.548-0.326,1.406-0.634,2.391-0.679c0.985-0.041,1.867,0.191,2.441,0.468
						C394.551,343.274,394.837,343.554,394.802,343.608z"/>
				</g>
			</g>
			<g>
				<g>
					<path style="fill:#263238;" d="M391.585,341.711c-0.031,0.001-0.088-0.323-0.041-0.911c0.048-0.584,0.21-1.444,0.702-2.393
						c0.256-0.45,0.522-1.028,1.191-1.351c0.333-0.163,0.832-0.106,1.12,0.211c0.286,0.308,0.379,0.702,0.391,1.084
						c-0.011,1.529-1.31,3.02-3.028,3.256c-1.725,0.205-3.298-0.767-3.994-2.081c-0.153-0.341-0.26-0.759-0.077-1.167
						c0.18-0.412,0.668-0.58,1.013-0.524c0.717,0.1,1.172,0.508,1.595,0.81c0.836,0.66,1.356,1.357,1.661,1.857
						c0.306,0.503,0.405,0.816,0.378,0.829c-0.084,0.064-0.62-1.178-2.263-2.386c-0.414-0.278-0.892-0.629-1.407-0.672
						c-0.251-0.022-0.466,0.079-0.554,0.282c-0.09,0.195-0.037,0.497,0.095,0.764c0.588,1.075,2.028,1.96,3.484,1.764
						c1.449-0.184,2.59-1.496,2.61-2.727c0.001-0.296-0.081-0.594-0.241-0.768c-0.158-0.172-0.395-0.217-0.617-0.125
						c-0.467,0.193-0.777,0.702-1.03,1.126C391.575,340.365,391.692,341.734,391.585,341.711z"/>
				</g>
			</g>
		</g>
		<g>
			<path style="fill:#263238;" d="M400.268,198.583c0,0-24.771,46.827-25.11,54.971c-0.339,8.144,0,83.474,0,83.474h38.344
				c1.018,0,6.745-33.933,5.578-41.737c-1.167-7.805-5.3-49.793-5.3-49.793h22.058c0,0,6.049-6.466,5.827-14.679
				c-0.122-4.526-3.083-13.793-6.027-18.699c-1.888-3.147-13.993-19.645-13.993-19.645L400.268,198.583z"/>
		</g>
		<g>
			<g>
				<path style="fill:#455A64;" d="M398.609,201.748c0.008,0.004-0.029,0.095-0.108,0.269c-0.095,0.199-0.214,0.451-0.364,0.764
					c-0.347,0.701-0.829,1.676-1.443,2.916c-0.64,1.273-1.415,2.815-2.312,4.598c-0.451,0.898-0.933,1.856-1.443,2.871
					c-0.478,1.034-0.982,2.126-1.512,3.271c-2.133,4.592-4.665,10.044-7.475,16.095c-1.412,3.027-2.894,6.204-4.43,9.496
					c-0.765,1.646-1.543,3.32-2.333,5.02c-0.74,1.706-1.317,3.512-1.702,5.381c-0.394,1.874-0.554,3.748-0.584,5.627
					c-0.069,1.874-0.1,3.722-0.135,5.538c-0.049,3.633-0.071,7.138-0.062,10.477c0.01,6.679,0.081,12.693,0.149,17.744
					c0.076,5.022,0.137,9.1,0.181,11.963c0.016,1.383,0.029,2.472,0.038,3.253c-0.001,0.348-0.001,0.626-0.002,0.846
					c-0.003,0.191-0.009,0.289-0.018,0.289c-0.009,0-0.021-0.097-0.035-0.287c-0.013-0.22-0.029-0.498-0.05-0.845
					c-0.033-0.781-0.078-1.869-0.136-3.251c-0.103-2.824-0.229-6.91-0.346-11.962c-0.115-5.051-0.225-11.067-0.261-17.75
					c-0.022-3.341-0.011-6.849,0.032-10.486c0.031-1.819,0.06-3.669,0.127-5.548c0.027-1.875,0.19-3.813,0.592-5.714
					c0.393-1.905,0.982-3.746,1.737-5.483c0.794-1.703,1.577-3.381,2.347-5.03c1.546-3.289,3.037-6.462,4.459-9.486
					c2.849-6.033,5.415-11.47,7.577-16.049c0.541-1.14,1.057-2.227,1.545-3.256c0.523-1.009,1.017-1.962,1.479-2.855
					c0.928-1.769,1.729-3.297,2.392-4.561c0.65-1.221,1.162-2.182,1.53-2.872c0.168-0.304,0.303-0.548,0.41-0.741
					C398.549,201.827,398.601,201.744,398.609,201.748z"/>
			</g>
		</g>
		<g>
			<g>
				<path style="fill:#455A64;" d="M390.592,217.703c-0.142,0.038-0.973-2.6-1.995-5.85c-1.018-3.253-1.843-5.892-1.704-5.941
					c0.132-0.048,1.179,2.522,2.201,5.786C390.119,214.959,390.728,217.667,390.592,217.703z"/>
			</g>
		</g>
		<g>
			<g>
				<path style="fill:#455A64;" d="M419.155,293.85c-0.018,0.002-0.055-0.181-0.111-0.531c-0.058-0.409-0.129-0.916-0.216-1.534
					c-0.174-1.41-0.411-3.322-0.7-5.653c-0.548-4.847-1.292-11.415-2.113-18.672c-0.805-7.297-1.49-13.906-1.891-18.698
					c-0.197-2.34-0.358-4.26-0.477-5.675c-0.042-0.623-0.076-1.134-0.103-1.546c-0.018-0.354-0.019-0.541-0.001-0.542
					c0.018-0.002,0.054,0.182,0.105,0.532c0.053,0.409,0.12,0.917,0.201,1.536c0.16,1.411,0.377,3.326,0.642,5.659
					c0.53,4.848,1.249,11.419,2.043,18.68c0.762,7.262,1.452,13.834,1.961,18.685c0.221,2.338,0.402,4.257,0.535,5.671
					c0.048,0.623,0.087,1.133,0.119,1.545C419.17,293.661,419.173,293.848,419.155,293.85z"/>
			</g>
		</g>
	</g>
	<g>
		<g>
			<path style="fill:#263238;" d="M409.416,73.162c-0.585-3.954,2.84-7.848,6.808-8.324c3.968-0.476,7.943,2.053,9.769,5.609
				c1.826,3.556,1.7,7.9,0.296,11.642c-0.949,2.528-2.846,5.094-5.539,5.292c-2.593,0.19-4.748-1.853-6.533-3.743"/>
		</g>
		<g>
			<path style="fill:#263238;" d="M381.267,92.976c-7.97-17.529,10.988-26.335,21.332-23.414
				c9.722,2.746,13.868,7.584,15.468,14.086c1.6,6.505,1.524,13.55-1.026,19.745c-1.257,3.055-3.521,6.159-6.802,6.54"/>
		</g>
		<g>
			<g>
				<g>
					<g>
						<g>
							<g>
								<g>
									<g>
										<g>
											<g>
												<g>
													<g>
														<g>
															<g>
																<path style="fill:#FFBE9D;" d="M408.799,79.308c1.706,0.18,2.99,1.636,2.956,3.351l0,0l-1.872,44.62
																	c-0.071,5.269-7.767,8.247-13.408,8.128l0,0c-5.697-0.12-5.887-2.914-5.97-7.926
																	c-0.138-8.375-0.135-11.519-0.138-11.471c0,0-7.199-1.195-8.691-10.588c-0.742-4.671-0.507-12.33-0.113-18.59
																	c0.355-5.635,4.089-12.549,9.703-11.955L408.799,79.308z"/>
															</g>
														</g>
													</g>
												</g>
											</g>
										</g>
									</g>
									<g>
										<g>
											<g>
												<g>
													<g>
														<g>
															<g>
																<g>
																	<path style="fill:#263238;" d="M385.206,92.17c-0.023,0.636,0.498,1.18,1.162,1.215
																		c0.663,0.035,1.219-0.45,1.242-1.086c0.022-0.636-0.498-1.18-1.16-1.216
																		C385.785,91.048,385.228,91.534,385.206,92.17z"/>
																</g>
															</g>
														</g>
													</g>
												</g>
											</g>
										</g>
										<g>
											<g>
												<g>
													<g>
														<g>
															<g>
																<g>
																	<g>
																		<path style="fill:#263238;" d="M383.225,90.816c0.149,0.157,1.062-0.518,2.358-0.515
																			c1.295-0.015,2.246,0.652,2.387,0.493c0.069-0.07-0.083-0.354-0.497-0.656c-0.408-0.3-1.103-0.592-1.911-0.589
																			c-0.807,0.004-1.487,0.302-1.877,0.606C383.286,90.461,383.151,90.745,383.225,90.816z"/>
																	</g>
																</g>
															</g>
														</g>
													</g>
												</g>
											</g>
										</g>
									</g>
									<g>
										<g>
											<g>
												<g>
													<g>
														<g>
															<g>
																<g>
																	<path style="fill:#263238;" d="M397.878,92.17c-0.023,0.636,0.498,1.18,1.161,1.215
																		c0.663,0.035,1.219-0.45,1.242-1.086c0.022-0.636-0.498-1.18-1.16-1.216
																		C398.457,91.048,397.9,91.534,397.878,92.17z"/>
																</g>
															</g>
														</g>
													</g>
												</g>
											</g>
										</g>
										<g>
											<g>
												<g>
													<g>
														<g>
															<g>
																<g>
																	<g>
																		<path style="fill:#263238;" d="M395.966,91.058c0.15,0.157,1.063-0.518,2.359-0.515
																			c1.295-0.015,2.246,0.652,2.387,0.493c0.069-0.07-0.082-0.354-0.497-0.655c-0.408-0.3-1.103-0.592-1.911-0.589
																			c-0.807,0.005-1.486,0.302-1.877,0.606C396.029,90.703,395.893,90.987,395.966,91.058z"/>
																	</g>
																</g>
															</g>
														</g>
													</g>
												</g>
											</g>
										</g>
									</g>
									<g>
										<g>
											<g>
												<g>
													<g>
														<g>
															<g>
																<g>
																	<path style="fill:#263238;" d="M391.262,100.671c0.006-0.074-0.8-0.213-2.105-0.38
																		c-0.331-0.034-0.644-0.1-0.7-0.326c-0.078-0.239,0.061-0.596,0.221-0.981c0.311-0.801,0.637-1.64,0.979-2.52
																		c1.359-3.589,2.343-6.539,2.198-6.593c-0.145-0.054-1.365,2.812-2.724,6.4c-0.327,0.885-0.64,1.728-0.938,2.535
																		c-0.125,0.376-0.341,0.803-0.172,1.299c0.089,0.247,0.332,0.427,0.544,0.484c0.212,0.065,0.398,0.068,0.562,0.078
																		C390.442,100.739,391.257,100.744,391.262,100.671z"/>
																</g>
															</g>
														</g>
													</g>
												</g>
											</g>
										</g>
									</g>
									<g>
										<g>
											<g>
												<g>
													<g>
														<g>
															<g>
																<path style="fill:#EB996E;" d="M390.367,116.01c0,0,6.319,0.408,12.579-3.355c0,0-3.052,6.452-12.452,5.573
																	L390.367,116.01z"/>
															</g>
														</g>
													</g>
												</g>
											</g>
										</g>
									</g>
									<g>
										<g>
											<g>
												<g>
													<g>
														<g>
															<g>
																<path style="fill:#EB996E;" d="M391.81,103.795c0.466-0.616,1.283-0.955,2.094-0.867
																	c0.563,0.06,1.131,0.332,1.472,0.79c0.342,0.458,0.413,1.108,0.103,1.545c-0.35,0.492-1.081,0.605-1.699,0.43
																	c-0.619-0.176-1.151-0.583-1.657-0.989c-0.14-0.112-0.283-0.229-0.37-0.383c-0.087-0.154-0.106-0.355,0.002-0.483"
																	/>
															</g>
														</g>
													</g>
												</g>
											</g>
										</g>
									</g>
									<g>
										<g>
											<g>
												<g>
													<g>
														<g>
															<g>
																<g>
																	<path style="fill:#263238;" d="M395.077,101.567c-0.211-0.012-0.214,1.395-1.418,2.393
																		c-1.202,1.002-2.702,0.844-2.713,1.041c-0.02,0.088,0.334,0.273,0.967,0.29c0.621,0.021,1.528-0.178,2.265-0.789
																		c0.735-0.612,1.051-1.43,1.099-2.007C395.33,101.908,395.173,101.559,395.077,101.567z"/>
																</g>
															</g>
														</g>
													</g>
												</g>
											</g>
										</g>
									</g>
								</g>
							</g>
						</g>
						<g>
							<g>
								<g>
									<g>
										<g>
											<g>
												<g>
													<path style="fill:#263238;" d="M395.383,88.788c0.128,0.352,1.422,0.185,2.943,0.369
														c1.525,0.153,2.751,0.598,2.953,0.282c0.09-0.151-0.124-0.483-0.62-0.824c-0.491-0.341-1.276-0.664-2.189-0.766
														c-0.913-0.1-1.749,0.045-2.303,0.271C395.609,88.344,395.328,88.621,395.383,88.788z"/>
												</g>
											</g>
										</g>
									</g>
								</g>
							</g>
						</g>
						<g>
							<g>
								<g>
									<g>
										<g>
											<g>
												<g>
													<path style="fill:#263238;" d="M383.701,87.064c0.228,0.294,1.121-0.011,2.195-0.026
														c1.073-0.052,1.983,0.198,2.192-0.11c0.092-0.15-0.052-0.444-0.449-0.723c-0.392-0.278-1.046-0.505-1.784-0.482
														c-0.738,0.023-1.377,0.29-1.75,0.592C383.725,86.618,383.601,86.921,383.701,87.064z"/>
												</g>
											</g>
										</g>
									</g>
								</g>
							</g>
						</g>
					</g>
				</g>
				<g>
					<g>
						<g>
							<g>
								<path style="fill:#263238;" d="M395.929,71.748c-3.423,0.114-6.02,1.155-9.024,2.799c-3.005,1.644-5.517,4.357-6.442,7.655
									c-0.196,0.7-0.308,1.498,0.075,2.115c0.506,0.816,1.702,0.951,2.576,0.555c0.875-0.395,1.502-1.177,2.095-1.932
									c0.444,1.723,2.154,3.033,3.933,3.013c1.78-0.02,3.46-1.367,3.865-3.1c0.014,1.803,1.818,3.294,3.621,3.23
									c1.802-0.065,3.398-1.455,3.998-3.156c0.335,1.603,0.693,3.258,1.652,4.586c0.959,1.327,2.696,2.24,4.253,1.732
									c-0.221,1.4-0.435,2.874,0.062,4.201c0.497,1.327,2.49,23.916,3.83,23.456c1.302-0.447,1.288-23.502,1.592-24.844
									c0.587-2.587,1.089-5.221,1.007-7.872c-0.083-2.652-0.792-5.349-2.418-7.445c-1.682-2.169-4.231-3.544-6.885-4.245
									c-2.654-0.701-5.43-0.779-8.174-0.744"/>
							</g>
						</g>
					</g>
				</g>
			</g>
		</g>
		<g>
			<g>
				<path style="fill:#263238;" d="M414.751,112.89c0.005,0.017-0.092,0.062-0.287,0.133c-0.193,0.071-0.489,0.154-0.879,0.209
					c-0.773,0.123-1.951,0.116-3.298-0.335c-1.333-0.433-2.87-1.396-3.863-3.028c-1.021-1.606-1.406-3.748-1.237-5.881
					c0.155-2.145,0.65-4.105,0.883-5.907c0.255-1.803,0.37-3.442,0.418-4.819c0.044-1.378,0.027-2.496,0.009-3.269
					c-0.017-0.773-0.028-1.202,0.011-1.205c0.033-0.003,0.112,0.42,0.192,1.193c0.08,0.773,0.154,1.896,0.156,3.287
					c-0.001,1.391-0.079,3.049-0.311,4.877c-0.212,1.833-0.691,3.801-0.839,5.879c-0.162,2.067,0.193,4.077,1.127,5.596
					c0.907,1.54,2.313,2.47,3.577,2.931c1.271,0.474,2.397,0.539,3.153,0.481C414.325,112.974,414.738,112.844,414.751,112.89z"/>
			</g>
		</g>
		<g>
			<g>
				<path style="fill:#455A64;" d="M392.62,70.538c0.043-0.023,0.461,0.79,0.486,2.23c0.038,1.409-0.454,3.49-2.002,5.108
					c-1.559,1.608-3.62,2.178-5.03,2.193c-1.44,0.029-2.269-0.358-2.247-0.402c0.019-0.092,0.864,0.156,2.225,0.034
					c1.339-0.106,3.237-0.701,4.677-2.187c1.43-1.494,1.953-3.413,2.009-4.755C392.808,71.396,392.529,70.561,392.62,70.538z"/>
			</g>
		</g>
		<g>
			<g>
				<path style="fill:#455A64;" d="M394.018,81.597c0.051,0.008-0.066,0.648-0.785,1.342c-0.698,0.688-2.027,1.301-3.543,1.21
					c-1.505-0.099-2.732-0.721-3.533-1.213c-0.808-0.504-1.242-0.9-1.205-0.955c0.043-0.065,0.551,0.223,1.382,0.632
					c0.828,0.401,2.013,0.927,3.387,1.016c1.365,0.081,2.58-0.413,3.271-0.969C393.701,82.106,393.937,81.555,394.018,81.597z"/>
			</g>
		</g>
		<g>
			<g>
				<path style="fill:#455A64;" d="M416.648,78.729c0.061,0.006,0.068,0.991-0.177,2.569c-0.253,1.556-0.791,3.793-2.3,5.788
					c-1.532,1.997-3.766,2.966-5.383,3.064c-0.814,0.058-1.474-0.047-1.903-0.188c-0.431-0.137-0.647-0.263-0.636-0.291
					c0.025-0.104,0.963,0.318,2.5,0.112c1.511-0.183,3.574-1.145,5.009-3.015c1.428-1.884,2.012-4.024,2.352-5.541
					C416.443,79.694,416.567,78.719,416.648,78.729z"/>
			</g>
		</g>
		<g>
			<g>
				<path style="fill:#455A64;" d="M418.368,83.284c0.034-0.003,0.095,0.277,0.15,0.791c0.054,0.514,0.096,1.262,0.054,2.19
					c-0.087,1.818-0.577,4.532-2.504,6.738c-0.949,1.085-2.13,1.887-3.333,2.27c-1.202,0.388-2.366,0.385-3.289,0.199
					c-0.928-0.193-1.619-0.553-2.041-0.862c-0.425-0.309-0.603-0.542-0.585-0.561c0.054-0.093,0.903,0.783,2.69,1.06
					c0.878,0.13,1.966,0.093,3.073-0.291c1.105-0.378,2.2-1.135,3.094-2.158c1.816-2.075,2.35-4.645,2.529-6.423
					C418.373,84.429,418.28,83.289,418.368,83.284z"/>
			</g>
		</g>
	</g>
	<g>
		<g>
			<g>
				<polygon style="fill:#455A64;" points="286.562,204.152 268.406,245.658 293.399,245.658 311.196,203.822 				"/>
			</g>
		</g>
		<g>
			<g>
				<g>
					<g>
						<path style="fill:#E0E0E0;" d="M273.356,160.02l20.477,40.258h64.559l-2.613-5.259l-18.703-0.556l-15.244-33.942
							c-0.948-2.11-3.046-3.468-5.359-3.468h-41.297C273.652,157.052,272.665,158.661,273.356,160.02z"/>
					</g>
				</g>
			</g>
			<g>
				<g>
					<g>
						<path style="fill:#263238;" d="M305.686,178.047c0,1.364-1.106,2.47-2.47,2.47c-1.364,0-2.47-1.106-2.47-2.47
							c0-1.364,1.106-2.47,2.47-2.47C304.581,175.577,305.686,176.683,305.686,178.047z"/>
					</g>
				</g>
			</g>
		</g>
		<g>
			<g>
				<rect x="286.352" y="200.342" style="fill:#455A64;" width="78.92" height="3.85"/>
			</g>
		</g>
		<g>
			<g>
				<polygon style="fill:#455A64;" points="340.965,202.267 364.969,245.699 376.454,245.699 378.947,240.731 381.252,235.497 
					365.272,204.191 				"/>
			</g>
		</g>
	</g>
	<g>
		<g>
			<path style="fill:#0F4C81;" d="M382.681,127.814c0,0-13.941,4.908-16.94,20.505l14.723,7.343L382.681,127.814z"/>
		</g>
		<g>
			<path style="fill:#0F4C81;" d="M382.681,127.814c0,0-9.756,21.86-9.384,33.792c0.13,4.155,2.856,14.969,2.856,14.969
				l5.065,26.868c0,0,38.809-5.256,39.673-5.256c0.864,0-1.297-22.045-1.297-22.045l6.326-42.371c0,0-2.901-5.771-15.984-7.77
				C402.073,124.801,382.681,127.814,382.681,127.814z"/>
		</g>
		<g>
			<g>
				<path style="fill:#263238;" d="M379.042,140.502c0.089,0.053-0.935,1.674-2.16,4.495c-0.621,1.406-1.239,3.131-1.803,5.08
					c-0.534,1.958-0.996,4.144-1.271,6.47c-0.252,2.329-0.289,4.564-0.206,6.592c0.115,2.026,0.332,3.846,0.624,5.355
					c0.563,3.023,1.2,4.832,1.101,4.863c-0.034,0.012-0.208-0.434-0.494-1.252c-0.149-0.408-0.316-0.911-0.467-1.508
					c-0.156-0.596-0.363-1.268-0.501-2.032c-0.34-1.515-0.598-3.35-0.741-5.4c-0.111-2.051-0.087-4.317,0.168-6.677
					c0.278-2.357,0.761-4.57,1.327-6.544c0.597-1.966,1.258-3.697,1.928-5.098c0.305-0.714,0.657-1.323,0.942-1.869
					c0.28-0.549,0.556-1.002,0.792-1.366C378.742,140.878,379.011,140.483,379.042,140.502z"/>
			</g>
		</g>
		<g>
			<g>
				<path style="fill:none;stroke:#4F595E;stroke-width:0.05;stroke-miterlimit:10;" d="M404.272,171.57"/>
			</g>
		</g>
		<g>
			<g>
				<path style="fill:none;stroke:#4F595E;stroke-width:0.05;stroke-miterlimit:10;" d="M391.184,162.479"/>
			</g>
		</g>
		<g>
			<path style="fill:#0F4C81;" d="M387.396,127.607l0.566-5.983c0.122-1.293,1.198-2.288,2.497-2.309l19.148-0.282
				c1.207-0.018,2.219,0.907,2.311,2.11l0.494,6.464c0,0-2.06,5.073-7.689,7.803c-5.629,2.73-14.38,2.819-14.38,2.819
				L387.396,127.607z"/>
		</g>
		<g>
			<g>
				<path style="fill:#263238;" d="M392.411,119.358c0.062,0.055-0.223,0.389-0.342,1.041c-0.137,0.651-0.042,1.586,0.038,2.66
					c0.145,2.133,0.145,3.869,0.002,3.879c-0.143,0.01-0.377-1.711-0.521-3.844c-0.078-1.05-0.126-2.075,0.125-2.788
					C391.952,119.584,392.378,119.308,392.411,119.358z"/>
			</g>
		</g>
		<g>
			<g>
				<path style="fill:#263238;" d="M396.996,126.78c-0.144,0.008-0.357-1.676-0.477-3.761c-0.047-1.042-0.121-1.983-0.021-2.7
					c0.099-0.719,0.396-1.091,0.451-1.054c0.069,0.035-0.086,0.424-0.084,1.082c-0.003,0.651,0.126,1.598,0.174,2.642
					C397.159,125.074,397.14,126.771,396.996,126.78z"/>
			</g>
		</g>
		<g>
			<g>
				<path style="fill:#263238;" d="M402.748,126.621c-0.143,0.019-0.477-1.619-0.747-3.658c-0.27-2.04-0.373-3.708-0.23-3.727
					c0.142-0.019,0.477,1.619,0.746,3.659C402.787,124.934,402.89,126.602,402.748,126.621z"/>
			</g>
		</g>
		<g>
			<g>
				<path style="fill:#263238;" d="M407.712,127.042c-0.138,0.024-0.551-1.77-0.722-4.028c-0.175-2.258-0.039-4.093,0.101-4.091
					c0.148,0.001,0.245,1.819,0.419,4.051C407.677,125.206,407.857,127.018,407.712,127.042z"/>
			</g>
		</g>
		<g style="opacity:0.3;">
			<g>
				<path d="M411.507,149.906c-0.764,6.738-0.259,18.329,2.119,24.68l11.18-18.466L411.507,149.906z"/>
			</g>
		</g>
		<g>
			<path style="fill:#0F4C81;" d="M424.883,132.411l0.053,0.056c3.17,3.329,5.492,7.373,6.766,11.79l2.055,9.39l-22.003,3.405
				c0,0-1.893-5.227-0.838-12.303S424.883,132.411,424.883,132.411z"/>
		</g>
		<g>
			<g>
				<path style="fill:#263238;" d="M433.758,153.647c0.002,0.016-0.147,0.054-0.434,0.112c-0.342,0.062-0.759,0.139-1.265,0.231
					c-1.177,0.192-2.764,0.451-4.709,0.769c-4.077,0.62-9.64,1.467-15.939,2.425l-0.284,0.043l-0.011-0.288
					c-0.051-1.326-0.088-2.711-0.112-4.124c-0.054-3.697-0.048-7.223,0.212-10.431c0.19-3.232,1.244-6.064,2.561-8.119
					c1.322-2.076,2.919-3.355,4.1-4.023c0.592-0.339,1.08-0.553,1.421-0.663c0.339-0.117,0.519-0.17,0.525-0.153
					c0.022,0.054-0.703,0.278-1.841,0.989c-1.128,0.709-2.643,1.997-3.893,4.045c-1.246,2.037-2.233,4.785-2.395,7.963
					c-0.23,3.176-0.223,6.696-0.169,10.383c0.036,1.409,0.072,2.792,0.106,4.113l-0.294-0.244c6.309-0.89,11.88-1.676,15.964-2.253
					c1.954-0.254,3.548-0.461,4.731-0.615c0.511-0.057,0.932-0.104,1.278-0.142C433.602,153.637,433.756,153.631,433.758,153.647z"
					/>
			</g>
		</g>
		<g>
			<g>
				<path style="fill:#FAFAFA;" d="M387.292,139.858c-0.095,0.108-1.468-0.953-3.064-2.37c-1.597-1.417-2.815-2.652-2.719-2.759
					c0.095-0.107,1.467,0.953,3.065,2.37C386.17,138.515,387.388,139.751,387.292,139.858z"/>
			</g>
		</g>
		<g>
			<g>
				<path style="fill:#FAFAFA;" d="M384.321,151.434c0.076,0.122-1.131,1.008-2.696,1.979c-1.565,0.971-2.895,1.658-2.971,1.536
					c-0.076-0.122,1.131-1.008,2.696-1.979C382.915,151.999,384.245,151.311,384.321,151.434z"/>
			</g>
		</g>
		<g>
			<g>
				<path style="fill:#FAFAFA;" d="M396.587,154.279c-0.144-0.009-0.145-1.924-0.003-4.277c0.142-2.354,0.373-4.255,0.517-4.247
					c0.143,0.009,0.145,1.924,0.003,4.278C396.962,152.387,396.731,154.288,396.587,154.279z"/>
			</g>
		</g>
		<g>
			<g>
				<path style="fill:#FAFAFA;" d="M408.521,165.853c-0.122,0.086-1.261-1.353-2.784-3.013c-1.517-1.667-2.848-2.93-2.751-3.044
					c0.087-0.107,1.591,0.997,3.135,2.693C407.67,164.178,408.635,165.776,408.521,165.853z"/>
			</g>
		</g>
		<g>
			<g>
				<path style="fill:#FAFAFA;" d="M410.203,141.664c0.08,0.119-1.226,1.137-2.917,2.272c-1.691,1.136-3.127,1.96-3.207,1.84
					s1.225-1.137,2.917-2.272C408.687,142.369,410.122,141.545,410.203,141.664z"/>
			</g>
		</g>
		<g>
			<g>
				<path style="fill:#FAFAFA;" d="M399.425,132.911c0.078,0.121-1.348,1.174-3.183,2.352c-1.836,1.178-3.387,2.034-3.464,1.913
					c-0.078-0.121,1.347-1.174,3.183-2.352C397.796,133.647,399.347,132.79,399.425,132.911z"/>
			</g>
		</g>
		<g>
			<g>
				<path style="fill:#FAFAFA;" d="M409.143,136.391c-0.134,0.053-0.813-1.355-1.518-3.145c-0.704-1.79-1.167-3.283-1.033-3.336
					c0.134-0.053,0.813,1.355,1.518,3.145C408.814,134.844,409.276,136.338,409.143,136.391z"/>
			</g>
		</g>
		<g>
			<g>
				<path style="fill:#FAFAFA;" d="M422.51,140.775c-0.102,0.102-1.101-0.73-2.233-1.858c-1.132-1.128-1.967-2.125-1.866-2.227
					c0.101-0.102,1.101,0.73,2.233,1.858C421.776,139.676,422.611,140.673,422.51,140.775z"/>
			</g>
		</g>
		<g>
			<g>
				<path style="fill:#FAFAFA;" d="M417.027,150.527c-0.144,0.008-0.336-1.36-0.43-3.054c-0.094-1.695-0.054-3.075,0.09-3.083
					c0.144-0.008,0.336,1.359,0.43,3.054C417.211,149.138,417.171,150.519,417.027,150.527z"/>
			</g>
		</g>
		<g>
			<g>
				<path style="fill:#FAFAFA;" d="M428.111,148.507c-0.006,0.14-1.583,0.179-3.497-0.116c-1.916-0.29-3.409-0.798-3.373-0.934
					c0.037-0.143,1.565,0.133,3.451,0.419C426.577,148.167,428.119,148.359,428.111,148.507z"/>
			</g>
		</g>
		<g>
			<g>
				<path style="fill:#FAFAFA;" d="M383.309,168.658c-0.13,0.061-1.03-1.572-2.01-3.647c-0.98-2.076-1.669-3.808-1.539-3.869
					s1.03,1.571,2.01,3.647C382.75,166.864,383.439,168.596,383.309,168.658z"/>
			</g>
		</g>
		<g>
			<g>
				<path style="fill:#FAFAFA;" d="M397.949,184.436c-0.116,0.085-1.206-1.219-2.434-2.91c-1.228-1.692-2.129-3.132-2.013-3.217
					c0.116-0.084,1.206,1.218,2.434,2.911C397.164,182.912,398.066,184.352,397.949,184.436z"/>
			</g>
		</g>
		<g>
			<g>
				<path style="fill:#FAFAFA;" d="M410.141,177.819c0.052,0.134-1.435,0.833-3.32,1.56c-1.886,0.728-3.456,1.209-3.508,1.074
					c-0.052-0.134,1.435-0.833,3.321-1.56C408.518,178.166,410.089,177.685,410.141,177.819z"/>
			</g>
		</g>
		<g>
			<g>
				<path style="fill:#FAFAFA;" d="M380.227,190.605c-0.131-0.059,0.299-1.29,0.96-2.748c0.661-1.459,1.303-2.593,1.434-2.534
					c0.131,0.059-0.299,1.29-0.96,2.748C381,189.53,380.358,190.664,380.227,190.605z"/>
			</g>
		</g>
		<g>
			<g>
				<path style="fill:#FAFAFA;" d="M370.819,145.413c-0.124,0.058-0.727-1.044-0.967-2.555c-0.248-1.511-0.021-2.746,0.115-2.73
					c0.15,0.011,0.162,1.208,0.399,2.647C370.593,144.215,370.958,145.355,370.819,145.413z"/>
			</g>
		</g>
		<g>
			<g>
				<path style="fill:#FAFAFA;" d="M387.525,180.485c-0.07,0.126-1.398-0.479-2.966-1.35c-1.569-0.872-2.784-1.68-2.714-1.805
					c0.07-0.126,1.398,0.479,2.967,1.35C386.38,179.551,387.595,180.359,387.525,180.485z"/>
			</g>
		</g>
		<g>
			<g>
				<path style="fill:#FAFAFA;" d="M397.184,163.818c0.097,0.107-1.092,1.342-2.656,2.759c-1.564,1.417-2.909,2.48-3.006,2.373
					c-0.096-0.107,1.092-1.342,2.656-2.759C395.741,164.774,397.087,163.712,397.184,163.818z"/>
			</g>
		</g>
		<g style="opacity:0.3;">
			<g>
				<path d="M391.267,163.509c0.627,3.437,1.944,6.868,4.45,9.303s6.37,3.667,9.624,2.394c0.684-0.267,1.391-0.718,1.552-1.434
					c0.186-0.828-0.475-1.648-1.258-1.977c-0.783-0.329-1.66-0.304-2.508-0.35c-4.836-0.266-9.433-3.241-11.655-7.544"/>
			</g>
		</g>
		<g>
			<g>
				<path style="fill:#263238;" d="M404.272,171.57c0.003,0.036-0.235,0.076-0.672,0.117c-0.436,0.053-1.076,0.044-1.857-0.041
					c-0.785-0.077-1.705-0.291-2.692-0.633c-0.977-0.366-2.015-0.875-3.011-1.557c-0.987-0.696-1.826-1.491-2.51-2.279
					c-0.665-0.805-1.187-1.593-1.533-2.301c-0.353-0.703-0.584-1.299-0.687-1.726c-0.114-0.424-0.159-0.661-0.125-0.671
					c0.092-0.029,0.367,0.897,1.134,2.221c0.376,0.665,0.911,1.404,1.572,2.163c0.68,0.743,1.496,1.496,2.446,2.167
					c0.96,0.656,1.95,1.158,2.883,1.535c0.942,0.354,1.821,0.598,2.576,0.718C403.302,171.54,404.267,171.474,404.272,171.57z"/>
			</g>
		</g>
	</g>
	<g>
		<g>
			<g>
				<g>
					<path style="fill:#FFBE9D;" d="M349.217,187.686l14.486-1.741l10.207,6.693l39.032-9.355l0.923-26.718l17.33-2.285v32.351
						c-0.173,8.23-7.014,14.744-15.242,14.517l-57.167-1.583l-2.427-4.865l-12.265-0.365L349.217,187.686z"/>
				</g>
			</g>
		</g>
		<g>
			<g>
				<g>
					<g>
						<path style="fill:#EB996E;" d="M412.447,183.283c0.004,0.015-0.249,0.092-0.733,0.223c-0.524,0.137-1.232,0.321-2.124,0.553
							c-1.892,0.471-4.557,1.135-7.832,1.952c-6.66,1.614-15.792,3.827-25.88,6.271c-0.81,0.194-1.614,0.386-2.408,0.577
							l-0.096,0.023l-0.082-0.054c-3.609-2.374-7.046-4.635-10.197-6.707l0.14,0.033c-5.731,0.662-10.694,1.235-14.493,1.675
							l0.095-0.054c-1.62,2.056-2.912,3.697-3.827,4.858c-0.432,0.535-0.774,0.959-1.032,1.279
							c-0.238,0.287-0.366,0.432-0.377,0.424c-0.011-0.008,0.097-0.169,0.314-0.472c0.243-0.331,0.566-0.77,0.974-1.324
							c0.89-1.181,2.147-2.848,3.723-4.938l0.035-0.047l0.06-0.008c3.796-0.474,8.753-1.093,14.477-1.808l0.075-0.009l0.065,0.042
							c3.157,2.064,6.6,4.314,10.216,6.678l-0.177-0.031c0.794-0.191,1.598-0.383,2.408-0.577c10.1-2.394,19.244-4.562,25.912-6.142
							c3.29-0.758,5.966-1.374,7.866-1.811c0.9-0.197,1.615-0.354,2.144-0.47C412.183,183.314,412.443,183.267,412.447,183.283z"/>
					</g>
				</g>
			</g>
		</g>
		<g>
			<g>
				<g>
					<g>
						<path style="fill:#EB996E;" d="M357.131,191.836c0,0.125-2.519,0.227-5.626,0.227c-0.352-0.001-0.695-0.003-1.029-0.004
							l0.145-0.053c-2.007,1.681-3.576,2.892-3.648,2.807c-0.072-0.085,1.376-1.437,3.358-3.148l0.061-0.053l0.083,0
							c0.335-0.001,0.678-0.003,1.029-0.004C354.612,191.609,357.131,191.711,357.131,191.836z"/>
					</g>
				</g>
			</g>
		</g>
		<g>
			<g>
				<g>
					<g>
						<path style="fill:#EB996E;" d="M419.635,187.646c-0.12,0.074-0.871-1.756-2.844-2.968c-1.947-1.254-3.921-1.14-3.907-1.28
							c-0.005-0.051,0.474-0.163,1.26-0.099c0.782,0.06,1.863,0.351,2.889,0.994c1.023,0.647,1.753,1.495,2.146,2.174
							C419.577,187.149,419.683,187.629,419.635,187.646z"/>
					</g>
				</g>
			</g>
		</g>
	</g>
</g>
<g id="Plant">
	<g>
		<g>
			<g>
				<rect x="104.251" y="401.273" style="fill:#263238;" width="65.302" height="8.973"/>
			</g>
			<g>
				<path style="fill:#263238;" d="M169.664,410.357h-65.524v-9.196h65.524V410.357z M104.363,410.134h65.078v-8.75h-65.078V410.134
					z"/>
			</g>
		</g>
		<g>
			<g>
				<polygon style="fill:#263238;" points="110.305,407.259 119.705,453.63 154.484,453.63 163.57,410.245 				"/>
			</g>
		</g>
		<g>
			<g>
				<polygon style="fill:#455A64;" points="110.305,449.244 115.319,456.137 157.592,456.137 163.57,449.244 				"/>
			</g>
		</g>
		<g>
			<g>
				<g>
					<path style="fill:#263238;" d="M134.449,408.613c-0.128,0-0.293-21.482-0.368-47.977c-0.075-26.504-0.031-47.983,0.098-47.983
						c0.128,0,0.293,21.478,0.368,47.982C134.622,387.129,134.578,408.613,134.449,408.613z"/>
				</g>
			</g>
		</g>
		<g>
			<g>
				<g>
					<path style="fill:#263238;" d="M148.996,354.853c0.014,0.007-0.047,0.179-0.175,0.5c-0.153,0.365-0.346,0.825-0.583,1.391
						c-0.13,0.306-0.272,0.64-0.426,1.001c-0.135,0.378-0.28,0.785-0.435,1.219c-0.158,0.439-0.326,0.906-0.503,1.399
						c-0.175,0.496-0.312,1.037-0.483,1.595c-0.713,2.226-1.28,4.957-1.826,7.995c-0.475,3.053-0.832,6.435-1.011,9.998
						c-0.318,7.135,0.085,13.604,0.516,18.264c0.21,2.332,0.421,4.216,0.577,5.516c0.067,0.61,0.122,1.107,0.165,1.5
						c0.033,0.344,0.042,0.526,0.026,0.528c-0.016,0.002-0.056-0.175-0.119-0.514c-0.066-0.391-0.149-0.884-0.251-1.489
						c-0.211-1.295-0.472-3.175-0.725-5.508c-0.515-4.661-0.973-11.15-0.654-18.319c0.18-3.58,0.552-6.98,1.053-10.047
						c0.572-3.053,1.177-5.793,1.934-8.022c0.182-0.559,0.331-1.099,0.518-1.594c0.19-0.491,0.37-0.957,0.54-1.395
						c0.168-0.431,0.326-0.835,0.473-1.211c0.161-0.366,0.326-0.693,0.465-0.99c0.27-0.552,0.49-1.002,0.664-1.358
						C148.893,355.004,148.981,354.846,148.996,354.853z"/>
				</g>
			</g>
		</g>
		<g>
			<g>
				<g>
					<path style="fill:#263238;" d="M147.326,337.478c0.015,0.006-0.057,0.25-0.208,0.708c-0.169,0.497-0.395,1.162-0.68,1.997
						c-0.152,0.437-0.318,0.917-0.499,1.439c-0.162,0.536-0.338,1.115-0.525,1.735c-0.382,1.243-0.825,2.656-1.218,4.245
						c-0.209,0.792-0.428,1.621-0.655,2.484c-0.196,0.872-0.401,1.779-0.612,2.716c-0.456,1.87-0.785,3.901-1.206,6.023
						c-0.72,4.267-1.354,8.984-1.791,13.959c-0.413,4.979-0.592,9.737-0.656,14.066c-0.013,4.329,0.042,8.229,0.22,11.499
						c0.058,1.637,0.163,3.114,0.247,4.413c0.075,1.299,0.157,2.417,0.24,3.329c0.067,0.88,0.12,1.581,0.16,2.104
						c0.031,0.482,0.04,0.736,0.024,0.737c-0.016,0.002-0.056-0.249-0.117-0.728c-0.062-0.522-0.144-1.22-0.247-2.097
						c-0.111-0.911-0.219-2.027-0.319-3.326c-0.109-1.298-0.237-2.777-0.316-4.415c-0.22-3.273-0.309-7.181-0.32-11.52
						c0.04-4.339,0.207-9.109,0.62-14.102c0.438-4.989,1.087-9.719,1.832-13.995c0.434-2.126,0.778-4.161,1.252-6.033
						c0.221-0.939,0.434-1.845,0.64-2.718c0.238-0.863,0.467-1.691,0.686-2.483c0.415-1.588,0.881-2.998,1.287-4.237
						c0.201-0.617,0.389-1.193,0.563-1.727c0.196-0.519,0.375-0.996,0.539-1.429c0.319-0.824,0.573-1.48,0.763-1.97
						C147.21,337.705,147.311,337.472,147.326,337.478z"/>
				</g>
			</g>
		</g>
		<g>
			<g>
				<g>
					<path style="fill:#263238;" d="M130.319,412.414c-0.008,0-0.02-0.085-0.037-0.251c-0.016-0.193-0.036-0.436-0.062-0.739
						c-0.046-0.685-0.111-1.636-0.192-2.845c-0.157-2.506-0.38-6.072-0.655-10.464c-0.567-8.833-1.387-21.038-2.873-34.459
						c-0.76-6.71-1.64-13.083-2.556-18.861c-0.487-2.884-0.928-5.629-1.43-8.182c-0.459-2.561-0.954-4.933-1.41-7.097
						c-0.429-2.171-0.908-4.114-1.292-5.829c-0.378-1.717-0.744-3.186-1.05-4.385c-0.288-1.176-0.515-2.102-0.678-2.768
						c-0.068-0.296-0.122-0.534-0.165-0.723c-0.035-0.164-0.049-0.249-0.041-0.251c0.008-0.002,0.037,0.079,0.087,0.238
						c0.055,0.186,0.124,0.42,0.21,0.711c0.184,0.661,0.439,1.58,0.763,2.748c0.333,1.193,0.725,2.657,1.128,4.369
						c0.409,1.711,0.911,3.651,1.361,5.82c0.477,2.163,0.991,4.534,1.467,7.095c0.518,2.553,0.974,5.298,1.474,8.185
						c0.94,5.781,1.835,12.161,2.595,18.878c1.488,13.435,2.256,25.651,2.739,34.491c0.24,4.421,0.407,8,0.507,10.474
						c0.045,1.211,0.08,2.164,0.105,2.849c0.006,0.304,0.012,0.548,0.016,0.742C130.331,412.327,130.327,412.413,130.319,412.414z"
						/>
				</g>
			</g>
		</g>
		<g>
			<g>
				<path style="fill:#0F4C81;" d="M133.917,322.981c-0.284-3.043-3.359-5.339-6.416-5.371c-3.057-0.031-5.905,1.801-7.775,4.22
					c-1.869,2.418-2.9,5.371-3.744,8.309c-2.058,7.17-3.184,14.703-2.303,22.111c0.88,7.408,3.885,14.701,9.201,19.934
					c0.864,0.851,1.984,1.702,3.17,1.449c0.648-0.138,1.18-0.589,1.672-1.033c10.442-9.433,16.472-23.561,16.059-37.627
					c-0.083-2.817-0.452-5.748-2.012-8.095C140.209,324.531,136.572,322.039,133.917,322.981"/>
			</g>
		</g>
		<g>
			<g>
				<g>
					<path style="fill:#0F4C81;" d="M111.093,298.604c-1.435,2.599-2.87,5.198-4.305,7.796c-0.1,0.182-0.233,0.385-0.44,0.403
						c-0.226,0.019-0.395-0.195-0.519-0.385c-3.794-5.822-7.588-11.645-11.381-17.467l2.622-1.486L111.093,298.604z"/>
				</g>
			</g>
			<g style="opacity:0.2;">
				<g>
					<g>
						<path d="M111.093,298.604c-1.435,2.599-2.87,5.198-4.305,7.796c-0.1,0.182-0.233,0.385-0.44,0.403
							c-0.226,0.019-0.395-0.195-0.519-0.385c-3.794-5.822-7.588-11.645-11.381-17.467l2.622-1.486L111.093,298.604z"/>
					</g>
				</g>
			</g>
			<g>
				<g>
					<path style="fill:#0F4C81;" d="M134.179,312.653c-12.941-7.636-25.883-15.273-38.824-22.91
						c-0.396-0.233-0.825-0.51-0.945-0.953c-0.155-0.574,0.276-1.129,0.691-1.556c5.34-5.509,13.096-8.702,20.748-8.151
						c7.652,0.551,15.011,4.971,18.757,11.666C138.352,297.444,138.477,306.297,134.179,312.653"/>
				</g>
			</g>
			<g>
				<g>
					<g>
						<path style="fill:#263238;" d="M100.951,282.431c-0.001-0.016,0.174-0.037,0.509-0.063c0.335-0.017,0.829-0.077,1.467-0.07
							c1.275-0.031,3.131,0.052,5.387,0.428c2.255,0.371,4.904,1.096,7.672,2.33c2.766,1.228,5.628,3.007,8.235,5.343
							c2.586,2.362,4.641,5.033,6.139,7.663c1.504,2.631,2.49,5.195,3.084,7.402c0.598,2.208,0.866,4.045,0.962,5.317
							c0.07,0.634,0.059,1.132,0.076,1.467c0.007,0.336,0.004,0.512-0.012,0.512c-0.041,0.002-0.09-0.701-0.244-1.96
							c-0.15-1.259-0.466-3.073-1.099-5.246c-1.227-4.324-4.077-10.153-9.218-14.81c-5.144-4.649-11.228-6.904-15.653-7.695
							c-2.226-0.413-4.062-0.546-5.33-0.57C101.657,282.45,100.953,282.472,100.951,282.431z"/>
					</g>
				</g>
			</g>
			<g>
				<g>
					<g>
						<path style="fill:#263238;" d="M128.924,296.841c0.022,0.059-0.725,0.405-1.963,0.892c-1.237,0.488-2.965,1.111-4.899,1.725
							c-1.934,0.614-3.706,1.102-4.997,1.418c-1.292,0.316-2.102,0.465-2.118,0.404c-0.017-0.063,0.763-0.325,2.029-0.721
							c1.431-0.447,3.1-0.969,4.945-1.545c1.838-0.593,3.502-1.131,4.929-1.591C128.114,297.016,128.901,296.779,128.924,296.841z"
							/>
					</g>
				</g>
			</g>
			<g>
				<g>
					<g>
						<path style="fill:#263238;" d="M122.811,280.418c0.125-0.012,0.4,1.924,0.459,4.331c0.063,2.407-0.114,4.354-0.24,4.349
							c-0.131-0.005-0.163-1.947-0.225-4.337C122.746,282.371,122.68,280.43,122.811,280.418z"/>
					</g>
				</g>
			</g>
			<g>
				<g>
					<g>
						<path style="fill:#263238;" d="M95.017,289.309c-0.018-0.059,1.056-0.449,2.82-0.992c1.764-0.544,4.22-1.232,6.958-1.893
							c2.74-0.659,5.24-1.165,7.058-1.484c1.818-0.32,2.952-0.462,2.963-0.401c0.012,0.065-1.1,0.322-2.898,0.723
							c-1.798,0.401-4.281,0.956-7.014,1.614c-2.731,0.659-5.194,1.295-6.978,1.757C96.143,289.095,95.036,289.373,95.017,289.309z"
							/>
					</g>
				</g>
			</g>
		</g>
		<g>
			<g>
				<g>
					<path style="fill:#0F4C81;" d="M116.278,315.777c-3.339-2.532-6.87-3.031-11.057-2.865c-4.187,0.166-8.263,1.442-12.101,3.123
						c-6.547,2.867-12.7,7.094-16.612,13.075c-3.912,5.982-5.273,13.9-2.344,20.42c0.292,0.65,0.672,1.328,1.326,1.609
						c0.689,0.295,1.478,0.065,2.191-0.168c7.446-2.429,14.944-4.881,21.791-8.685c6.846-3.804,13.078-9.091,16.752-16.008
						c0.881-1.66,1.619-3.439,1.763-5.312C118.13,319.092,117.612,317.101,116.278,315.777"/>
				</g>
			</g>
			<g>
				<g>
					<g>
						<path style="fill:#263238;" d="M116.344,314.992c0.004,0.015-0.181,0.09-0.536,0.218c-0.403,0.139-0.92,0.316-1.56,0.537
							c-0.344,0.115-0.721,0.241-1.13,0.377c-0.41,0.147-0.846,0.331-1.32,0.514c-0.942,0.381-2.036,0.762-3.187,1.321
							c-0.583,0.266-1.192,0.543-1.826,0.831c-0.633,0.292-1.265,0.652-1.934,0.993c-1.35,0.663-2.715,1.51-4.169,2.368
							c-2.854,1.805-5.876,3.977-8.816,6.538c-2.916,2.591-5.456,5.312-7.61,7.913c-1.037,1.333-2.051,2.58-2.881,3.834
							c-0.423,0.62-0.86,1.201-1.231,1.792c-0.367,0.592-0.72,1.161-1.057,1.705c-0.701,1.071-1.218,2.107-1.716,2.993
							c-0.242,0.447-0.48,0.856-0.678,1.244c-0.187,0.388-0.36,0.745-0.517,1.072c-0.3,0.607-0.542,1.097-0.731,1.479
							c-0.172,0.336-0.269,0.51-0.284,0.504c-0.015-0.006,0.054-0.192,0.198-0.541c0.168-0.392,0.385-0.895,0.653-1.518
							c0.147-0.333,0.308-0.698,0.483-1.094c0.187-0.395,0.414-0.812,0.646-1.266c0.478-0.901,0.977-1.954,1.664-3.041
							c0.331-0.552,0.678-1.13,1.038-1.73c0.365-0.599,0.797-1.189,1.216-1.818c0.821-1.271,1.83-2.535,2.865-3.884
							c2.15-2.634,4.699-5.383,7.636-7.993c2.961-2.579,6.012-4.757,8.898-6.554c1.47-0.854,2.851-1.694,4.217-2.346
							c0.677-0.335,1.317-0.689,1.958-0.974c0.641-0.281,1.258-0.55,1.848-0.809c1.166-0.542,2.274-0.904,3.228-1.263
							c0.48-0.172,0.923-0.345,1.338-0.48c0.414-0.123,0.797-0.236,1.146-0.339c0.652-0.186,1.179-0.337,1.589-0.454
							C116.146,315.021,116.34,314.976,116.344,314.992z"/>
					</g>
				</g>
			</g>
			<g>
				<g>
					<g>
						<path style="fill:#263238;" d="M90.258,329.117c0.036,0.123-3.601,1.295-8.122,2.617c-4.523,1.322-8.217,2.294-8.253,2.171
							c-0.036-0.123,3.6-1.295,8.123-2.617C86.526,329.965,90.221,328.993,90.258,329.117z"/>
					</g>
				</g>
			</g>
			<g>
				<g>
					<g>
						<path style="fill:#263238;" d="M89.924,347.041c-0.063,0.001-0.136-0.966-0.179-2.531c-0.043-1.565-0.05-3.728,0.017-6.115
							c0.067-2.388,0.195-4.547,0.325-6.107c0.13-1.56,0.257-2.521,0.32-2.517c0.065,0.005,0.055,0.973,0.009,2.535
							c-0.053,1.715-0.117,3.798-0.188,6.102c-0.058,2.304-0.11,4.387-0.153,6.102C90.032,346.072,89.989,347.04,89.924,347.041z"/>
					</g>
				</g>
			</g>
			<g>
				<g>
					<g>
						<path style="fill:#263238;" d="M105.278,339.218c-0.128,0.009-0.537-4.386-0.912-9.815c-0.376-5.431-0.576-9.839-0.448-9.848
							c0.128-0.009,0.536,4.385,0.912,9.816C105.205,334.8,105.406,339.21,105.278,339.218z"/>
					</g>
				</g>
			</g>
			<g>
				<g>
					<g>
						<path style="fill:#263238;" d="M86.165,319.129c0.003-0.064,0.998-0.09,2.604-0.079c1.605,0.011,3.821,0.058,6.268,0.139
							c2.447,0.081,4.661,0.18,6.264,0.275c1.603,0.095,2.594,0.186,2.592,0.25c-0.001,0.064-0.994,0.09-2.6,0.078
							c-1.605-0.011-3.823-0.058-6.272-0.139c-2.448-0.081-4.664-0.18-6.267-0.275C87.152,319.284,86.162,319.193,86.165,319.129z"
							/>
					</g>
				</g>
			</g>
		</g>
		<g>
			<g>
				<g>
					<path style="fill:#263238;" d="M124.545,374.275c-0.016,0.001-0.035-0.182-0.056-0.531c-0.018-0.399-0.041-0.904-0.068-1.525
						c-0.058-1.325-0.072-3.245-0.022-5.616c0.042-2.371,0.2-5.193,0.479-8.318c0.302-3.122,0.74-6.545,1.367-10.112
						c0.644-3.564,1.415-6.929,2.21-9.964c0.817-3.029,1.643-5.732,2.423-7.972c0.772-2.242,1.447-4.039,1.96-5.262
						c0.24-0.573,0.436-1.039,0.591-1.408c0.14-0.32,0.22-0.485,0.235-0.479c0.015,0.006-0.037,0.183-0.148,0.513
						c-0.133,0.376-0.302,0.852-0.509,1.438c-0.46,1.241-1.087,3.052-1.817,5.301c-0.737,2.248-1.529,4.952-2.32,7.977
						c-0.769,3.031-1.525,6.386-2.166,9.937c-0.624,3.553-1.073,6.962-1.398,10.072c-0.302,3.112-0.493,5.923-0.577,8.287
						c-0.092,2.363-0.129,4.279-0.126,5.603c-0.008,0.621-0.014,1.126-0.019,1.525C124.574,374.091,124.561,374.275,124.545,374.275
						z"/>
				</g>
			</g>
		</g>
		<g>
			<g>
				<g>
					<path style="fill:#263238;" d="M126.593,347.786c0.044,0.045-0.544,0.698-1.549,1.7c-1.005,1.001-2.431,2.346-4.058,3.773
						c-1.628,1.427-3.148,2.665-4.272,3.53c-1.124,0.865-1.849,1.362-1.888,1.313c-0.041-0.052,0.611-0.639,1.679-1.567
						c1.193-1.036,2.609-2.266,4.174-3.625c1.552-1.374,2.956-2.616,4.139-3.663C125.88,348.308,126.548,347.739,126.593,347.786z"
						/>
				</g>
			</g>
		</g>
		<g>
			<g>
				<g>
					<path style="fill:#263238;" d="M138.882,357.685c-0.056,0.035-0.672-0.848-1.65-2.285c-1.061-1.549-2.379-3.472-3.836-5.599
						c-1.488-2.106-2.833-4.011-3.917-5.544c-1.007-1.416-1.621-2.3-1.569-2.341c0.049-0.038,0.756,0.776,1.832,2.144
						c1.077,1.368,2.517,3.295,4.035,5.476c1.517,2.181,2.822,4.201,3.731,5.686C138.417,356.707,138.935,357.652,138.882,357.685z"
						/>
				</g>
			</g>
		</g>
		<g>
			<g>
				<g>
					<path style="fill:#263238;" d="M132.445,326.553c0.07,0.108-4.013,2.856-9.117,6.138c-5.106,3.282-9.299,5.855-9.369,5.747
						c-0.069-0.108,4.012-2.856,9.118-6.138C128.18,329.018,132.375,326.445,132.445,326.553z"/>
				</g>
			</g>
		</g>
		<g>
			<g>
				<g>
					<path style="fill:#263238;" d="M143.955,338.977c-0.09,0.092-2.854-2.463-6.174-5.705c-3.321-3.244-5.94-5.947-5.85-6.039
						c0.09-0.092,2.854,2.462,6.175,5.706C141.426,336.181,144.045,338.885,143.955,338.977z"/>
				</g>
			</g>
		</g>
		<g>
			<g>
				<g>
					<path style="fill:#0F4C81;" d="M146.85,338.727l3.504-0.29c2.487-0.206,4.902-0.942,7.076-2.166
						c1.075-0.605,2.155-1.198,3.298-1.656c4.332-1.739,9.166-1.428,13.829-1.662c7.61-0.382,15.14-2.306,21.999-5.625
						c0.396-0.192,0.747-0.484,0.958-0.87c0.72-1.311-0.617-2.479-1.768-3.188c-5.904-3.638-11.913-7.322-18.608-9.128
						c-6.695-1.806-14.295-1.5-20.008,2.431C150.426,321.187,147.983,330.666,146.85,338.727"/>
				</g>
			</g>
			<g>
				<g>
					<g>
						<path style="fill:#263238;" d="M197.595,326.026c-0.008,0.014-0.212-0.082-0.594-0.276c-0.42-0.22-0.972-0.509-1.661-0.87
							c-1.441-0.758-3.514-1.876-6.135-3.132c-2.622-1.243-5.799-2.646-9.496-3.66c-3.681-1.023-7.929-1.558-12.308-0.997
							c-4.361,0.575-8.377,2.272-11.22,4.818c-2.861,2.538-4.608,5.602-5.842,8.206c-1.231,2.627-1.99,4.861-2.542,6.39
							c-0.259,0.733-0.466,1.32-0.624,1.767c-0.146,0.403-0.23,0.613-0.245,0.608c-0.015-0.005,0.039-0.224,0.156-0.636
							c0.137-0.454,0.317-1.051,0.541-1.796c0.5-1.549,1.212-3.804,2.415-6.47c1.206-2.642,2.945-5.772,5.857-8.389
							c2.896-2.627,7.005-4.375,11.444-4.958c4.454-0.572,8.77-0.011,12.483,1.045c3.729,1.047,6.912,2.492,9.526,3.777
							c2.612,1.299,4.663,2.463,6.078,3.27c0.671,0.392,1.21,0.707,1.619,0.947C197.413,325.889,197.603,326.013,197.595,326.026z"
							/>
					</g>
				</g>
			</g>
			<g>
				<g>
					<g>
						<path style="fill:#263238;" d="M189.179,330.548c-0.072,0.107-4.655-2.858-10.236-6.621
							c-5.583-3.764-10.048-6.901-9.977-7.008c0.072-0.107,4.654,2.858,10.237,6.622
							C184.784,327.304,189.251,330.441,189.179,330.548z"/>
					</g>
				</g>
			</g>
			<g>
				<g>
					<g>
						<path style="fill:#263238;" d="M184.776,316.48c0.025,0.122-1.566,0.535-3.577,0.717c-2.012,0.188-3.65,0.072-3.648-0.053
							c0-0.133,1.62-0.225,3.606-0.41C183.143,316.555,184.752,316.35,184.776,316.48z"/>
					</g>
				</g>
			</g>
			<g>
				<g>
					<g>
						<path style="fill:#263238;" d="M164.227,312.798c0.111,0.065-0.563,1.412-1.503,3.006c-0.941,1.596-1.794,2.836-1.904,2.77
							c-0.111-0.065,0.563-1.411,1.504-3.007C163.264,313.974,164.117,312.733,164.227,312.798z"/>
					</g>
				</g>
			</g>
			<g>
				<g>
					<g>
						<path style="fill:#263238;" d="M168.334,333.248c-0.032,0.052-0.882-0.392-2.206-1.196c-1.324-0.803-3.113-1.981-5.025-3.369
							c-1.912-1.389-3.598-2.701-4.809-3.662c-1.21-0.962-1.942-1.58-1.903-1.632c0.038-0.051,0.84,0.473,2.101,1.369
							c1.375,0.999,3.041,2.21,4.884,3.549c1.906,1.383,3.656,2.597,4.93,3.469C167.581,332.647,168.369,333.19,168.334,333.248z"/>
					</g>
				</g>
			</g>
		</g>
		<g>
			<g>
				<g>
					<path style="fill:#0F4C81;" d="M152.009,353.616c-3.342-0.883-7.327,2.368-8.016,5.756c-0.689,3.388,0.581,6.852,2.069,9.973
						c3.293,6.908,7.837,13.316,13.822,18.085c5.985,4.769,13.481,7.819,21.134,7.78c-1.413-6.563,0.374-13.42-0.414-20.087
						c-0.688-5.819-3.401-11.38-7.565-15.502c-4.164-4.123-9.751-6.78-15.577-7.41C155.33,351.98,152.86,351.645,152.009,353.616"/>
				</g>
			</g>
			<g>
				<g>
					<g>
						<path style="fill:#263238;" d="M181.019,395.21c-0.008,0.014-0.171-0.062-0.476-0.221c-0.301-0.164-0.737-0.43-1.25-0.839
							c-1.049-0.796-2.252-2.332-3.3-4.414c-0.533-1.035-1.129-2.158-1.711-3.402c-0.565-1.248-1.166-2.578-1.798-3.975
							c-0.638-1.393-1.339-2.839-2.21-4.249c-0.867-1.413-1.898-2.793-3.041-4.136c-2.288-2.688-4.744-5.013-6.872-7.235
							c-2.14-2.213-3.939-4.344-5.24-6.287c-1.313-1.935-2.109-3.668-2.56-4.89c-0.215-0.616-0.37-1.098-0.446-1.434
							c-0.084-0.333-0.121-0.509-0.106-0.513c0.044-0.013,0.233,0.683,0.721,1.881c0.5,1.191,1.329,2.88,2.663,4.77
							c1.321,1.898,3.129,3.987,5.276,6.174c2.137,2.198,4.607,4.517,6.919,7.233c1.155,1.356,2.198,2.758,3.075,4.199
							c0.881,1.439,1.581,2.906,2.211,4.309c0.618,1.402,1.206,2.737,1.758,3.99c0.561,1.238,1.14,2.373,1.653,3.413
							c1.007,2.087,2.13,3.599,3.124,4.426C180.386,394.853,181.047,395.165,181.019,395.21z"/>
					</g>
				</g>
			</g>
			<g>
				<g>
					<g>
						<path style="fill:#263238;" d="M163.735,389.756c-0.061-0.012,0.044-0.874,0.307-2.25c0.262-1.376,0.691-3.266,1.27-5.325
							c0.581-2.059,1.201-3.895,1.696-5.206c0.495-1.311,0.855-2.101,0.913-2.079c0.063,0.023-0.188,0.852-0.601,2.186
							c-0.414,1.334-0.982,3.176-1.56,5.225c-0.576,2.049-1.054,3.916-1.397,5.27C164.02,388.931,163.8,389.769,163.735,389.756z"/>
					</g>
				</g>
			</g>
			<g>
				<g>
					<g>
						<path style="fill:#263238;" d="M180.386,373.646c-0.02,0.064-0.915-0.164-2.355-0.541c-1.44-0.377-3.429-0.891-5.641-1.39
							c-2.214-0.498-4.231-0.886-5.694-1.163c-1.462-0.277-2.368-0.454-2.359-0.52c0.008-0.061,0.931,0.001,2.411,0.195
							c1.48,0.195,3.518,0.533,5.743,1.034c2.224,0.502,4.21,1.069,5.631,1.528C179.544,373.247,180.404,373.587,180.386,373.646z"
							/>
					</g>
				</g>
			</g>
			<g>
				<g>
					<g>
						<path style="fill:#263238;" d="M151.332,378.326c-0.061-0.012,0.068-1.008,0.362-2.604c0.294-1.595,0.762-3.789,1.387-6.186
							c0.626-2.397,1.291-4.54,1.814-6.075c0.524-1.536,0.898-2.468,0.957-2.448c0.063,0.021-0.201,0.989-0.643,2.546
							c-0.442,1.557-1.054,3.707-1.678,6.095c-0.623,2.388-1.139,4.562-1.515,6.136C151.64,377.366,151.397,378.339,151.332,378.326
							z"/>
					</g>
				</g>
			</g>
			<g>
				<g>
					<g>
						<path style="fill:#263238;" d="M172.717,359.606c-0.014,0.128-4.186-0.21-9.319-0.754c-5.134-0.544-9.284-1.089-9.271-1.217
							c0.014-0.128,4.185,0.21,9.32,0.754C168.581,358.933,172.731,359.478,172.717,359.606z"/>
					</g>
				</g>
			</g>
		</g>
		<g>
			<g>
				<g>
					<path style="fill:#455A64;" d="M169.661,410.208c0,0.128-14.668,0.233-32.757,0.233c-18.096,0-32.761-0.104-32.761-0.233
						c0-0.129,14.665-0.233,32.761-0.233C154.993,409.975,169.661,410.079,169.661,410.208z"/>
				</g>
			</g>
		</g>
		<g>
			<g>
				<g>
					<path style="fill:#455A64;" d="M159.456,429.083c0,0.129-9.883,0.233-22.071,0.233c-12.193,0-22.073-0.104-22.073-0.233
						c0-0.128,9.881-0.233,22.073-0.233C149.573,428.851,159.456,428.955,159.456,429.083z"/>
				</g>
			</g>
		</g>
		<g>
			<g>
				<g>
					<path style="fill:#455A64;" d="M159.841,431.782c0,0.128-9.883,0.233-22.071,0.233c-12.193,0-22.073-0.104-22.073-0.233
						c0-0.129,9.881-0.233,22.073-0.233C149.958,431.549,159.841,431.654,159.841,431.782z"/>
				</g>
			</g>
		</g>
		<g>
			<g>
				<g>
					<path style="fill:#455A64;" d="M159.841,426.859c0,0.129-10.222,0.233-22.829,0.233c-12.611,0-22.832-0.104-22.832-0.233
						c0-0.128,10.22-0.233,22.832-0.233C149.619,426.626,159.841,426.73,159.841,426.859z"/>
				</g>
			</g>
		</g>
	</g>
</g>
</svg>
